G04*
G04 Format:               Gerber RS-274X*
G04 Export Settings:      OSH Park*
G04 Layer:                TopCopper*
G04 This File Name:       GCDUAL_QSB_FINAL5.2.gtl*
G04 Source File Name:     GCDUAL_QSB_FINAL5.2.rrb*
G04 Unique ID:            757d16c7-f99c-4077-9d8c-5aaf3e2abc93*
G04 Generated Date:       Friday, 30 March 2018 13:03:25*
G04*
G04 Created Using:        Robot Room Copper Connection v3.0.5875*
G04 Software Contact:     http://www.robotroom.com/CopperConnection/Support.aspx*
G04 License Number:       1880*
G04*
G04 Zero Suppression:     Leading*
G04 Number Precision:     2.4*
G04*
%FSLAX24Y24*%
%MOIN*%
%LNTopCopper*%
%ADD10C,.007*%
%ADD11C,.008*%
%ADD12C,.015*%
%ADD13C,.0236*%
%ADD14C,.03*%
%ADD15C,.0307*%
%ADD16C,.037*%
%ADD17C,.038*%
%ADD18C,.045*%
%ADD19C,.0536*%
%ADD20C,.0578*%
%ADD21C,.0607*%
%ADD22C,.0709*%
%ADD23C,.0878*%
%ADD24C,.09*%
%ADD25C,.1009*%
%ADD26C,.1181*%
%ADD27R,.006X.006*%
%ADD28R,.0079X.0079*%
%ADD29R,.03X.03*%
%ADD30R,.0276X.0197*%
%ADD31R,.0394X.0689*%
%ADD32R,.0576X.0497*%
%ADD33R,.0603X.0787*%
%ADD34R,.0694X.0989*%
%ADD35R,.0903X.1087*%
%AMTHERMAL*7,0,0,$1,$1-$2-$2,$2,0*%
%ADD36THERMAL,.0736X.0079*%
%ADD37THERMAL,.0866X.0079*%
%ADD38THERMAL,.0867X.0079*%
%ADD39THERMAL,.1057X.0079*%
%ADD40THERMAL,.1339X.0079*%
G36*
G01X-152Y5118D02*
X23554D01*
Y0D01*
X-152D01*
Y5118D01*
G37*
%LPC*%
G36*
X10367Y5115D02*
X23624D01*
Y4328D01*
X10367D01*
Y5115D01*
G37*
G36*
X3259Y5416D02*
X7865D01*
Y3960D01*
X3259D01*
Y5416D01*
G37*
D36*
X15360Y1269D03*
X16693D03*
X18026Y2162D03*
X18692Y1269D03*
X20692D03*
D37*
X16360Y2929D03*
X19692D03*
D38*
X3880Y2396D03*
Y1412D03*
D39*
X357Y2542D03*
Y1663D03*
X8344Y2542D03*
Y1663D03*
X5909Y3383D03*
X6788D03*
X1879D03*
X2758D03*
D40*
X22752Y1720D03*
X13300D03*
D29*
X9894Y2936D02*
X10248D01*
Y2306D01*
X9894D01*
Y2936D01*
X9476D02*
X9830D01*
Y2306D01*
X9476D01*
Y2936D01*
X10312D02*
X10666D01*
Y2306D01*
X10312D01*
Y2936D01*
X10731D02*
X11085D01*
Y2306D01*
X10731D01*
Y2936D01*
X11154D02*
X11508D01*
Y2306D01*
X11154D01*
Y2936D01*
X9476Y2238D02*
X9830D01*
Y1608D01*
X9476D01*
Y2238D01*
X10312D02*
X10666D01*
Y1608D01*
X10312D01*
Y2238D01*
X11154D02*
X11508D01*
Y1575D01*
X11154D01*
Y2238D01*
X10313Y1538D02*
X10667D01*
Y908D01*
X10313D01*
Y1538D01*
X9479Y1540D02*
X9834D01*
Y910D01*
X9479D01*
Y1540D01*
D16*
X12080Y4253D02*
X11684Y3920D01*
X11502Y4757D02*
X11529Y4353D01*
X11260Y4117D01*
X1881Y4393D02*
X1093Y3839D01*
Y2038D02*
X1912Y1412D01*
X11684Y3920D02*
X10001D01*
X11260Y4117D02*
X10191D01*
X13274Y3896D02*
X11749Y2691D01*
X10191Y4117D02*
X9561Y4629D01*
X10001Y3920D02*
X9410Y4314D01*
X13274Y4757D02*
Y3896D01*
X12080Y4253D02*
X12093Y4757D01*
X12683D02*
X12671Y4351D01*
X11789Y3577D01*
X7944Y3960D02*
X8298Y3999D01*
X7884Y3445D02*
X8416Y3763D01*
X5849Y2396D02*
X6654Y1909D01*
X7244D01*
X7540Y2313D01*
X7543Y2773D01*
X8455Y3408D02*
X8956D01*
X9635Y3029D01*
X7543Y2773D02*
X8455Y3408D01*
X9843Y3684D02*
X11044D01*
X9686Y3448D02*
X10310D01*
X10467Y3290D01*
X11044Y3684D02*
X11339Y3290D01*
X10467D02*
Y2621D01*
X11339Y3290D02*
Y2621D01*
X11789Y3577D02*
X11579D01*
X10900Y3172D02*
Y2621D01*
X10068Y3172D02*
Y2621D01*
X11749Y2691D02*
X11754Y2109D01*
X11636Y1913D02*
X11342Y1907D01*
X10507Y1913D02*
X9659D01*
X11754Y2109D02*
X11636Y1913D01*
X9635Y3029D02*
Y2621D01*
X9046Y692D02*
X9674Y1270D01*
X9125Y3763D02*
X9686Y3448D01*
X8416Y3763D02*
X9125D01*
X9410Y4314D02*
X8731D01*
X9410Y3999D02*
X9843Y3684D01*
X8298Y3999D02*
X9410D01*
X1093Y3839D02*
Y2038D01*
X2896Y2396D02*
X3810Y3199D01*
Y4629D01*
X4864Y2396D02*
X4676Y2878D01*
Y4629D01*
X4864Y1412D02*
X5374Y1969D01*
Y2795D01*
X5276Y2904D01*
Y3789D01*
X7543Y2773D02*
X7540Y3494D01*
X7274Y4078D01*
X6841D01*
X6408Y4629D01*
X7274D02*
X7786Y4865D01*
X9961D01*
X10151Y4550D01*
X5276Y3789D02*
X5542Y4629D01*
X11342Y1907D02*
X10507Y1913D01*
X11342Y1907D02*
Y1464D01*
X11467Y1204D01*
D17*
X19359Y1269D02*
X18761Y453D01*
X20026Y1269D02*
X19210Y196D01*
X17359Y1269D02*
X16964Y710D01*
X14269D02*
X14057Y938D01*
X18761Y453D02*
X13114D01*
X12515Y1095D01*
X16964Y710D02*
X14269D01*
X19210Y196D02*
X13049D01*
X12270Y1043D01*
X16816Y4258D02*
X16817Y4757D01*
X14057Y938D02*
Y3146D01*
X12515Y2266D02*
X14945Y4175D01*
X12270Y1043D02*
Y2373D01*
X12515Y1095D02*
Y2266D01*
X15360Y2162D02*
Y2737D01*
X14693Y2162D02*
Y2642D01*
X17417Y3494D02*
X18522D01*
X14555Y3116D02*
X15288Y3776D01*
X17762Y4111D02*
X17998Y4757D01*
X14693Y1269D02*
X15039Y1717D01*
X21694D01*
X23313Y3790D01*
Y4757D01*
X20692Y2162D02*
X20951Y2725D01*
X21358Y2162D02*
X21542Y2725D01*
X14057Y3146D02*
X15020Y3982D01*
X16836Y3597D02*
X17197Y3216D01*
X18522Y3494D02*
X19162Y4357D01*
X14693Y2642D02*
X15643Y3597D01*
X15360Y2737D02*
X15937Y3405D01*
X12270Y2373D02*
X14733Y4286D01*
X14945Y4175D02*
X16061D01*
X18160Y3776D02*
X18595Y4357D01*
X14733Y4286D02*
X15046Y4757D01*
X16061Y4175D02*
X16227Y4372D01*
X17022Y3982D02*
X17294Y4267D01*
X15020Y3982D02*
X17022D01*
X15643Y3597D02*
X16836D01*
X15288Y3776D02*
X18160D01*
X15937Y3405D02*
X16707D01*
X17092Y3006D02*
X18962D01*
X18670Y3216D02*
X19764Y4605D01*
X16707Y3405D02*
X17092Y3006D01*
X18962D02*
X20361Y4757D01*
X17197Y3216D02*
X18670D01*
X21542Y2725D02*
Y4757D01*
X20951Y2725D02*
Y4759D01*
X17294Y4267D02*
X17408Y4757D01*
X16227Y4372D02*
Y4757D01*
X5849Y1412D02*
X6999Y377D01*
X11518D01*
X13865Y3889D02*
X13860Y4757D01*
X12041Y2485D02*
X13865Y3889D01*
X12041Y928D02*
Y2485D01*
X11518Y377D02*
X12041Y928D01*
X18595Y4357D02*
X18589Y4757D01*
X19162Y4357D02*
X19179Y4757D01*
D18*
X20026Y2162D02*
X20348Y2778D01*
Y3645D01*
D19*
X17417Y3494D03*
X17762Y4111D03*
X16816Y4258D03*
X14555Y3116D03*
X19764Y4605D03*
X20348Y3645D03*
X10900Y3172D03*
X10068D03*
X11579Y3577D03*
X9046Y692D03*
X7884Y3445D03*
X7944Y3960D03*
X8731Y4314D03*
X9561Y4629D03*
X1881Y4393D03*
X10151Y4550D03*
X11749Y2691D03*
D13*
X11024Y787D03*
D21*
X14455Y4757D03*
X15636Y4580D03*
X22138Y4746D03*
X13860Y4757D03*
D23*
X14693Y1269D03*
X16026D03*
X14693Y2162D03*
X15360D03*
X16026D03*
X16693D03*
X17359Y1269D03*
Y2162D03*
X18026Y1269D03*
X18692Y2162D03*
X19359Y1269D03*
Y2162D03*
X20026Y1269D03*
Y2162D03*
X20692D03*
X21358Y1269D03*
Y2162D03*
D25*
X5849Y2396D03*
X4864D03*
X2896D03*
X1912D03*
X6833D03*
X5849Y1412D03*
X4864D03*
X2896D03*
X1912D03*
X6833D03*
D28*
X10856Y1282D02*
Y1342D01*
X10955D01*
X11112D02*
X11210D01*
Y1282D01*
Y1125D02*
Y1066D01*
X11112D01*
X10955D02*
X10856D01*
Y1125D01*
D32*
X11467Y1204D03*
D34*
X13864Y4757D03*
X14455D03*
X15046D03*
X15636D03*
X16227D03*
X16817D03*
X17408D03*
X17998D03*
X18589D03*
X19179D03*
X20361D03*
X20951Y4759D03*
X21542Y4757D03*
X22132D03*
X22723D03*
X23313D03*
X13274D03*
X12683D03*
X12093D03*
X11502D03*
X10912D03*
D35*
X7274Y4629D03*
X6408D03*
X5542D03*
X4676D03*
X3810D03*
%LPD*%
G36*
X-94Y2529D02*
X806D01*
Y1623D01*
X-94D01*
Y2529D01*
G37*
G36*
X7894Y2529D02*
X8794D01*
Y1623D01*
X7894D01*
Y2529D01*
G37*
G36*
X5909Y3832D02*
X6815D01*
Y2932D01*
X5909D01*
Y3832D01*
G37*
G36*
X1892Y3832D02*
X2798D01*
Y2932D01*
X1892D01*
Y3832D01*
G37*
G36*
X9894Y2936D02*
X10248D01*
Y2306D01*
X9894D01*
Y2936D01*
G37*
G36*
X9476Y2936D02*
X9830D01*
Y2306D01*
X9476D01*
Y2936D01*
G37*
G36*
X10312Y2936D02*
X10666D01*
Y2306D01*
X10312D01*
Y2936D01*
G37*
G36*
X10731Y2936D02*
X11085D01*
Y2306D01*
X10731D01*
Y2936D01*
G37*
G36*
X11154Y2936D02*
X11508D01*
Y2306D01*
X11154D01*
Y2936D01*
G37*
G36*
X9476Y2238D02*
X9830D01*
Y1608D01*
X9476D01*
Y2238D01*
G37*
G36*
X10312Y2238D02*
X10666D01*
Y1608D01*
X10312D01*
Y2238D01*
G37*
G36*
X11154Y2238D02*
X11508D01*
Y1575D01*
X11154D01*
Y2238D01*
G37*
G36*
X10313Y1538D02*
X10667D01*
Y908D01*
X10313D01*
Y1538D01*
G37*
G36*
X9479Y1540D02*
X9834D01*
Y910D01*
X9479D01*
Y1540D01*
G37*
D10*
X12080Y4253D02*
X11684Y3920D01*
X11502Y4757D02*
X11529Y4353D01*
X11260Y4117D01*
X1881Y4393D02*
X1093Y3839D01*
Y2038D02*
X1912Y1412D01*
X11684Y3920D02*
X10001D01*
X11260Y4117D02*
X10191D01*
X13274Y3896D02*
X11749Y2691D01*
X10191Y4117D02*
X9561Y4629D01*
X10001Y3920D02*
X9410Y4314D01*
X13274Y4757D02*
Y3896D01*
X12080Y4253D02*
X12093Y4757D01*
X12683D02*
X12671Y4351D01*
X11789Y3577D01*
X7944Y3960D02*
X8298Y3999D01*
X7884Y3445D02*
X8416Y3763D01*
X5849Y2396D02*
X6654Y1909D01*
X7244D01*
X7540Y2313D01*
X7543Y2773D01*
X8455Y3408D02*
X8956D01*
X9635Y3029D01*
X7543Y2773D02*
X8455Y3408D01*
X9843Y3684D02*
X11044D01*
X9686Y3448D02*
X10310D01*
X10467Y3290D01*
X11044Y3684D02*
X11339Y3290D01*
X10467D02*
Y2621D01*
X11339Y3290D02*
Y2621D01*
X11789Y3577D02*
X11579D01*
X10900Y3172D02*
Y2621D01*
X10068Y3172D02*
Y2621D01*
X11749Y2691D02*
X11754Y2109D01*
X11636Y1913D02*
X11342Y1907D01*
X10507Y1913D02*
X9659D01*
X11754Y2109D02*
X11636Y1913D01*
X9635Y3029D02*
Y2621D01*
X9046Y692D02*
X9674Y1270D01*
X9125Y3763D02*
X9686Y3448D01*
X8416Y3763D02*
X9125D01*
X9410Y4314D02*
X8731D01*
X9410Y3999D02*
X9843Y3684D01*
X8298Y3999D02*
X9410D01*
X1093Y3839D02*
Y2038D01*
X2896Y2396D02*
X3810Y3199D01*
Y4629D01*
X4864Y2396D02*
X4676Y2878D01*
Y4629D01*
X4864Y1412D02*
X5374Y1969D01*
Y2795D01*
X5276Y2904D01*
Y3789D01*
X10488Y1203D02*
X11033Y1204D01*
X10488Y1203D02*
X10079D01*
X10488D02*
X10482Y668D01*
X7543Y2773D02*
X7540Y3494D01*
X7274Y4078D01*
X6841D01*
X6408Y4629D01*
X7274D02*
X7786Y4865D01*
X9961D01*
X10151Y4550D01*
X5276Y3789D02*
X5542Y4629D01*
X11342Y1907D02*
X10507Y1913D01*
X11342Y1907D02*
Y1464D01*
X11467Y1204D01*
D11*
X19359Y1269D02*
X18761Y453D01*
X20026Y1269D02*
X19210Y196D01*
X17359Y1269D02*
X16964Y710D01*
X14269D02*
X14057Y938D01*
X18761Y453D02*
X13114D01*
X12515Y1095D01*
X16964Y710D02*
X14269D01*
X19210Y196D02*
X13049D01*
X12270Y1043D01*
X16816Y4258D02*
X16817Y4757D01*
X14057Y938D02*
Y3146D01*
X12515Y2266D02*
X14945Y4175D01*
X12270Y1043D02*
Y2373D01*
X12515Y1095D02*
Y2266D01*
X15360Y2162D02*
Y2737D01*
X14693Y2162D02*
Y2642D01*
X17417Y3494D02*
X18522D01*
X14555Y3116D02*
X15288Y3776D01*
X17762Y4111D02*
X17998Y4757D01*
X14693Y1269D02*
X15039Y1717D01*
X21694D01*
X23313Y3790D01*
Y4757D01*
X20692Y2162D02*
X20951Y2725D01*
X21358Y2162D02*
X21542Y2725D01*
X14057Y3146D02*
X15020Y3982D01*
X16836Y3597D02*
X17197Y3216D01*
X18522Y3494D02*
X19162Y4357D01*
X14693Y2642D02*
X15643Y3597D01*
X15360Y2737D02*
X15937Y3405D01*
X12270Y2373D02*
X14733Y4286D01*
X14945Y4175D02*
X16061D01*
X18160Y3776D02*
X18595Y4357D01*
X14733Y4286D02*
X15046Y4757D01*
X16061Y4175D02*
X16227Y4372D01*
X17022Y3982D02*
X17294Y4267D01*
X15020Y3982D02*
X17022D01*
X15643Y3597D02*
X16836D01*
X15288Y3776D02*
X18160D01*
X15937Y3405D02*
X16707D01*
X17092Y3006D02*
X18962D01*
X18670Y3216D02*
X19764Y4605D01*
X16707Y3405D02*
X17092Y3006D01*
X18962D02*
X20361Y4757D01*
X17197Y3216D02*
X18670D01*
X21542Y2725D02*
Y4757D01*
X20951Y2725D02*
Y4759D01*
X17294Y4267D02*
X17408Y4757D01*
X16227Y4372D02*
Y4757D01*
X5849Y1412D02*
X6999Y377D01*
X11518D01*
X13865Y3889D02*
X13860Y4757D01*
X12041Y2485D02*
X13865Y3889D01*
X12041Y928D02*
Y2485D01*
X11518Y377D02*
X12041Y928D01*
X18595Y4357D02*
X18589Y4757D01*
X19162Y4357D02*
X19179Y4757D01*
D12*
X20026Y2162D02*
X20348Y2778D01*
Y3645D01*
D13*
X17417Y3494D03*
X17762Y4111D03*
X16816Y4258D03*
X14555Y3116D03*
X22918Y3908D03*
X19876Y3566D03*
X23090Y2897D03*
X22528Y3400D03*
X13641Y2700D03*
Y833D03*
X19764Y4605D03*
X12277Y377D03*
X20348Y3645D03*
X10900Y3172D03*
X10068D03*
X11579Y3577D03*
X9046Y692D03*
X7884Y3445D03*
X7944Y3960D03*
X8731Y4314D03*
X9561Y4629D03*
X1881Y4393D03*
D03*
X10151Y4550D03*
X11749Y2691D03*
X22457Y3896D03*
X11024Y787D03*
D14*
X22723Y4757D02*
Y4262D01*
X22918Y3908D01*
D15*
X14455Y4757D03*
X15636Y4580D03*
X22138Y4746D03*
X13860Y4757D03*
X21844Y388D03*
X22631D03*
X20269D03*
X21056D03*
X10907Y4629D03*
X6093Y338D03*
X4755D03*
X3455D03*
X2196D03*
X975D03*
X621Y3566D03*
Y4550D03*
D20*
X14693Y1269D03*
X15360D03*
X16026D03*
X16693D03*
X14693Y2162D03*
X15360D03*
X16026D03*
X16693D03*
X17359Y1269D03*
Y2162D03*
X18026Y1269D03*
Y2162D03*
X18692Y1269D03*
Y2162D03*
X19359Y1269D03*
Y2162D03*
X20026Y1269D03*
Y2162D03*
X20692Y1269D03*
Y2162D03*
X21358Y1269D03*
Y2162D03*
D22*
X16360Y2929D03*
X19692D03*
X5849Y2396D03*
X4864D03*
X3880D03*
X2896D03*
X1912D03*
X6833D03*
X5849Y1412D03*
X4864D03*
X3880D03*
X2896D03*
X1912D03*
X6833D03*
D24*
X357Y2542D03*
Y1663D03*
X8344Y2542D03*
Y1663D03*
X5909Y3383D03*
X6788D03*
X1879D03*
X2758D03*
D26*
X22752Y1720D03*
X13300D03*
D30*
X11033Y1204D03*
X11467D03*
D31*
X13864Y4757D03*
X14455D03*
X15046D03*
X15636D03*
X16227D03*
X16817D03*
X17408D03*
X17998D03*
X18589D03*
X19179D03*
X20361D03*
X20951Y4759D03*
X21542Y4757D03*
X22132D03*
X22723D03*
X23313D03*
X13274D03*
X12683D03*
X12093D03*
X11502D03*
X10912D03*
D33*
X7274Y4629D03*
X6408D03*
X5542D03*
X4676D03*
X3810D03*
M02*
