M48
;
; Format:               Excellon NC Drill Ascii
; Export Settings:      OSH Park
; This File Name:       GCDUAL_QSB_FINAL5.2.xln
; Source File Name:     GCDUAL_QSB_FINAL5.2.rrb
; Unique ID:            757d16c7-f99c-4077-9d8c-5aaf3e2abc93
; Generated Date:       Friday, 30 March 2018 13:03:25
;
; Created Using:        Robot Room Copper Connection v3.0.5875
; Software Contact:     http://www.robotroom.com/CopperConnection/Support.aspx
; License Number:       1880
;
; Zero Suppression:     None
; Number Precision:     2.4
;
FMAT,2
INCH
T01C.012
T02C.013
T03C.046
T04C.059
T05C.106
%
T01
X001881Y004393
X007884Y003445
X007944Y003960
X008731Y004314
X009561Y004629
X010151Y004550
X010068Y003172
X010900
X011579Y003577
X011749Y002691
X013641Y002700
X014555Y003116
X013641Y000833
X012277Y000377
X011024Y000787
X009046Y000692
X016816Y004258
X017762Y004111
X017417Y003494
X019876Y003566
X020348Y003645
X019764Y004605
X022457Y003896
X022918Y003908
X022528Y003400
X023090Y002897
T02
X000975Y000338
X002196
X003455
X004755
X006093
X000621Y003566
Y004550
X010907Y004629
X013860Y004757
X014455
X015636Y004580
X020269Y000388
X021056
X021844
X022631
X022138Y004746
T03
X014693Y001269
X015360
X016026
X016693
X017359
X018026
X018692
X019359
X020026
X020692
X021358
Y002162
X020692
X020026
X019359
X018692
X018026
X017359
X016693
X016026
X015360
X014693
T04
X001912Y001412
Y002396
X002896
Y001412
X003880
Y002396
X004864
Y001412
X005849
Y002396
X006833
Y001412
X016360Y002929
X019692
T05
X013300Y001720
X022752
M30
