G04*
G04 Format:               Gerber RS-274X*
G04 Export Settings:      OSH Park*
G04 Layer:                BottomSolderMask*
G04 This File Name:       GCDUAL_QSB_FINAL5.2.gbs*
G04 Source File Name:     GCDUAL_QSB_FINAL5.2.rrb*
G04 Unique ID:            757d16c7-f99c-4077-9d8c-5aaf3e2abc93*
G04 Generated Date:       Friday, 30 March 2018 13:03:25*
G04*
G04 Created Using:        Robot Room Copper Connection v3.0.5875*
G04 Software Contact:     http://www.robotroom.com/CopperConnection/Support.aspx*
G04 License Number:       1880*
G04*
G04 Zero Suppression:     Leading*
G04 Number Precision:     2.4*
G04*
G04 Polarity:             Negative. Dark is solderable. Clear space is coating.*
G04*
%FSLAX24Y24*%
%MOIN*%
%LNBottomSolderMask*%
%ADD10C,.0678*%
%ADD11C,.0809*%
%ADD12C,.1*%
%ADD13C,.1281*%
%ADD14R,.006X.006*%
G36*
G01X-99Y2569D02*
X806D01*
Y1703D01*
X-99D01*
Y2569D01*
G37*
G36*
X1901Y3829D02*
X2767D01*
Y2924D01*
X1901D01*
Y3829D01*
G37*
G36*
X6004Y3829D02*
X6831D01*
Y2924D01*
X6004D01*
Y3829D01*
G37*
G36*
X7887Y2490D02*
X8792D01*
Y1703D01*
X7887D01*
Y2490D01*
G37*
D10*
X14693Y1269D03*
X15360D03*
X16026D03*
X16693D03*
X14693Y2162D03*
X15360D03*
X16026D03*
X16693D03*
X17359Y1269D03*
Y2162D03*
X18026Y1269D03*
Y2162D03*
X18692Y1269D03*
Y2162D03*
X19359Y1269D03*
Y2162D03*
X20026Y1269D03*
Y2162D03*
X20692Y1269D03*
Y2162D03*
X21358Y1269D03*
Y2162D03*
D11*
X16360Y2929D03*
X19692D03*
X5849Y2396D03*
X4864D03*
X3880D03*
X2896D03*
X1912D03*
X6833D03*
X5849Y1412D03*
X4864D03*
X3880D03*
X2896D03*
X1912D03*
X6833D03*
D12*
X8344Y2542D03*
Y1663D03*
X5909Y3383D03*
X6788D03*
X1879D03*
X2758D03*
X357Y2542D03*
Y1663D03*
D13*
X22752Y1720D03*
X13300D03*
M02*
