G04*
G04 Format:               Gerber RS-274X*
G04 Export Settings:      OSH Park*
G04 Layer:                BottomCopper*
G04 This File Name:       GCDUAL_QSB_FINAL5.2.gbl*
G04 Source File Name:     GCDUAL_QSB_FINAL5.2.rrb*
G04 Unique ID:            757d16c7-f99c-4077-9d8c-5aaf3e2abc93*
G04 Generated Date:       Friday, 30 March 2018 13:03:25*
G04*
G04 Created Using:        Robot Room Copper Connection v3.0.5875*
G04 Software Contact:     http://www.robotroom.com/CopperConnection/Support.aspx*
G04 License Number:       1880*
G04*
G04 Zero Suppression:     Leading*
G04 Number Precision:     2.4*
G04*
%FSLAX24Y24*%
%MOIN*%
%LNBottomCopper*%
%ADD10C,.007*%
%ADD11C,.008*%
%ADD12C,.015*%
%ADD13C,.0236*%
%ADD14C,.0307*%
%ADD15C,.037*%
%ADD16C,.038*%
%ADD17C,.045*%
%ADD18C,.0536*%
%ADD19C,.0578*%
%ADD20C,.0607*%
%ADD21C,.0709*%
%ADD22C,.0878*%
%ADD23C,.09*%
%ADD24C,.1009*%
%ADD25C,.1181*%
%ADD26R,.006X.006*%
%AMTHERMAL*7,0,0,$1,$1-$2-$2,$2,0*%
%ADD27THERMAL,.0736X.0079*%
%ADD28THERMAL,.0866X.0079*%
%ADD29THERMAL,.0867X.0079*%
%ADD30THERMAL,.1057X.0079*%
%ADD31THERMAL,.1339X.0079*%
G36*
G01X-152Y5118D02*
X23554D01*
Y0D01*
X-152D01*
Y5118D01*
G37*
%LPC*%
G36*
X10341Y5115D02*
X23609D01*
Y4328D01*
X10341D01*
Y5115D01*
G37*
D27*
X15360Y1269D03*
X16693D03*
X18026Y2162D03*
X18692Y1269D03*
X20692D03*
D28*
X16360Y2929D03*
X19692D03*
D29*
X3880Y2396D03*
Y1412D03*
D30*
X8344Y2542D03*
Y1663D03*
X5909Y3383D03*
X6788D03*
X1879D03*
X2758D03*
X357Y2542D03*
Y1663D03*
D31*
X22752Y1720D03*
X13300D03*
D15*
X19447Y4933D02*
X19764Y4605D01*
X10907Y4629D02*
X10269Y4865D01*
X1723D02*
X1093Y4429D01*
Y2264D01*
X1494Y1912D01*
X2629D01*
X2896Y1412D01*
X11579Y3577D02*
X10900Y3172D01*
X10068D01*
X10269Y4865D02*
X1723D01*
X4864Y1412D02*
X5621Y692D01*
X9046D01*
X7884Y3445D02*
X7540Y3248D01*
X7527Y2306D01*
X5621Y1912D02*
X4864Y2396D01*
X7944Y3960D02*
X7707Y4078D01*
X4794D01*
X2896Y2396D01*
X3889Y4314D02*
X3613Y4078D01*
X1687D01*
X1240Y3691D01*
Y2904D01*
X1912Y2396D01*
X8731Y4314D02*
X3889D01*
X7251Y1912D02*
X5621D01*
X7527Y2306D02*
X7251Y1912D01*
X9561Y4629D02*
X3574D01*
X3355Y4393D01*
X1881D01*
X10151Y4550D02*
X10584Y4047D01*
X11890D01*
X12041Y3723D01*
X12040Y2921D02*
X11749Y2691D01*
X12041Y3723D02*
X12040Y2921D01*
D16*
X16693Y2162D02*
X16964Y2623D01*
Y3212D02*
X17417Y3494D01*
X16964Y2623D02*
Y3212D01*
X17359Y2162D02*
X17762Y2778D01*
X18692Y2162D02*
Y4180D01*
X19359Y2162D02*
X19032Y2760D01*
Y4337D01*
X22138Y2297D02*
X21358Y1269D01*
X17762Y2778D02*
Y4111D01*
X18692Y4180D02*
X18472Y4372D01*
X22138Y2297D02*
Y4746D01*
X18026Y1269D02*
X17570Y1713D01*
X14397D01*
X14057Y2165D01*
X14059Y2691D01*
X18682Y4688D02*
X15917D01*
X15636Y4580D01*
X18472Y4372D02*
X17074D01*
X16816Y4258D01*
X19032Y4337D02*
X18682Y4688D01*
X14059Y2691D02*
X14555Y3116D01*
D17*
X14823Y4933D02*
X14455Y4757D01*
X20123Y4933D02*
X19447D01*
X20348Y4550D02*
X20123Y4933D01*
X19447D02*
X14823D01*
X20348Y3645D02*
Y4550D01*
D18*
X17417Y3494D03*
X17762Y4111D03*
X16816Y4258D03*
X14555Y3116D03*
X19764Y4605D03*
X20348Y3645D03*
X10900Y3172D03*
X10068D03*
X11579Y3577D03*
X9046Y692D03*
X7884Y3445D03*
X7944Y3960D03*
X8731Y4314D03*
X9561Y4629D03*
X1881Y4393D03*
X10151Y4550D03*
X11749Y2691D03*
D13*
X11024Y787D03*
D20*
X14455Y4757D03*
X15636Y4580D03*
X22138Y4746D03*
X13860Y4757D03*
D22*
X14693Y1269D03*
X16026D03*
X14693Y2162D03*
X15360D03*
X16026D03*
X16693D03*
X17359Y1269D03*
Y2162D03*
X18026Y1269D03*
X18692Y2162D03*
X19359Y1269D03*
Y2162D03*
X20026Y1269D03*
Y2162D03*
X20692D03*
X21358Y1269D03*
Y2162D03*
D24*
X5849Y2396D03*
X4864D03*
X2896D03*
X1912D03*
X6833D03*
X5849Y1412D03*
X4864D03*
X2896D03*
X1912D03*
X6833D03*
%LPD*%
G36*
X7894Y2529D02*
X8794D01*
Y1623D01*
X7894D01*
Y2529D01*
G37*
G36*
X5894Y3832D02*
X6799D01*
Y2932D01*
X5894D01*
Y3832D01*
G37*
G36*
X1892Y3832D02*
X2798D01*
Y2932D01*
X1892D01*
Y3832D01*
G37*
G36*
X-94Y2529D02*
X806D01*
Y1623D01*
X-94D01*
Y2529D01*
G37*
D10*
X19447Y4933D02*
X19764Y4605D01*
X10907Y4629D02*
X10269Y4865D01*
X1723D02*
X1093Y4429D01*
Y2264D01*
X1494Y1912D01*
X2629D01*
X2896Y1412D01*
X11579Y3577D02*
X10900Y3172D01*
X10068D01*
X10269Y4865D02*
X1723D01*
X4864Y1412D02*
X5621Y692D01*
X9046D01*
X7884Y3445D02*
X7540Y3248D01*
X7527Y2306D01*
X5621Y1912D02*
X4864Y2396D01*
X7944Y3960D02*
X7707Y4078D01*
X4794D01*
X2896Y2396D01*
X3889Y4314D02*
X3613Y4078D01*
X1687D01*
X1240Y3691D01*
Y2904D01*
X1912Y2396D01*
X8731Y4314D02*
X3889D01*
X7251Y1912D02*
X5621D01*
X7527Y2306D02*
X7251Y1912D01*
X9561Y4629D02*
X3574D01*
X3355Y4393D01*
X1881D01*
X10151Y4550D02*
X10584Y4047D01*
X11890D01*
X12041Y3723D01*
X12040Y2921D02*
X11749Y2691D01*
X12041Y3723D02*
X12040Y2921D01*
D11*
X16693Y2162D02*
X16964Y2623D01*
Y3212D02*
X17417Y3494D01*
X16964Y2623D02*
Y3212D01*
X17359Y2162D02*
X17762Y2778D01*
X18692Y2162D02*
Y4180D01*
X19359Y2162D02*
X19032Y2760D01*
Y4337D01*
X22138Y2297D02*
X21358Y1269D01*
X17762Y2778D02*
Y4111D01*
X18692Y4180D02*
X18472Y4372D01*
X22138Y2297D02*
Y4746D01*
X18026Y1269D02*
X17570Y1713D01*
X14397D01*
X14057Y2165D01*
X14059Y2691D01*
X18682Y4688D02*
X15917D01*
X15636Y4580D01*
X18472Y4372D02*
X17074D01*
X16816Y4258D01*
X19032Y4337D02*
X18682Y4688D01*
X14059Y2691D02*
X14555Y3116D01*
D12*
X14823Y4933D02*
X14455Y4757D01*
X20123Y4933D02*
X19447D01*
X20348Y4550D02*
X20123Y4933D01*
X19447D02*
X14823D01*
X20348Y3645D02*
Y4550D01*
D13*
X17417Y3494D03*
X17762Y4111D03*
X16816Y4258D03*
X14555Y3116D03*
X22918Y3908D03*
X19876Y3566D03*
X23090Y2897D03*
X22528Y3400D03*
X13641Y2700D03*
Y833D03*
X19764Y4605D03*
X12277Y377D03*
X20348Y3645D03*
X10900Y3172D03*
X10068D03*
X11579Y3577D03*
X9046Y692D03*
X7884Y3445D03*
X7944Y3960D03*
X8731Y4314D03*
X9561Y4629D03*
X1881Y4393D03*
D03*
X10151Y4550D03*
X11749Y2691D03*
X22457Y3896D03*
X11024Y787D03*
D14*
X14455Y4757D03*
X15636Y4580D03*
X22138Y4746D03*
X13860Y4757D03*
X21844Y388D03*
X22631D03*
X20269D03*
X21056D03*
X10907Y4629D03*
X6093Y338D03*
X4755D03*
X3455D03*
X2196D03*
X975D03*
X621Y3566D03*
Y4550D03*
D19*
X14693Y1269D03*
X15360D03*
X16026D03*
X16693D03*
X14693Y2162D03*
X15360D03*
X16026D03*
X16693D03*
X17359Y1269D03*
Y2162D03*
X18026Y1269D03*
Y2162D03*
X18692Y1269D03*
Y2162D03*
X19359Y1269D03*
Y2162D03*
X20026Y1269D03*
Y2162D03*
X20692Y1269D03*
Y2162D03*
X21358Y1269D03*
Y2162D03*
D21*
X16360Y2929D03*
X19692D03*
X5849Y2396D03*
X4864D03*
X3880D03*
X2896D03*
X1912D03*
X6833D03*
X5849Y1412D03*
X4864D03*
X3880D03*
X2896D03*
X1912D03*
X6833D03*
D23*
X8344Y2542D03*
Y1663D03*
X5909Y3383D03*
X6788D03*
X1879D03*
X2758D03*
X357Y2542D03*
Y1663D03*
D25*
X22752Y1720D03*
X13300D03*
M02*
