G04*
G04 Format:               Gerber RS-274X*
G04 Export Settings:      OSH Park*
G04 Layer:                BoardOutline*
G04 This File Name:       GCDUAL_QSB_FINAL5.2.gko*
G04 Source File Name:     GCDUAL_QSB_FINAL5.2.rrb*
G04 Unique ID:            757d16c7-f99c-4077-9d8c-5aaf3e2abc93*
G04 Generated Date:       Friday, 30 March 2018 13:03:25*
G04*
G04 Created Using:        Robot Room Copper Connection v3.0.5875*
G04 Software Contact:     http://www.robotroom.com/CopperConnection/Support.aspx*
G04 License Number:       1880*
G04*
G04 Zero Suppression:     Leading*
G04 Number Precision:     2.4*
G04*
%FSLAX24Y24*%
%MOIN*%
%LNBoardEdge*%
%ADD10R,.006X.006*%
D10*
G01X-152Y5118D02*
X23554D01*
Y0D01*
X-152D01*
Y5118D01*
X8341Y2897D02*
X8237Y2880D01*
X8144Y2833D01*
X8070Y2759D01*
X8022Y2665D01*
X8006Y2562D01*
X8002Y1645D01*
X8006Y1656D01*
X8022Y1553D01*
X8070Y1460D01*
X8144Y1386D01*
X8237Y1338D01*
X8341Y1322D01*
X8444Y1338D01*
X8537Y1386D01*
X8611Y1460D01*
X8659Y1553D01*
X8675Y1656D01*
X8677Y1645D01*
Y2556D01*
X8659Y2665D01*
X8611Y2759D01*
X8537Y2833D01*
X8444Y2880D01*
X8341Y2897D01*
X5554Y3379D02*
X5571Y3276D01*
X5618Y3182D01*
X5692Y3108D01*
X5786Y3061D01*
X5889Y3044D01*
X6806Y3041D01*
X6794Y3044D01*
X6898Y3061D01*
X6991Y3108D01*
X7065Y3182D01*
X7113Y3276D01*
X7129Y3379D01*
X7113Y3483D01*
X7065Y3576D01*
X6991Y3650D01*
X6898Y3697D01*
X6794Y3714D01*
X6806Y3715D01*
X5895D01*
X5786Y3697D01*
X5692Y3650D01*
X5618Y3576D01*
X5571Y3483D01*
X5554Y3379D01*
X353Y2897D02*
X250Y2880D01*
X157Y2833D01*
X83Y2759D01*
X35Y2665D01*
X19Y2562D01*
X15Y1645D01*
X19Y1656D01*
X35Y1553D01*
X83Y1460D01*
X157Y1386D01*
X250Y1338D01*
X353Y1322D01*
X457Y1338D01*
X550Y1386D01*
X624Y1460D01*
X672Y1553D01*
X688Y1656D01*
X689Y1645D01*
Y2556D01*
X672Y2665D01*
X624Y2759D01*
X550Y2833D01*
X457Y2880D01*
X353Y2897D01*
X1524Y3379D02*
X1541Y3276D01*
X1588Y3182D01*
X1662Y3108D01*
X1756Y3061D01*
X1859Y3044D01*
X2776Y3041D01*
X2765Y3044D01*
X2868Y3061D01*
X2961Y3108D01*
X3035Y3182D01*
X3083Y3276D01*
X3099Y3379D01*
X3083Y3483D01*
X3035Y3576D01*
X2961Y3650D01*
X2868Y3697D01*
X2765Y3714D01*
X2776Y3715D01*
X1865D01*
X1756Y3697D01*
X1662Y3650D01*
X1588Y3576D01*
X1541Y3483D01*
X1524Y3379D01*
M02*
