G04*
G04 Format:               Gerber RS-274X*
G04 Export Settings:      OSH Park*
G04 Layer:                TopSilkscreen*
G04 This File Name:       HDMI_QSB_new.gto*
G04 Source File Name:     HDMI_QSB_new.rrb*
G04 Unique ID:            51c3dc83-d7bb-4e2f-9342-59aa85fb2bb0*
G04 Generated Date:       Thursday, 10 August 2017 09:01:58*
G04*
G04 Created Using:        Robot Room Copper Connection v3.0.5875*
G04 Software Contact:     http://www.robotroom.com/CopperConnection/Support.aspx*
G04 License Number:       1880*
G04*
G04 Zero Suppression:     Leading*
G04 Number Precision:     2.4*
G04*
%FSLAX24Y24*%
%MOIN*%
%LNTopSilkscreen*%
%ADD10C,.006*%
%ADD11C,.007*%
%ADD12C,.0906*%
%ADD13R,.006X.006*%
%ADD14R,.007X.007*%
%ADD15R,.0087X.0492*%
%ADD16R,.0118X.0571*%
%ADD17R,.063X.0157*%
%ADD18R,.065X.065*%
%ADD19R,.0827X.0906*%
%ADD20R,.0945X.0709*%
G36*
G01X4011Y2205D02*
X4026Y2203D01*
X4041Y2198D01*
X4054Y2190D01*
X4065Y2179D01*
X4074Y2167D01*
X4080Y2153D01*
X4084Y2139D01*
X4085Y2124D01*
X4083Y2109D01*
X4079Y2095D01*
X4072Y2082D01*
X4063Y2070D01*
X4051Y2060D01*
X4038Y2053D01*
X4023Y2048D01*
X4007Y2047D01*
X3991Y2050D01*
X3977Y2056D01*
X3964Y2065D01*
X3954Y2076D01*
X3946Y2089D01*
X3940Y2102D01*
X3938Y2117D01*
X3937Y2132D01*
X3939Y2146D01*
X3944Y2160D01*
X3952Y2173D01*
X3962Y2185D01*
X3974Y2194D01*
X3988Y2201D01*
X4003Y2204D01*
X4011Y2205D01*
G37*
G36*
X2633Y2205D02*
X2648Y2203D01*
X2663Y2198D01*
X2676Y2190D01*
X2687Y2179D01*
X2696Y2167D01*
X2702Y2153D01*
X2706Y2139D01*
X2707Y2124D01*
X2705Y2109D01*
X2701Y2095D01*
X2694Y2082D01*
X2685Y2070D01*
X2673Y2060D01*
X2660Y2053D01*
X2645Y2048D01*
X2629Y2047D01*
X2613Y2050D01*
X2599Y2056D01*
X2586Y2065D01*
X2576Y2076D01*
X2568Y2089D01*
X2562Y2102D01*
X2560Y2117D01*
X2559Y2132D01*
X2562Y2146D01*
X2566Y2160D01*
X2574Y2173D01*
X2584Y2185D01*
X2596Y2194D01*
X2610Y2201D01*
X2625Y2204D01*
X2633Y2205D01*
G37*
G36*
X5389Y2205D02*
X5404Y2203D01*
X5419Y2198D01*
X5432Y2190D01*
X5443Y2179D01*
X5452Y2167D01*
X5458Y2153D01*
X5462Y2139D01*
X5463Y2124D01*
X5461Y2109D01*
X5457Y2095D01*
X5450Y2082D01*
X5441Y2070D01*
X5429Y2060D01*
X5415Y2053D01*
X5400Y2048D01*
X5385Y2047D01*
X5369Y2050D01*
X5355Y2056D01*
X5342Y2065D01*
X5332Y2076D01*
X5324Y2089D01*
X5318Y2102D01*
X5315Y2117D01*
Y2132D01*
X5317Y2146D01*
X5322Y2160D01*
X5330Y2173D01*
X5340Y2185D01*
X5352Y2194D01*
X5366Y2201D01*
X5381Y2204D01*
X5389Y2205D01*
G37*
D10*
X1143Y4665D02*
X1162Y7034D01*
X1713Y4947D02*
X4941D01*
X5552Y4665D02*
X5532Y7034D01*
X4941Y4947D02*
Y4671D01*
X5532D01*
X1713Y4947D02*
Y4671D01*
X1162D01*
D11*
X2649Y919D02*
Y844D01*
X2648Y831D01*
X2645Y817D01*
X2641Y805D01*
X2634Y794D01*
X2627Y785D01*
X2618Y778D01*
X2608Y773D01*
X2593Y770D01*
X2583Y771D01*
X2573Y775D01*
X2564Y781D01*
X2556Y790D01*
X2549Y800D01*
X2543Y812D01*
X2540Y825D01*
X2538Y844D01*
X2537Y831D01*
X2534Y817D01*
X2529Y805D01*
X2523Y794D01*
X2515Y785D01*
X2506Y778D01*
X2497Y773D01*
X2482Y770D01*
X2472Y771D01*
X2462Y775D01*
X2452Y781D01*
X2444Y790D01*
X2437Y800D01*
X2432Y812D01*
X2428Y825D01*
X2426Y844D01*
Y919D01*
X2434Y574D02*
X2426D01*
X2649Y377D02*
Y303D01*
X2648Y289D01*
X2645Y276D01*
X2641Y263D01*
X2634Y252D01*
X2627Y243D01*
X2618Y236D01*
X2608Y231D01*
X2593Y228D01*
X2583Y230D01*
X2573Y233D01*
X2564Y240D01*
X2556Y248D01*
X2549Y258D01*
X2543Y270D01*
X2540Y283D01*
X2538Y303D01*
X2537Y289D01*
X2534Y276D01*
X2529Y263D01*
X2523Y252D01*
X2515Y243D01*
X2506Y236D01*
X2497Y231D01*
X2482Y228D01*
X2472Y230D01*
X2462Y233D01*
X2452Y240D01*
X2444Y248D01*
X2437Y258D01*
X2432Y270D01*
X2428Y283D01*
X2426Y303D01*
Y377D01*
X1258Y772D02*
Y735D01*
X1165D01*
Y809D01*
G74*
G02X1239Y884I74J0D01*
G01X1313D01*
G02X1388Y809I0J74D01*
G01Y735D01*
X1165Y613D02*
X1388D01*
X1165Y464D01*
X1388D01*
Y342D02*
Y268D01*
G02X1313Y193I74J0D01*
G01X1239D01*
G02X1165Y268I0J74D01*
G01Y342D01*
X1388D01*
X3876Y799D02*
Y650D01*
Y725D02*
X3653D01*
X3876Y528D02*
X3653Y380D01*
X3876D02*
X3653Y528D01*
D13*
X3824Y3132D02*
X5044D01*
Y1912D01*
X3824D01*
Y3132D01*
X2445D02*
X3665D01*
Y1912D01*
X2445D01*
Y3132D01*
X5200D02*
X6421D01*
Y1912D01*
X5200D01*
Y3132D01*
X6883Y6448D02*
X8182D01*
Y582D01*
X6883D01*
Y6448D01*
%LPC*%
D12*
X1222Y6539D03*
X5494D03*
D15*
X1907Y4817D03*
X2064D03*
X2222D03*
X2379D03*
X2537D03*
X2694D03*
X2852D03*
X3009D03*
X3167D03*
X3322D03*
X3482D03*
X3639D03*
X3797D03*
X3954D03*
X4112D03*
X4269D03*
X4427D03*
X4584D03*
X4742D03*
D16*
X4055Y1696D03*
X4252D03*
X4449D03*
X4646D03*
X4843D03*
X4055Y3349D03*
X4252D03*
X4449D03*
X4646D03*
X4843D03*
X2676Y1696D03*
X2873D03*
X3070D03*
X3267D03*
X3463D03*
X2676Y3349D03*
X2873D03*
X3070D03*
X3267D03*
X3463D03*
X5432Y1696D03*
X5628D03*
X5825D03*
X6022D03*
X6219D03*
X5432Y3349D03*
X5628D03*
X5825D03*
X6022D03*
X6219D03*
D17*
X8093Y1641D03*
Y2035D03*
Y2429D03*
Y2823D03*
Y3216D03*
Y3610D03*
Y4004D03*
Y4397D03*
Y4791D03*
Y5185D03*
X6995Y1838D03*
Y2232D03*
Y2626D03*
Y3019D03*
Y3413D03*
Y3807D03*
Y4200D03*
Y4594D03*
Y4988D03*
Y5382D03*
D18*
X669Y551D03*
X3173D03*
X1907D03*
D19*
X1015Y4984D03*
X5700D03*
D20*
X7544Y781D03*
Y6285D03*
%LPD*%
D13*
X1233Y3219D02*
X1423Y3189D01*
X1594Y3102D01*
X1729Y2966D01*
X1817Y2795D01*
X1847Y2605D01*
X1817Y2416D01*
X1729Y2245D01*
X1594Y2109D01*
X1423Y2022D01*
X1233Y1992D01*
X1044Y2022D01*
X873Y2109D01*
X737Y2245D01*
X650Y2416D01*
X620Y2605D01*
X650Y2795D01*
X737Y2966D01*
X873Y3102D01*
X1044Y3189D01*
X1233Y3219D01*
D14*
X0Y7087D02*
X8905D01*
Y0D01*
X0D01*
Y7087D01*
M02*
