M48
;
; Format:               Excellon NC Drill Ascii
; Export Settings:      OSH Park
; This File Name:       HDMI_QSB_new.xln
; Source File Name:     HDMI_QSB_new.rrb
; Unique ID:            51c3dc83-d7bb-4e2f-9342-59aa85fb2bb0
; Generated Date:       Thursday, 10 August 2017 09:01:58
;
; Created Using:        Robot Room Copper Connection v3.0.5875
; Software Contact:     http://www.robotroom.com/CopperConnection/Support.aspx
; License Number:       1880
;
; Zero Suppression:     None
; Number Precision:     2.4
;
FMAT,2
INCH
T01C.012
T02C.013
T03C.051
%
T01
X000394Y001378
Y001969
Y003110
Y003740
X001181Y003543
Y004134
X001969Y003543
X002362Y001693
X001850Y001378
X003268Y001224
X003740Y001220
X004134Y001024
X004528Y000709
X004921Y000945
X005246Y001224
X005102Y001691
X005394Y000709
X005906Y000748
X006496Y001024
X006482Y001838
Y002626
Y003413
Y003807
Y004594
Y004988
X006299Y005906
Y006654
X004528Y006693
Y006102
X003740
Y006693
X002953
Y006102
X002165
Y006693
X003764Y001691
X008465Y000787
Y000315
X008606Y001641
Y002035
Y002429
Y003216
Y004004
Y004397
Y005185
X008465Y005906
X008504Y006732
T02
X001890Y000551
X003189
T03
X001222Y006539
X005494
M30
