G04*
G04 Format:               Gerber RS-274X*
G04 Export Settings:      OSH Park*
G04 Layer:                TopSolderMask*
G04 This File Name:       HDMI_QSB_new.gts*
G04 Source File Name:     HDMI_QSB_new.rrb*
G04 Unique ID:            51c3dc83-d7bb-4e2f-9342-59aa85fb2bb0*
G04 Generated Date:       Thursday, 10 August 2017 09:01:58*
G04*
G04 Created Using:        Robot Room Copper Connection v3.0.5875*
G04 Software Contact:     http://www.robotroom.com/CopperConnection/Support.aspx*
G04 License Number:       1880*
G04*
G04 Zero Suppression:     Leading*
G04 Number Precision:     2.4*
G04*
G04 Polarity:             Negative. Dark is solderable. Clear space is coating.*
G04*
%FSLAX24Y24*%
%MOIN*%
%LNTopSolderMask*%
%ADD10C,.1006*%
%ADD11R,.006X.006*%
%ADD12R,.007X.007*%
%ADD13R,.0187X.0592*%
%ADD14R,.0218X.0671*%
%ADD15R,.073X.0257*%
%ADD16R,.075X.075*%
%ADD17R,.0927X.1006*%
%ADD18R,.1045X.0809*%
D10*
G01X1222Y6539D03*
X5494D03*
D13*
X1907Y4817D03*
X2064D03*
X2222D03*
X2379D03*
X2537D03*
X2694D03*
X2852D03*
X3009D03*
X3167D03*
X3322D03*
X3482D03*
X3639D03*
X3797D03*
X3954D03*
X4112D03*
X4269D03*
X4427D03*
X4584D03*
X4742D03*
D14*
X4055Y1696D03*
X4252D03*
X4449D03*
X4646D03*
X4843D03*
X4055Y3349D03*
X4252D03*
X4449D03*
X4646D03*
X4843D03*
X2676Y1696D03*
X2873D03*
X3070D03*
X3267D03*
X3463D03*
X2676Y3349D03*
X2873D03*
X3070D03*
X3267D03*
X3463D03*
X5432Y1696D03*
X5628D03*
X5825D03*
X6022D03*
X6219D03*
X5432Y3349D03*
X5628D03*
X5825D03*
X6022D03*
X6219D03*
D15*
X8093Y1641D03*
Y2035D03*
Y2429D03*
Y2823D03*
Y3216D03*
Y3610D03*
Y4004D03*
Y4397D03*
Y4791D03*
Y5185D03*
X6995Y1838D03*
Y2232D03*
Y2626D03*
Y3019D03*
Y3413D03*
Y3807D03*
Y4200D03*
Y4594D03*
Y4988D03*
Y5382D03*
D16*
X669Y551D03*
X3173D03*
X1907D03*
D17*
X1015Y4984D03*
X5700D03*
D18*
X7544Y781D03*
Y6285D03*
M02*
