G04*
G04 Format:               Gerber RS-274X*
G04 Export Settings:      OSH Park*
G04 Layer:                TopCopper*
G04 This File Name:       HDMI_QSB_new.gtl*
G04 Source File Name:     HDMI_QSB_new.rrb*
G04 Unique ID:            51c3dc83-d7bb-4e2f-9342-59aa85fb2bb0*
G04 Generated Date:       Thursday, 10 August 2017 09:01:58*
G04*
G04 Created Using:        Robot Room Copper Connection v3.0.5875*
G04 Software Contact:     http://www.robotroom.com/CopperConnection/Support.aspx*
G04 License Number:       1880*
G04*
G04 Zero Suppression:     Leading*
G04 Number Precision:     2.4*
G04*
%FSLAX24Y24*%
%MOIN*%
%LNTopCopper*%
%ADD10C,.006*%
%ADD11C,.007*%
%ADD12C,.008*%
%ADD13C,.0236*%
%ADD14C,.0307*%
%ADD15C,.036*%
%ADD16C,.037*%
%ADD17C,.038*%
%ADD18C,.0536*%
%ADD19C,.0906*%
%ADD20R,.006X.006*%
%ADD21R,.007X.007*%
%ADD22R,.0118X.0118*%
%ADD23R,.0087X.0492*%
%ADD24R,.0118X.0571*%
%ADD25R,.0387X.0792*%
%ADD26R,.0418X.0871*%
%ADD27R,.063X.0157*%
%ADD28R,.065X.065*%
%ADD29R,.0827X.0906*%
%ADD30R,.0886X.0886*%
%ADD31R,.093X.0457*%
%ADD32R,.0945X.0709*%
%AMTHERMAL*7,0,0,$1,$1-$2-$2,$2,0*%
%ADD33THERMAL,.1142X.0118*%
G36*
G01X0Y7087D02*
X8905D01*
Y0D01*
X0D01*
Y7087D01*
G37*
%LPC*%
G36*
X-118Y1024D02*
X3937D01*
Y-99D01*
X-118D01*
Y1024D01*
G37*
D33*
X1222Y6539D03*
X5494D03*
D15*
X6995Y2232D02*
X7544D01*
X8606Y1641D02*
X8093D01*
X8606Y2035D02*
X8093D01*
X8606Y2429D02*
X8093D01*
X8606Y3216D02*
X8093D01*
X6482Y1838D02*
X6995D01*
X6482Y2626D02*
X6995D01*
X6482Y3413D02*
X6995D01*
X6482Y4988D02*
X6995D01*
X6482Y4594D02*
X6995D01*
X8606Y5185D02*
X8093D01*
X8606Y4397D02*
X8093D01*
X8606Y4004D02*
X8093D01*
X2362Y1693D02*
X2676Y1696D01*
X1850Y1378D02*
X2126Y1220D01*
X3268Y1224D02*
X3267Y1696D01*
X3764Y1691D02*
X3463Y1696D01*
X5102Y1691D02*
X4843Y1696D01*
X4921Y945D02*
X4646Y1339D01*
X4134Y1024D02*
X4252Y1299D01*
X3740Y1220D02*
X3976Y1339D01*
X4646D02*
Y1696D01*
X4252Y1299D02*
Y1696D01*
X2756Y1220D02*
X2874Y1378D01*
X2873Y1696D01*
X3976Y1339D02*
X4055Y1696D01*
X2126Y1220D02*
X2756D01*
D16*
X2222Y4817D02*
Y4201D01*
X2874Y3780D02*
X2873Y3349D01*
X2537Y4817D02*
Y4213D01*
X3268Y3740D02*
X3267Y3349D01*
X2694Y4817D02*
Y4331D01*
X3465Y3819D02*
X3463Y3349D01*
X3009Y4817D02*
Y4370D01*
X2222Y4201D02*
X2874Y3780D01*
X2537Y4213D02*
X3268Y3740D01*
X2694Y4331D02*
X3465Y3819D01*
X3009Y4370D02*
X3780Y3858D01*
X3167Y4464D02*
Y4817D01*
X4269Y4528D02*
Y4817D01*
X4111Y4449D02*
X4112Y4817D01*
X3639Y4528D02*
Y4817D01*
X2676Y3349D02*
X2677Y3701D01*
X4843Y3349D02*
Y3726D01*
X4646Y3349D02*
Y3681D01*
X4252Y3349D02*
Y3740D01*
X5432Y3349D02*
X5433Y3858D01*
X3780D02*
X3778Y3532D01*
X4055Y3349D01*
X3481Y4449D02*
X3482Y4817D01*
X6220Y3898D02*
X5472Y4409D01*
X6024Y3780D02*
X5354Y4252D01*
X5433Y3858D02*
X5118Y4094D01*
X4843Y3726D02*
X3639Y4528D01*
X4646Y3681D02*
X3481Y4449D01*
X4252Y3740D02*
X3167Y4464D01*
X2064Y4094D02*
Y4817D01*
X2677Y3701D02*
X2064Y4094D01*
X6482Y3807D02*
X6995D01*
X4764Y4409D02*
X4584Y4528D01*
X5472Y4409D02*
X4764D01*
X4685Y4252D02*
X4269Y4528D01*
X5354Y4252D02*
X4685D01*
X4633Y4094D02*
X4111Y4449D01*
X5118Y4094D02*
X4633D01*
X6220Y3898D02*
X6219Y3349D01*
Y1696D01*
X6220Y1339D01*
X6024Y3780D02*
X6022Y3349D01*
Y1696D01*
X6220Y1339D02*
X6496Y1024D01*
X5906Y748D02*
X6024Y984D01*
X6022Y1696D01*
D17*
X4584Y4528D02*
Y4817D01*
X2873Y3349D02*
Y1696D01*
X3267Y3349D02*
Y1696D01*
X3463Y3349D02*
Y1696D01*
X4252D02*
Y3349D01*
X4055D02*
Y1696D01*
X5246Y1224D02*
X5433Y1417D01*
X5432Y1696D02*
Y3349D01*
X2676Y1696D02*
Y3349D01*
X4843Y1696D02*
Y3349D01*
X4646Y1696D02*
Y3349D01*
X5433Y1417D02*
X5432Y1696D01*
D18*
X8606Y5185D03*
X6482Y4988D03*
Y4594D03*
Y3807D03*
Y3413D03*
X8606Y4397D03*
Y4004D03*
Y3216D03*
Y1641D03*
X6482Y1838D03*
X8606Y2035D03*
Y2429D03*
X6482Y2626D03*
X2362Y1693D03*
X1850Y1378D03*
X3764Y1691D03*
X3268Y1224D03*
X3740Y1220D03*
X4134Y1024D03*
X5102Y1691D03*
X4921Y945D03*
X5246Y1224D03*
X5906Y748D03*
X6496Y1024D03*
D25*
X1907Y4817D03*
X2064D03*
X2222D03*
X2379D03*
X2537D03*
X2694D03*
X2852D03*
X3009D03*
X3167D03*
X3322D03*
X3482D03*
X3639D03*
X3797D03*
X3954D03*
X4112D03*
X4269D03*
X4427D03*
X4584D03*
X4742D03*
D26*
X4055Y1696D03*
X4252D03*
X4449D03*
X4646D03*
X4843D03*
X4055Y3349D03*
X4252D03*
X4449D03*
X4646D03*
X4843D03*
X2676Y1696D03*
X2873D03*
X3070D03*
X3267D03*
X3463D03*
X2676Y3349D03*
X2873D03*
X3070D03*
X3267D03*
X3463D03*
X5432Y1696D03*
X5628D03*
X5825D03*
X6022D03*
X6219D03*
X5432Y3349D03*
X5628D03*
X5825D03*
X6022D03*
X6219D03*
D31*
X8093Y1641D03*
Y2035D03*
Y2429D03*
Y2823D03*
Y3216D03*
Y3610D03*
Y4004D03*
Y4397D03*
Y4791D03*
Y5185D03*
X6995Y1838D03*
Y2232D03*
Y2626D03*
Y3019D03*
Y3413D03*
Y3807D03*
Y4200D03*
Y4594D03*
Y4988D03*
Y5382D03*
D30*
X669Y551D03*
X3173D03*
X1907D03*
D22*
X543Y5102D02*
Y5496D01*
X897D01*
X1133D02*
X1488D01*
Y5102D01*
Y4866D02*
Y4472D01*
X1133D01*
X897D02*
X543D01*
Y4866D01*
X5228Y5102D02*
Y5496D01*
X5582D01*
X5818D02*
X6173D01*
Y5102D01*
Y4866D02*
Y4472D01*
X5818D01*
X5582D02*
X5228D01*
Y4866D01*
X7012Y899D02*
Y1194D01*
X7426D01*
X7662D02*
X8075D01*
Y899D01*
Y663D02*
Y368D01*
X7662D01*
X7426D02*
X7012D01*
Y663D01*
Y6404D02*
Y6699D01*
X7426D01*
X7662D02*
X8075D01*
Y6404D01*
Y6167D02*
Y5872D01*
X7662D01*
X7426D02*
X7012D01*
Y6167D01*
%LPD*%
D10*
X7544Y5382D02*
X6995D01*
X6353D01*
X7544Y4791D02*
X8093D01*
X6995Y4200D02*
X7544D01*
X6995D02*
X6353D01*
X7544Y3610D02*
X8093D01*
X8528D01*
X8093Y4791D02*
X8620D01*
X7539Y3019D02*
X6995D01*
Y2232D02*
X7544D01*
X6520D01*
X8606Y1641D02*
X8093D01*
X8606Y2035D02*
X8093D01*
X8606Y2429D02*
X8093D01*
X8606Y3216D02*
X8093D01*
X6482Y1838D02*
X6995D01*
X6482Y2626D02*
X6995D01*
X6482Y3413D02*
X6995D01*
X6482Y4988D02*
X6995D01*
X6482Y4594D02*
X6995D01*
X8606Y5185D02*
X8093D01*
X8606Y4397D02*
X8093D01*
X8606Y4004D02*
X8093D01*
X2362Y1693D02*
X2676Y1696D01*
X1850Y1378D02*
X2126Y1220D01*
X3268Y1224D02*
X3267Y1696D01*
X3764Y1691D02*
X3463Y1696D01*
X5102Y1691D02*
X4843Y1696D01*
X4921Y945D02*
X4646Y1339D01*
X4134Y1024D02*
X4252Y1299D01*
X3740Y1220D02*
X3976Y1339D01*
X4646D02*
Y1696D01*
X4252Y1299D02*
Y1696D01*
X2756Y1220D02*
X2874Y1378D01*
X2873Y1696D01*
X3976Y1339D02*
X4055Y1696D01*
X6995Y3019D02*
X6530D01*
X2126Y1220D02*
X2756D01*
D11*
X2222Y4817D02*
Y4201D01*
X2874Y3780D02*
X2873Y3349D01*
X2537Y4817D02*
Y4213D01*
X3268Y3740D02*
X3267Y3349D01*
X2694Y4817D02*
Y4331D01*
X3465Y3819D02*
X3463Y3349D01*
X3009Y4817D02*
Y4370D01*
X2222Y4201D02*
X2874Y3780D01*
X2537Y4213D02*
X3268Y3740D01*
X2694Y4331D02*
X3465Y3819D01*
X3009Y4370D02*
X3780Y3858D01*
X3167Y4464D02*
Y4817D01*
X4269Y4528D02*
Y4817D01*
X4111Y4449D02*
X4112Y4817D01*
X3639Y4528D02*
Y4817D01*
X2676Y3349D02*
X2677Y3701D01*
X4843Y3349D02*
Y3726D01*
X4646Y3349D02*
Y3681D01*
X4252Y3349D02*
Y3740D01*
X5432Y3349D02*
X5433Y3858D01*
X3780D02*
X3778Y3532D01*
X4055Y3349D01*
X3481Y4449D02*
X3482Y4817D01*
X6220Y3898D02*
X5472Y4409D01*
X6024Y3780D02*
X5354Y4252D01*
X5433Y3858D02*
X5118Y4094D01*
X4843Y3726D02*
X3639Y4528D01*
X4646Y3681D02*
X3481Y4449D01*
X4252Y3740D02*
X3167Y4464D01*
X2064Y4094D02*
Y4817D01*
X2677Y3701D02*
X2064Y4094D01*
X6482Y3807D02*
X6995D01*
X4764Y4409D02*
X4584Y4528D01*
X5472Y4409D02*
X4764D01*
X4685Y4252D02*
X4269Y4528D01*
X5354Y4252D02*
X4685D01*
X4633Y4094D02*
X4111Y4449D01*
X5118Y4094D02*
X4633D01*
X6220Y3898D02*
X6219Y3349D01*
Y1696D01*
X6220Y1339D01*
X6024Y3780D02*
X6022Y3349D01*
Y1696D01*
X5825D02*
X5827Y1299D01*
X5591Y1024D01*
X4449Y1696D02*
Y1181D01*
X4567Y787D01*
X3070Y1696D02*
X3071Y1378D01*
X2835Y1063D01*
X6220Y1339D02*
X6496Y1024D01*
X5906Y748D02*
X6024Y984D01*
X6022Y1696D01*
X7544Y6285D02*
Y781D01*
X669Y551D02*
X236Y1378D01*
X2835Y1063D02*
X945D01*
X669Y551D01*
X945Y1063D02*
X1142Y1378D01*
D12*
X4584Y4528D02*
Y4817D01*
X1907D02*
Y5349D01*
X2379Y4817D02*
Y5356D01*
X2852Y4817D02*
Y5356D01*
X3322Y4817D02*
X3324Y5370D01*
X3797Y4817D02*
Y5366D01*
X2873Y3349D02*
Y1696D01*
X3267Y3349D02*
Y1696D01*
X3463Y3349D02*
Y1696D01*
X4252D02*
Y3349D01*
X4055D02*
Y1696D01*
X5246Y1224D02*
X5433Y1417D01*
X5432Y1696D02*
Y3349D01*
X2676Y1696D02*
Y3349D01*
X4843Y1696D02*
Y3349D01*
X4646Y1696D02*
Y3349D01*
X5433Y1417D02*
X5432Y1696D01*
D13*
X8606Y5185D03*
X2165Y6693D03*
X6482Y4988D03*
Y4594D03*
Y3807D03*
Y3413D03*
X8606Y4397D03*
Y4004D03*
Y3216D03*
Y1641D03*
X6482Y1838D03*
X8606Y2035D03*
Y2429D03*
X6482Y2626D03*
X2362Y1693D03*
X1850Y1378D03*
X3764Y1691D03*
X3268Y1224D03*
X3740Y1220D03*
X4134Y1024D03*
X5102Y1691D03*
X4921Y945D03*
X5246Y1224D03*
X5906Y748D03*
X6496Y1024D03*
X2953Y6693D03*
X3740D03*
X4528D03*
X2165Y6102D03*
X2953D03*
X3740D03*
X4528D03*
X394Y3740D03*
X1181Y4134D03*
X394Y3110D03*
X1181Y3543D03*
X394Y1969D03*
Y1378D03*
X1969Y3543D03*
X6299Y6654D03*
X8504Y6732D03*
X6299Y5906D03*
X8465D03*
X5394Y709D03*
X4528D03*
X8465Y787D03*
Y315D03*
D14*
X1890Y551D03*
X3189D03*
D19*
X1222Y6539D03*
X5494D03*
D23*
X1907Y4817D03*
X2064D03*
X2222D03*
X2379D03*
X2537D03*
X2694D03*
X2852D03*
X3009D03*
X3167D03*
X3322D03*
X3482D03*
X3639D03*
X3797D03*
X3954D03*
X4112D03*
X4269D03*
X4427D03*
X4584D03*
X4742D03*
D24*
X4055Y1696D03*
X4252D03*
X4449D03*
X4646D03*
X4843D03*
X4055Y3349D03*
X4252D03*
X4449D03*
X4646D03*
X4843D03*
X2676Y1696D03*
X2873D03*
X3070D03*
X3267D03*
X3463D03*
X2676Y3349D03*
X2873D03*
X3070D03*
X3267D03*
X3463D03*
X5432Y1696D03*
X5628D03*
X5825D03*
X6022D03*
X6219D03*
X5432Y3349D03*
X5628D03*
X5825D03*
X6022D03*
X6219D03*
D27*
X8093Y1641D03*
Y2035D03*
Y2429D03*
Y2823D03*
Y3216D03*
Y3610D03*
Y4004D03*
Y4397D03*
Y4791D03*
Y5185D03*
X6995Y1838D03*
Y2232D03*
Y2626D03*
Y3019D03*
Y3413D03*
Y3807D03*
Y4200D03*
Y4594D03*
Y4988D03*
Y5382D03*
D28*
X669Y551D03*
X3173D03*
X1907D03*
D29*
X1015Y4984D03*
X5700D03*
D32*
X7544Y781D03*
Y6285D03*
M02*
