G04*
G04 Format:               Gerber RS-274X*
G04 Export Settings:      OSH Park*
G04 Layer:                TopSilkscreen*
G04 This File Name:       GC_DUAL_FINAL_testffc_ADV.gto*
G04 Source File Name:     GC_DUAL_FINAL_testffc_ADV.rrb*
G04 Unique ID:            4e2d7a6f-c949-47f3-acdd-e5fe3011063f*
G04 Generated Date:       Friday, 30 March 2018 12:58:07*
G04*
G04 Created Using:        Robot Room Copper Connection v3.0.5875*
G04 Software Contact:     http://www.robotroom.com/CopperConnection/Support.aspx*
G04 License Number:       1880*
G04*
G04 Zero Suppression:     Leading*
G04 Number Precision:     2.4*
G04*
%FSLAX24Y24*%
%MOIN*%
%LNTopSilkscreen*%
%ADD10C,.0032*%
%ADD11C,.0056*%
%ADD12C,.006*%
%ADD13C,.007*%
%ADD14C,.009*%
%ADD15C,.0571*%
%ADD16C,.1398*%
%ADD17R,.006X.006*%
%ADD18R,.007X.007*%
%ADD19R,.0453X.0453*%
%ADD20R,.0551X.0551*%
%ADD21R,.011X.0591*%
%ADD22R,.0118X.0551*%
%ADD23R,.0236X.061*%
%ADD24R,.0354X.0276*%
%ADD25R,.0354X.0354*%
%ADD26R,.0394X.0197*%
%ADD27R,.0492X.0118*%
%ADD28R,.0531X.061*%
%ADD29R,.0551X.0118*%
%ADD30R,.0591X.011*%
%ADD31R,.0603X.0787*%
%ADD32R,.063X.0157*%
%ADD33R,.0787X.0603*%
%ADD34R,.0945X.0709*%
%ADD35R,.1181X.0787*%
G36*
G01X11637Y7315D02*
X11594Y7321D01*
X11556Y7341D01*
X11525Y7371D01*
X11506Y7410D01*
X11499Y7452D01*
X11506Y7495D01*
X11525Y7533D01*
X11556Y7564D01*
X11594Y7584D01*
X11637Y7590D01*
X11679Y7584D01*
X11718Y7564D01*
X11748Y7533D01*
X11768Y7495D01*
X11774Y7452D01*
X11768Y7410D01*
X11748Y7371D01*
X11718Y7341D01*
X11679Y7321D01*
X11637Y7315D01*
G37*
G36*
G75*
X7931Y10088D02*
G02I0J-138D01*
G37*
G36*
G01X4398Y5361D02*
G02I123J0D01*
G37*
G36*
G01X2933Y2029D02*
G02I0J-79D01*
G37*
D10*
G01X12077Y1259D02*
X12081D01*
X12012Y1350D02*
X11978Y1385D01*
X12081D01*
Y1350D02*
Y1419D01*
X12029Y1545D02*
X12046D01*
G74*
G02X12081Y1510I0J34D01*
X12046Y1476I34J0D01*
G01X12029D01*
X12124D01*
X12029Y1545D02*
X12089D01*
X4548Y1565D02*
X4582D01*
X4591Y1564D01*
X4599Y1562D01*
X4606Y1558D01*
X4612Y1552D01*
X4615Y1546D01*
X4616Y1539D01*
X4615Y1533D01*
X4612Y1526D01*
X4606Y1521D01*
X4599Y1517D01*
X4591Y1514D01*
X4582D01*
X4591Y1513D01*
X4599Y1510D01*
X4606Y1506D01*
X4612Y1501D01*
X4615Y1494D01*
X4616Y1488D01*
X4615Y1481D01*
X4612Y1475D01*
X4606Y1469D01*
X4599Y1465D01*
X4591Y1463D01*
X4582Y1462D01*
X4548D01*
X4673Y1565D02*
X4707D01*
X4716Y1564D01*
X4725Y1562D01*
X4732Y1558D01*
X4737Y1552D01*
X4741Y1546D01*
X4742Y1539D01*
X4741Y1533D01*
X4737Y1526D01*
X4732Y1521D01*
X4725Y1517D01*
X4716Y1514D01*
X4707D01*
X4716Y1513D01*
X4725Y1510D01*
X4732Y1506D01*
X4737Y1501D01*
X4741Y1494D01*
X4742Y1488D01*
X4741Y1481D01*
X4737Y1475D01*
X4732Y1469D01*
X4725Y1465D01*
X4716Y1463D01*
X4707Y1462D01*
X4673D01*
X4798Y1531D02*
G02X4833Y1565I34J0D01*
X4867Y1531I0J34D01*
G01Y1496D01*
G02X4833Y1462I34J0D01*
X4798Y1496I0J34D01*
G01Y1531D01*
X5126Y2291D02*
Y2188D01*
Y2240D02*
X5057D01*
Y2291D01*
X5183D02*
Y2188D01*
X5252D02*
X5209Y2240D01*
X5252Y2291D01*
X5308D02*
X5377D01*
X5343Y2188D01*
X2031Y2337D02*
X2035D01*
X1966Y2428D02*
X1931Y2462D01*
X2035D01*
Y2428D02*
Y2496D01*
X1983Y2622D02*
X2000D01*
G02X2035Y2588I0J34D01*
X2000Y2553I34J0D01*
G01X1983D01*
X13295Y1433D02*
X13299D01*
X13230Y1524D02*
X13195Y1558D01*
X13299D01*
Y1524D02*
Y1593D01*
X13247Y1718D02*
X13264D01*
G02X13299Y1684I0J34D01*
X13264Y1649I34J0D01*
G01X13247D01*
X13342D01*
X13247Y1718D02*
X13307D01*
X1949Y2892D02*
X1915Y2927D01*
X2018D01*
Y2892D02*
Y2961D01*
X1949Y3018D02*
G02X1915Y3052I0J34D01*
X1949Y3086I34J0D01*
G01X1984D01*
G02X2018Y3052I0J34D01*
X1984Y3018I34J0D01*
G01X1949D01*
X1967Y3212D02*
X1984D01*
G02X2018Y3178I0J34D01*
X1984Y3143I34J0D01*
G01X1967D01*
X4026Y2042D02*
Y2039D01*
X4117Y2108D02*
X4152Y2142D01*
Y2039D01*
X4117D02*
X4186D01*
X4312Y2090D02*
Y2073D01*
G02X4277Y2039I34J0D01*
X4243Y2073I0J34D01*
G01Y2090D01*
Y1996D01*
X4312Y2090D02*
Y2030D01*
X5028Y4551D02*
Y4548D01*
X5119Y4617D02*
X5153Y4651D01*
Y4548D01*
X5119D02*
X5188D01*
X5313Y4600D02*
Y4582D01*
G02X5279Y4548I34J0D01*
X5244Y4582I0J34D01*
G01Y4600D01*
Y4505D01*
X5313Y4600D02*
Y4539D01*
X12222Y7917D02*
Y7814D01*
Y7866D02*
X12153D01*
Y7917D01*
X12278D02*
Y7814D01*
X12347D02*
X12304Y7866D01*
X12347Y7917D01*
X12404D02*
X12473D01*
X12438Y7814D01*
X11611Y8486D02*
Y8382D01*
Y8434D02*
X11542D01*
Y8486D01*
X11736Y8434D02*
Y8417D01*
G02X11702Y8382I34J0D01*
X11667Y8417I0J34D01*
G01Y8434D01*
Y8339D01*
X11736Y8434D02*
Y8374D01*
X11793Y8486D02*
X11862D01*
X11827Y8382D01*
X13305Y6912D02*
Y6909D01*
X13396Y6978D02*
X13431Y7012D01*
Y6909D01*
X13396D02*
X13465D01*
X13591Y6961D02*
Y6943D01*
G02X13556Y6909I34J0D01*
X13522Y6943I0J34D01*
G01Y6961D01*
Y6866D01*
X13591Y6961D02*
Y6900D01*
X5470Y7778D02*
Y7775D01*
X5562Y7844D02*
X5596Y7878D01*
Y7775D01*
X5562D02*
X5630D01*
X5756Y7827D02*
Y7809D01*
G02X5721Y7775I34J0D01*
X5687Y7809I0J34D01*
G01Y7827D01*
Y7732D01*
X5756Y7827D02*
Y7766D01*
X6266Y8963D02*
X6301Y8998D01*
Y8894D01*
X6266D02*
X6335D01*
X6392Y8963D02*
G02X6426Y8998I34J0D01*
X6461Y8963I0J34D01*
G01Y8929D01*
G02X6426Y8894I34J0D01*
X6392Y8929I0J34D01*
G01Y8963D01*
X6586Y8946D02*
Y8929D01*
G02X6552Y8894I34J0D01*
X6517Y8929I0J34D01*
G01Y8946D01*
Y8851D01*
X6586Y8946D02*
Y8886D01*
X10975Y13214D02*
X10971D01*
X11040Y13123D02*
X11075Y13089D01*
X10971D01*
Y13123D02*
Y13055D01*
X11023Y12929D02*
X11006D01*
G02X10971Y12964I0J34D01*
X11006Y12998I34J0D01*
G01X11023D01*
X10928D01*
X11023Y12929D02*
X10963D01*
X5474Y12717D02*
Y12713D01*
X5565Y12782D02*
X5600Y12817D01*
Y12713D01*
X5565D02*
X5634D01*
X5760Y12765D02*
Y12748D01*
G02X5725Y12713I34J0D01*
X5691Y12748I0J34D01*
G01Y12765D01*
Y12670D01*
X5760Y12765D02*
Y12705D01*
X2974Y12097D02*
X3043D01*
X3008Y11994D01*
X3134Y12045D02*
X3143D01*
X3151Y12042D01*
X3158Y12038D01*
X3164Y12032D01*
X3167Y12026D01*
X3168Y12020D01*
X3167Y12013D01*
X3164Y12007D01*
X3158Y12001D01*
X3151Y11997D01*
X3143Y11995D01*
X3134Y11994D01*
X3099D01*
X3134Y12045D02*
X3099D01*
Y12063D01*
Y12097D01*
X3168D01*
X3860D02*
X3928D01*
X3894Y11994D01*
X4020Y12045D02*
X4028D01*
X4037Y12042D01*
X4044Y12038D01*
X4049Y12032D01*
X4053Y12026D01*
X4054Y12020D01*
X4053Y12013D01*
X4049Y12007D01*
X4044Y12001D01*
X4037Y11997D01*
X4028Y11995D01*
X4020Y11994D01*
X3985D01*
X4020Y12045D02*
X3985D01*
Y12063D01*
Y12097D01*
X4054D01*
X4745Y12008D02*
X4814D01*
X4780Y11905D01*
X4905Y11956D02*
X4914D01*
X4923Y11953D01*
X4930Y11949D01*
X4935Y11944D01*
X4939Y11937D01*
X4940Y11931D01*
X4939Y11924D01*
X4935Y11918D01*
X4930Y11912D01*
X4923Y11908D01*
X4914Y11906D01*
X4905Y11905D01*
X4871D01*
X4905Y11956D02*
X4871D01*
Y11974D01*
Y12008D01*
X4940D01*
X2222Y12225D02*
X2187Y12259D01*
X2291D01*
Y12225D02*
Y12294D01*
X2222Y12350D02*
G02X2187Y12385I0J34D01*
X2222Y12419I34J0D01*
G01X2256D01*
G02X2291Y12385I0J34D01*
X2256Y12350I34J0D01*
G01X2222D01*
Y12476D02*
G02X2187Y12510I0J34D01*
X2222Y12545I34J0D01*
G01X2256D01*
G02X2291Y12510I0J34D01*
X2256Y12476I34J0D01*
G01X2222D01*
X14527Y8584D02*
X14562Y8550D01*
X14458D01*
Y8584D02*
Y8516D01*
X14527Y8459D02*
G02X14562Y8424I0J34D01*
X14527Y8390I34J0D01*
G01X14493D01*
G02X14458Y8424I0J34D01*
X14493Y8459I34J0D01*
G01X14527D01*
X14562Y8333D02*
X14458D01*
Y8265D02*
X14510Y8308D01*
X14562Y8265D01*
X14532Y7981D02*
X14567Y7947D01*
X14463D01*
Y7981D02*
Y7912D01*
X14515Y7821D02*
X14514Y7812D01*
X14512Y7804D01*
X14508Y7797D01*
X14502Y7791D01*
X14496Y7788D01*
X14489Y7787D01*
X14483Y7788D01*
X14476Y7791D01*
X14471Y7797D01*
X14467Y7804D01*
X14464Y7812D01*
X14463Y7821D01*
X14464Y7830D01*
X14467Y7838D01*
X14471Y7845D01*
X14476Y7851D01*
X14483Y7854D01*
X14489Y7856D01*
X14496Y7854D01*
X14502Y7851D01*
X14508Y7845D01*
X14512Y7838D01*
X14514Y7830D01*
X14515Y7821D01*
X14567D02*
X14566Y7812D01*
X14563Y7804D01*
X14559Y7797D01*
X14554Y7791D01*
X14548Y7788D01*
X14541Y7787D01*
X14534Y7788D01*
X14528Y7791D01*
X14523Y7797D01*
X14519Y7804D01*
X14516Y7812D01*
X14515Y7821D01*
X14516Y7830D01*
X14519Y7838D01*
X14523Y7845D01*
X14528Y7851D01*
X14534Y7854D01*
X14541Y7856D01*
X14548Y7854D01*
X14554Y7851D01*
X14559Y7845D01*
X14563Y7838D01*
X14566Y7830D01*
X14567Y7821D01*
X14532Y7730D02*
G02X14567Y7696I0J34D01*
X14532Y7661I34J0D01*
G01X14498D01*
G02X14463Y7696I0J34D01*
X14498Y7730I34J0D01*
G01X14532D01*
X14527Y9145D02*
X14562Y9111D01*
X14458D01*
Y9145D02*
Y9076D01*
X14527Y9020D02*
G02X14562Y8985I0J34D01*
X14527Y8951I34J0D01*
G01X14493D01*
G02X14458Y8985I0J34D01*
X14493Y9020I34J0D01*
G01X14527D01*
X14562Y8894D02*
X14458D01*
Y8825D02*
X14510Y8868D01*
X14562Y8825D01*
X13393Y8662D02*
Y8659D01*
X13484Y8728D02*
X13518Y8762D01*
Y8659D01*
X13484D02*
X13553D01*
X13678Y8710D02*
Y8693D01*
G02X13644Y8659I34J0D01*
X13609Y8693I0J34D01*
G01Y8710D01*
Y8616D01*
X13678Y8710D02*
Y8650D01*
X2621Y8732D02*
Y8729D01*
X2712Y8798D02*
X2746Y8832D01*
Y8729D01*
X2712D02*
X2781D01*
X2906Y8780D02*
Y8763D01*
G02X2872Y8729I34J0D01*
X2837Y8763I0J34D01*
G01Y8780D01*
Y8686D01*
X2906Y8780D02*
Y8720D01*
X5989Y10087D02*
Y10084D01*
X6080Y10153D02*
X6115Y10187D01*
Y10084D01*
X6080D02*
X6149D01*
X6275Y10135D02*
Y10118D01*
G02X6240Y10084I34J0D01*
X6206Y10118I0J34D01*
G01Y10135D01*
Y10041D01*
X6275Y10135D02*
Y10075D01*
X11644Y12645D02*
X11640D01*
X11709Y12554D02*
G02X11744Y12520I0J34D01*
X11709Y12485I34J0D01*
G01X11675D01*
G02X11640Y12520I0J34D01*
X11675Y12554I34J0D01*
G01X11709D01*
Y12429D02*
X11744Y12394D01*
X11640D01*
Y12429D02*
Y12360D01*
X11692Y12234D02*
X11675D01*
G02X11640Y12269I0J34D01*
X11675Y12303I34J0D01*
G01X11692D01*
X11597D01*
X11692Y12234D02*
X11632D01*
X13983Y897D02*
X14086D01*
X14034D02*
Y829D01*
X13983D01*
X14017Y954D02*
G02X13983Y989I0J34D01*
X14017Y1023I34J0D01*
G01X14052D01*
G02X14086Y989I0J34D01*
X14052Y954I34J0D01*
G01X14017D01*
X13955Y216D02*
X14059D01*
Y285D01*
Y411D02*
Y342D01*
X13955D01*
Y411D01*
X14007Y342D02*
Y393D01*
X13955Y467D02*
Y502D01*
G02X13990Y536I34J0D01*
G01X14024D01*
G02X14059Y502I0J34D01*
G01Y467D01*
X13955D01*
X1749Y9725D02*
X1714Y9760D01*
X1818D01*
Y9725D02*
Y9794D01*
X1714Y9851D02*
X1818D01*
Y9920D02*
X1766Y9876D01*
X1714Y9920D01*
X5050Y5822D02*
X5085Y5856D01*
Y5753D01*
X5050D02*
X5119D01*
X5176Y5822D02*
G02X5210Y5856I34J0D01*
X5245Y5822I0J34D01*
G01Y5787D01*
G02X5210Y5753I34J0D01*
X5176Y5787I0J34D01*
G01Y5822D01*
X5301Y5856D02*
Y5753D01*
X5370D02*
X5327Y5805D01*
X5370Y5856D01*
X4282Y6837D02*
X4278D01*
X4347Y6745D02*
X4382Y6711D01*
X4278D01*
Y6745D02*
Y6677D01*
X4330Y6551D02*
X4313D01*
G02X4278Y6586I0J34D01*
X4313Y6620I34J0D01*
G01X4330D01*
X4235D01*
X4330Y6551D02*
X4270D01*
X6799Y12923D02*
X6798Y12914D01*
X6795Y12906D01*
X6791Y12898D01*
X6786Y12893D01*
X6779Y12890D01*
X6773Y12888D01*
X6766Y12890D01*
X6760Y12893D01*
X6754Y12898D01*
X6750Y12906D01*
X6748Y12914D01*
X6747Y12923D01*
Y12957D01*
X6799Y12923D02*
Y12957D01*
X6816D01*
X6850D01*
Y12888D01*
Y12832D02*
Y12797D01*
X6849Y12788D01*
X6847Y12780D01*
X6843Y12773D01*
X6837Y12767D01*
X6831Y12764D01*
X6824Y12763D01*
X6818Y12764D01*
X6811Y12767D01*
X6806Y12773D01*
X6802Y12780D01*
X6799Y12788D01*
Y12797D01*
X6798Y12788D01*
X6795Y12780D01*
X6791Y12773D01*
X6786Y12767D01*
X6779Y12764D01*
X6773Y12763D01*
X6766Y12764D01*
X6760Y12767D01*
X6754Y12773D01*
X6750Y12780D01*
X6748Y12788D01*
X6747Y12797D01*
Y12832D01*
X6816Y12706D02*
G02X6850Y12672I0J34D01*
X6816Y12637I34J0D01*
G01X6781D01*
G02X6747Y12672I0J34D01*
X6781Y12706I34J0D01*
G01X6816D01*
X6055Y11786D02*
X6089Y11821D01*
Y11717D01*
X6055D02*
X6123D01*
X6180Y11821D02*
Y11717D01*
X6249D02*
X6206Y11769D01*
X6249Y11821D01*
X5470Y10448D02*
X5504Y10482D01*
Y10379D01*
X5470D02*
X5539D01*
X5664Y10431D02*
Y10413D01*
G02X5630Y10379I34J0D01*
X5595Y10413I0J34D01*
G01Y10431D01*
X3208Y11279D02*
Y11244D01*
Y11235D01*
X3205Y11227D01*
X3201Y11220D01*
X3196Y11214D01*
X3189Y11211D01*
X3183Y11210D01*
X3176Y11211D01*
X3170Y11214D01*
X3164Y11220D01*
X3160Y11227D01*
X3158Y11235D01*
X3157Y11244D01*
X3156Y11235D01*
X3153Y11227D01*
X3149Y11220D01*
X3144Y11214D01*
X3138Y11211D01*
X3131Y11210D01*
X3124Y11211D01*
X3118Y11214D01*
X3113Y11220D01*
X3109Y11227D01*
X3106Y11235D01*
X3105Y11244D01*
Y11279D01*
X3208Y11153D02*
Y11119D01*
Y11110D01*
X3205Y11101D01*
X3201Y11094D01*
X3196Y11089D01*
X3189Y11085D01*
X3183Y11084D01*
X3176Y11085D01*
X3170Y11089D01*
X3164Y11094D01*
X3160Y11101D01*
X3158Y11110D01*
X3157Y11119D01*
X3156Y11110D01*
X3153Y11101D01*
X3149Y11094D01*
X3144Y11089D01*
X3138Y11085D01*
X3131Y11084D01*
X3124Y11085D01*
X3118Y11089D01*
X3113Y11094D01*
X3109Y11101D01*
X3106Y11110D01*
X3105Y11119D01*
Y11153D01*
X3174Y11028D02*
G02X3208Y10993I0J34D01*
X3174Y10959I34J0D01*
G01X3140D01*
G02X3105Y10993I0J34D01*
X3140Y11028I34J0D01*
G01X3174D01*
D11*
X1572Y8876D02*
Y8905D01*
X1646D01*
Y8846D01*
G02X1587Y8787I59J0D01*
G01X1528D01*
G02X1469Y8846I0J59D01*
G01Y8905D01*
X1646Y9002D02*
X1469D01*
X1646Y9120D01*
X1469D01*
Y9217D02*
Y9276D01*
G02X1528Y9335I59J0D01*
G01X1587D01*
G02X1646Y9276I0J59D01*
G01Y9217D01*
X1469D01*
Y7803D02*
Y7862D01*
X1470Y7875D01*
X1474Y7888D01*
X1479Y7899D01*
X1486Y7908D01*
X1495Y7915D01*
X1513Y7921D01*
X1523Y7919D01*
X1533Y7915D01*
X1541Y7908D01*
X1548Y7898D01*
X1554Y7887D01*
X1558Y7862D01*
X1559Y7875D01*
X1562Y7888D01*
X1568Y7899D01*
X1575Y7908D01*
X1583Y7915D01*
X1602Y7921D01*
X1612Y7919D01*
X1621Y7915D01*
X1630Y7908D01*
X1637Y7898D01*
X1642Y7887D01*
X1646Y7862D01*
Y7803D01*
X1640Y8077D02*
X1646D01*
X1469Y8233D02*
Y8292D01*
X1470Y8305D01*
X1474Y8318D01*
X1479Y8329D01*
X1486Y8339D01*
X1495Y8346D01*
X1513Y8351D01*
X1523Y8350D01*
X1533Y8345D01*
X1541Y8338D01*
X1548Y8328D01*
X1554Y8317D01*
X1558Y8292D01*
X1559Y8305D01*
X1562Y8318D01*
X1568Y8329D01*
X1575Y8339D01*
X1583Y8346D01*
X1602Y8351D01*
X1612Y8350D01*
X1621Y8345D01*
X1630Y8338D01*
X1637Y8328D01*
X1642Y8317D01*
X1646Y8292D01*
Y8233D01*
Y7015D02*
Y6956D01*
G02X1587Y6897I59J0D01*
G01X1528D01*
G02X1469Y6956I0J59D01*
G01Y7015D01*
X1558Y7171D02*
X1559Y7185D01*
X1562Y7197D01*
X1568Y7209D01*
X1575Y7218D01*
X1583Y7225D01*
X1602Y7230D01*
X1612Y7229D01*
X1621Y7224D01*
X1630Y7217D01*
X1637Y7208D01*
X1642Y7196D01*
X1646Y7171D01*
Y7118D01*
G02X1640Y7112I6J0D01*
G01X1558Y7171D02*
X1557Y7158D01*
X1553Y7145D01*
X1548Y7134D01*
X1541Y7125D01*
X1532Y7118D01*
X1513Y7112D01*
X1503Y7114D01*
X1494Y7118D01*
X1485Y7126D01*
X1478Y7135D01*
X1473Y7147D01*
X1469Y7171D01*
Y7225D01*
G02X1475Y7230I6J0D01*
G01X1646Y5677D02*
X1469D01*
Y5686D01*
X1528Y5736D01*
X1469Y5786D01*
Y5795D01*
X1646D01*
X1469Y5921D02*
Y5980D01*
G02X1499Y6010I30J0D01*
G01X1617D01*
G02X1646Y5980I0J30D01*
G01Y5921D01*
G02X1617Y5892I30J0D01*
G01X1499D01*
G02X1469Y5921I0J30D01*
G01X1558Y6166D02*
X1559Y6179D01*
X1562Y6192D01*
X1568Y6203D01*
X1575Y6213D01*
X1583Y6220D01*
X1602Y6225D01*
X1612Y6224D01*
X1621Y6219D01*
X1630Y6212D01*
X1637Y6202D01*
X1642Y6191D01*
X1646Y6166D01*
Y6113D01*
G02X1640Y6107I6J0D01*
G01X1558Y6166D02*
X1557Y6153D01*
X1553Y6140D01*
X1548Y6129D01*
X1541Y6119D01*
X1532Y6112D01*
X1513Y6107D01*
X1503Y6109D01*
X1494Y6113D01*
X1485Y6120D01*
X1478Y6130D01*
X1473Y6141D01*
X1469Y6166D01*
Y6219D01*
G02X1475Y6225I6J0D01*
G01X1469Y6352D02*
Y6411D01*
X1646Y6352D02*
Y6411D01*
X1469Y6381D02*
X1646D01*
Y4889D02*
Y4830D01*
G02X1587Y4771I59J0D01*
G01X1528D01*
G02X1469Y4830I0J59D01*
G01Y4889D01*
Y4986D02*
X1646D01*
Y5105D01*
X1469Y5202D02*
X1646D01*
Y5320D02*
X1558Y5246D01*
X1469Y5320D01*
X1627Y3679D02*
X1450D01*
Y3688D01*
X1509Y3738D01*
X1450Y3789D01*
Y3797D01*
X1627D01*
X1450Y3924D02*
Y3983D01*
X1627Y3924D02*
Y3983D01*
X1450Y3954D02*
X1627D01*
X1538Y4169D02*
X1540Y4182D01*
X1543Y4195D01*
X1548Y4206D01*
X1556Y4215D01*
X1564Y4222D01*
X1583Y4228D01*
X1593Y4226D01*
X1602Y4222D01*
X1611Y4214D01*
X1618Y4205D01*
X1623Y4193D01*
X1627Y4169D01*
Y4115D01*
G02X1621Y4110I6J0D01*
G01X1538Y4169D02*
X1537Y4155D01*
X1534Y4143D01*
X1529Y4131D01*
X1521Y4122D01*
X1513Y4115D01*
X1494Y4110D01*
X1484Y4111D01*
X1475Y4116D01*
X1466Y4123D01*
X1459Y4132D01*
X1454Y4144D01*
X1450Y4169D01*
Y4222D01*
G02X1456Y4228I6J0D01*
G01X1450Y4354D02*
Y4413D01*
G02X1479Y4443I30J0D01*
G01X1598D01*
G02X1627Y4413I0J30D01*
G01Y4354D01*
G02X1598Y4325I30J0D01*
G01X1479D01*
G02X1450Y4354I0J30D01*
D12*
G01X6017Y7753D02*
Y1847D01*
X11922D02*
Y7753D01*
X6017D01*
Y1847D02*
X11922D01*
X14123Y591D02*
X14560D01*
Y142D01*
X14123D01*
Y591D01*
D13*
X14066Y1797D02*
Y6805D01*
X15444D01*
Y1797D02*
X14066D01*
X4778Y4116D02*
X2849D01*
Y5651D01*
X4778D01*
Y4116D01*
X4066Y8840D02*
Y8617D01*
X4215D01*
X4337Y8766D02*
X4411Y8840D01*
Y8617D01*
X4337D02*
X4486D01*
X6183Y8132D02*
Y7983D01*
G02X6109Y7909I74J0D01*
X6035Y7983I0J74D01*
G01Y8132D01*
X6306Y8057D02*
X6380Y8132D01*
Y7909D01*
X6306D02*
X6454D01*
X12246Y822D02*
X12172D01*
G02X12098Y896I0J74D01*
G01Y971D01*
G02X12172Y1045I74J0D01*
G01X12246D01*
X12369Y971D02*
G02X12443Y1045I74J0D01*
X12517Y971I0J74D01*
G01X12369Y822D01*
X12517D01*
X12640Y971D02*
G02X12714Y1045I74J0D01*
X12788Y971I0J74D01*
G01Y896D01*
G02X12714Y822I74J0D01*
X12640Y896I0J74D01*
G01Y971D01*
X4380Y615D02*
Y838D01*
X4454D01*
X4468Y837D01*
X4481Y834D01*
X4494Y829D01*
X4505Y823D01*
X4514Y815D01*
X4521Y806D01*
X4526Y797D01*
X4529Y782D01*
X4527Y772D01*
X4524Y762D01*
X4517Y752D01*
X4509Y744D01*
X4499Y737D01*
X4487Y732D01*
X4474Y728D01*
X4454Y726D01*
X4380D01*
X4436D02*
X4529Y615D01*
X4651Y763D02*
X4725Y838D01*
Y615D01*
X4651D02*
X4800D01*
X4922Y763D02*
X4996Y838D01*
Y615D01*
X4922D02*
X5070D01*
X5069Y1353D02*
Y1576D01*
X5143D01*
X5157Y1575D01*
X5170Y1572D01*
X5183Y1568D01*
X5194Y1561D01*
X5203Y1554D01*
X5210Y1545D01*
X5215Y1535D01*
X5218Y1520D01*
X5216Y1510D01*
X5213Y1500D01*
X5206Y1491D01*
X5198Y1482D01*
X5188Y1475D01*
X5176Y1470D01*
X5163Y1466D01*
X5143Y1464D01*
X5069D01*
X5125D02*
X5218Y1353D01*
X5340Y1502D02*
X5414Y1576D01*
Y1353D01*
X5340D02*
X5489D01*
X5611Y1502D02*
G02X5685Y1576I74J0D01*
X5760Y1502I0J74D01*
G01Y1427D01*
G02X5685Y1353I74J0D01*
X5611Y1427I0J74D01*
G01Y1502D01*
X3151Y789D02*
Y640D01*
G02X3076Y566I74J0D01*
X3002Y640I0J74D01*
G01Y789D01*
X3422D02*
Y566D01*
Y677D02*
X3273D01*
Y789D01*
X12176Y12790D02*
Y13014D01*
X12251D01*
X12265Y13013D01*
X12278Y13010D01*
X12290Y13005D01*
X12301Y12999D01*
X12310Y12991D01*
X12318Y12982D01*
X12322Y12973D01*
X12325Y12958D01*
X12324Y12947D01*
X12320Y12938D01*
X12314Y12928D01*
X12305Y12920D01*
X12295Y12913D01*
X12283Y12908D01*
X12270Y12904D01*
X12251Y12902D01*
X12176D01*
X12447Y12790D02*
Y12976D01*
G02X12484Y13014I37J0D01*
G01X12559D01*
G02X12596Y12976I0J37D01*
G01Y12790D01*
X12447Y12902D02*
X12596D01*
X12718Y13014D02*
X12793D01*
G02X12867Y12939I0J74D01*
G01Y12865D01*
G02X12793Y12790I74J0D01*
G01X12718D01*
Y13014D01*
X13830Y13019D02*
X13904D01*
X13918Y13018D01*
X13931Y13015D01*
X13944Y13011D01*
X13955Y13004D01*
X13964Y12997D01*
X13971Y12988D01*
X13976Y12978D01*
X13979Y12963D01*
X13977Y12953D01*
X13974Y12943D01*
X13967Y12934D01*
X13959Y12926D01*
X13949Y12919D01*
X13937Y12913D01*
X13924Y12910D01*
X13904Y12908D01*
X13918Y12907D01*
X13931Y12904D01*
X13944Y12899D01*
X13955Y12893D01*
X13964Y12885D01*
X13971Y12876D01*
X13976Y12867D01*
X13979Y12852D01*
X13977Y12842D01*
X13974Y12832D01*
X13967Y12822D01*
X13959Y12814D01*
X13949Y12807D01*
X13937Y12802D01*
X13924Y12798D01*
X13904Y12796D01*
X13830D01*
X14175Y12804D02*
Y12796D01*
X14372Y13019D02*
X14446D01*
X14460Y13018D01*
X14473Y13015D01*
X14486Y13011D01*
X14496Y13004D01*
X14506Y12997D01*
X14513Y12988D01*
X14518Y12978D01*
X14520Y12963D01*
X14519Y12953D01*
X14515Y12943D01*
X14509Y12934D01*
X14501Y12926D01*
X14490Y12919D01*
X14479Y12913D01*
X14466Y12910D01*
X14446Y12908D01*
X14460Y12907D01*
X14473Y12904D01*
X14486Y12899D01*
X14496Y12893D01*
X14506Y12885D01*
X14513Y12876D01*
X14518Y12867D01*
X14520Y12852D01*
X14519Y12842D01*
X14515Y12832D01*
X14509Y12822D01*
X14501Y12814D01*
X14490Y12807D01*
X14479Y12802D01*
X14466Y12798D01*
X14446Y12796D01*
X14372D01*
X13115Y12889D02*
X13152D01*
Y12796D01*
X13078D01*
G02X13003Y12870I0J74D01*
G01Y12945D01*
G02X13078Y13019I74J0D01*
G01X13152D01*
X13274Y12796D02*
Y13019D01*
X13423Y12796D01*
Y13019D01*
X13545D02*
X13619D01*
G02X13694Y12945I0J74D01*
G01Y12870D01*
G02X13619Y12796I74J0D01*
G01X13545D01*
Y13019D01*
X14775Y13014D02*
X14924D01*
X14849D02*
Y12790D01*
X15046Y13014D02*
X15194Y12790D01*
Y13014D02*
X15046Y12790D01*
X1084Y2535D02*
X1041Y2560D01*
X999D01*
X957Y2535D01*
X935Y2486D01*
Y2412D01*
X957Y2361D01*
X999Y2337D01*
X1041D01*
X1084Y2361D01*
X1299Y2337D02*
Y2560D01*
X1206Y2412D01*
X1355D01*
X13546Y1964D02*
X13471D01*
G02X13397Y2038I0J74D01*
G01Y2112D01*
G02X13471Y2187I74J0D01*
G01X13546D01*
X13668Y2112D02*
X13742Y2187D01*
Y1964D01*
X13668D02*
X13817D01*
X1084Y2977D02*
X1009D01*
G02X935Y3051I0J74D01*
G01Y3126D01*
G02X1009Y3200I74J0D01*
G01X1084D01*
X1206D02*
X1280D01*
X1294Y3199D01*
X1307Y3196D01*
X1320Y3192D01*
X1331Y3185D01*
X1340Y3178D01*
X1347Y3169D01*
X1352Y3159D01*
X1355Y3144D01*
X1353Y3134D01*
X1350Y3124D01*
X1343Y3115D01*
X1335Y3106D01*
X1325Y3100D01*
X1313Y3094D01*
X1300Y3090D01*
X1280Y3088D01*
X1294D01*
X1307Y3085D01*
X1320Y3080D01*
X1331Y3074D01*
X1340Y3066D01*
X1347Y3057D01*
X1352Y3047D01*
X1355Y3033D01*
X1353Y3022D01*
X1350Y3012D01*
X1343Y3003D01*
X1335Y2995D01*
X1325Y2988D01*
X1313Y2983D01*
X1300Y2979D01*
X1280Y2977D01*
X1206D01*
X4115Y1255D02*
X4040D01*
G02X3966Y1329I0J74D01*
G01Y1403D01*
G02X4040Y1478I74J0D01*
G01X4115D01*
X4237Y1403D02*
G02X4311Y1478I74J0D01*
X4386Y1403I0J74D01*
G01X4237Y1255D01*
X4386D01*
X5160Y3735D02*
X5085D01*
G02X5011Y3810I0J74D01*
G01Y3884D01*
G02X5085Y3958I74J0D01*
G01X5160D01*
X5356Y3847D02*
X5370Y3846D01*
X5383Y3843D01*
X5396Y3838D01*
X5407Y3832D01*
X5416Y3824D01*
X5423Y3816D01*
X5428Y3806D01*
X5431Y3791D01*
X5429Y3781D01*
X5426Y3771D01*
X5419Y3762D01*
X5411Y3753D01*
X5401Y3746D01*
X5389Y3741D01*
X5376Y3737D01*
X5356Y3735D01*
X5282D01*
X5356Y3847D02*
X5282D01*
Y3884D01*
Y3958D01*
X5431D01*
X12118Y8526D02*
Y8749D01*
X12193D01*
X12206Y8748D01*
X12220Y8745D01*
X12232Y8740D01*
X12243Y8734D01*
X12252Y8726D01*
X12259Y8717D01*
X12264Y8708D01*
X12267Y8693D01*
X12266Y8683D01*
X12262Y8673D01*
X12256Y8663D01*
X12247Y8655D01*
X12237Y8648D01*
X12225Y8643D01*
X12212Y8639D01*
X12193Y8637D01*
X12118D01*
X12174D02*
X12267Y8526D01*
X12389Y8674D02*
G02X12463Y8749I74J0D01*
X12538Y8674I0J74D01*
G01X12389Y8526D01*
X12538D01*
X11616Y9050D02*
X11542D01*
G02X11468Y9125I0J74D01*
G01Y9199D01*
G02X11542Y9273I74J0D01*
G01X11616D01*
X11739Y9162D02*
X11813D01*
X11827Y9161D01*
X11840Y9158D01*
X11852Y9153D01*
X11863Y9147D01*
X11873Y9139D01*
X11880Y9131D01*
X11885Y9121D01*
X11887Y9106D01*
X11886Y9096D01*
X11882Y9086D01*
X11876Y9077D01*
X11868Y9068D01*
X11857Y9061D01*
X11846Y9056D01*
X11833Y9052D01*
X11813Y9050D01*
X11799Y9051D01*
X11786Y9054D01*
X11774Y9059D01*
X11763Y9065D01*
X11753Y9073D01*
X11746Y9082D01*
X11741Y9091D01*
X11739Y9106D01*
Y9199D01*
Y9218D02*
X11740Y9228D01*
X11744Y9238D01*
X11750Y9247D01*
X11758Y9255D01*
X11769Y9262D01*
X11780Y9268D01*
X11793Y9271D01*
X11813Y9273D01*
X11869D01*
X13261Y7655D02*
X13187D01*
G02X13112Y7729I0J74D01*
G01Y7804D01*
G02X13187Y7878I74J0D01*
G01X13261D01*
X13383Y7804D02*
X13458Y7878D01*
Y7655D01*
X13383D02*
X13532D01*
X13729Y7766D02*
X13742Y7765D01*
X13756Y7762D01*
X13768Y7758D01*
X13779Y7752D01*
X13788Y7744D01*
X13795Y7735D01*
X13800Y7725D01*
X13803Y7711D01*
X13802Y7700D01*
X13798Y7690D01*
X13792Y7681D01*
X13783Y7673D01*
X13773Y7666D01*
X13761Y7660D01*
X13748Y7657D01*
X13729Y7655D01*
X13654D01*
X13729Y7766D02*
X13654D01*
Y7804D01*
Y7878D01*
X13803D01*
X5265Y7633D02*
Y7559D01*
G02X5190Y7484I74J0D01*
G01X5116D01*
G02X5041Y7559I0J74D01*
G01Y7633D01*
X5116Y7755D02*
X5041Y7829D01*
X5265D01*
Y7755D02*
Y7904D01*
X5041Y8026D02*
Y8175D01*
X5265Y8100D01*
X7010Y9129D02*
X6936D01*
G02X6861Y9203I0J74D01*
G01Y9278D01*
G02X6936Y9352I74J0D01*
G01X7010D01*
X7207Y9241D02*
X7221Y9240D01*
X7234Y9237D01*
X7246Y9232D01*
X7257Y9226D01*
X7266Y9218D01*
X7274Y9209D01*
X7278Y9200D01*
X7281Y9185D01*
X7280Y9174D01*
X7276Y9165D01*
X7270Y9155D01*
X7261Y9147D01*
X7251Y9140D01*
X7239Y9135D01*
X7226Y9131D01*
X7207Y9129D01*
X7193Y9130D01*
X7180Y9133D01*
X7167Y9138D01*
X7156Y9144D01*
X7147Y9151D01*
X7140Y9160D01*
X7135Y9170D01*
X7132Y9185D01*
X7134Y9195D01*
X7137Y9205D01*
X7144Y9214D01*
X7152Y9223D01*
X7162Y9230D01*
X7174Y9235D01*
X7187Y9239D01*
X7207Y9241D01*
Y9352D02*
X7221Y9351D01*
X7234Y9348D01*
X7246Y9344D01*
X7257Y9337D01*
X7266Y9330D01*
X7274Y9321D01*
X7278Y9311D01*
X7281Y9296D01*
X7280Y9286D01*
X7276Y9276D01*
X7270Y9267D01*
X7261Y9259D01*
X7251Y9252D01*
X7239Y9246D01*
X7226Y9243D01*
X7207Y9241D01*
X7193Y9242D01*
X7180Y9244D01*
X7167Y9249D01*
X7156Y9255D01*
X7147Y9263D01*
X7140Y9272D01*
X7135Y9282D01*
X7132Y9296D01*
X7134Y9307D01*
X7137Y9317D01*
X7144Y9326D01*
X7152Y9334D01*
X7162Y9341D01*
X7174Y9347D01*
X7187Y9350D01*
X7207Y9352D01*
X10672Y13420D02*
X10597D01*
G02X10523Y13495I0J74D01*
G01Y13569D01*
G02X10597Y13643I74J0D01*
G01X10672D01*
X10794Y13569D02*
X10868Y13643D01*
Y13420D01*
X10794D02*
X10943D01*
X11065Y13569D02*
G02X11139Y13643I74J0D01*
X11214Y13569I0J74D01*
G01X11065Y13420D01*
X11214D01*
X4775Y13015D02*
X4700D01*
G02X4626Y13089I0J74D01*
G01Y13164D01*
G02X4700Y13238I74J0D01*
G01X4775D01*
X4897Y13164D02*
X4971Y13238D01*
Y13015D01*
X4897D02*
X5046D01*
X5168Y13164D02*
G02X5242Y13238I74J0D01*
X5317Y13164I0J74D01*
G01Y13089D01*
G02X5242Y13015I74J0D01*
X5168Y13089I0J74D01*
G01Y13164D01*
X2854Y12671D02*
Y12894D01*
X2929D01*
X2942Y12893D01*
X2956Y12890D01*
X2968Y12885D01*
X2979Y12879D01*
X2988Y12871D01*
X2996Y12862D01*
X3000Y12853D01*
X3003Y12838D01*
X3002Y12828D01*
X2998Y12818D01*
X2992Y12808D01*
X2983Y12800D01*
X2973Y12793D01*
X2961Y12788D01*
X2948Y12784D01*
X2929Y12782D01*
X2854D01*
X2910D02*
X3003Y12671D01*
X3274Y12894D02*
Y12671D01*
Y12782D02*
X3125D01*
Y12894D01*
X3789Y11195D02*
Y11419D01*
X3864D01*
X3878Y11418D01*
X3891Y11415D01*
X3903Y11410D01*
X3914Y11404D01*
X3923Y11396D01*
X3931Y11387D01*
X3935Y11378D01*
X3938Y11363D01*
X3937Y11352D01*
X3933Y11342D01*
X3927Y11333D01*
X3918Y11325D01*
X3908Y11318D01*
X3896Y11313D01*
X3883Y11309D01*
X3864Y11307D01*
X3789D01*
X3845D02*
X3938Y11195D01*
X4135Y11307D02*
X4148Y11306D01*
X4162Y11303D01*
X4174Y11298D01*
X4185Y11292D01*
X4194Y11284D01*
X4202Y11276D01*
X4206Y11266D01*
X4209Y11251D01*
X4208Y11241D01*
X4204Y11231D01*
X4198Y11222D01*
X4189Y11213D01*
X4179Y11206D01*
X4167Y11201D01*
X4154Y11197D01*
X4135Y11195D01*
X4060D01*
X4135Y11307D02*
X4060D01*
Y11344D01*
Y11419D01*
X4209D01*
X4675Y11106D02*
Y11330D01*
X4750D01*
X4763Y11329D01*
X4777Y11326D01*
X4789Y11321D01*
X4800Y11315D01*
X4809Y11307D01*
X4816Y11298D01*
X4821Y11289D01*
X4824Y11274D01*
X4823Y11263D01*
X4819Y11253D01*
X4813Y11244D01*
X4804Y11236D01*
X4794Y11229D01*
X4782Y11224D01*
X4769Y11220D01*
X4750Y11218D01*
X4675D01*
X4731D02*
X4824Y11106D01*
X4946Y11218D02*
X5021D01*
X5034Y11217D01*
X5048Y11214D01*
X5060Y11210D01*
X5071Y11203D01*
X5080Y11196D01*
X5087Y11187D01*
X5092Y11177D01*
X5095Y11162D01*
X5094Y11152D01*
X5090Y11142D01*
X5084Y11133D01*
X5075Y11124D01*
X5065Y11117D01*
X5053Y11112D01*
X5040Y11108D01*
X5021Y11106D01*
X5007Y11107D01*
X4993Y11110D01*
X4981Y11115D01*
X4970Y11121D01*
X4961Y11129D01*
X4954Y11138D01*
X4949Y11147D01*
X4946Y11162D01*
Y11255D01*
Y11274D02*
X4947Y11284D01*
X4951Y11294D01*
X4957Y11303D01*
X4966Y11312D01*
X4976Y11319D01*
X4988Y11324D01*
X5001Y11328D01*
X5021Y11330D01*
X5076D01*
X1181Y12278D02*
Y12501D01*
X1255D01*
X1269Y12500D01*
X1283Y12497D01*
X1295Y12493D01*
X1306Y12486D01*
X1315Y12479D01*
X1322Y12470D01*
X1327Y12460D01*
X1330Y12445D01*
X1329Y12435D01*
X1325Y12425D01*
X1319Y12416D01*
X1310Y12408D01*
X1300Y12401D01*
X1288Y12395D01*
X1275Y12392D01*
X1255Y12390D01*
X1181D01*
X1237D02*
X1330Y12278D01*
X1452Y12501D02*
X1526D01*
X1540Y12500D01*
X1553Y12497D01*
X1566Y12493D01*
X1577Y12486D01*
X1586Y12479D01*
X1593Y12470D01*
X1598Y12460D01*
X1601Y12445D01*
X1600Y12435D01*
X1596Y12425D01*
X1589Y12416D01*
X1581Y12408D01*
X1571Y12401D01*
X1559Y12395D01*
X1546Y12392D01*
X1526Y12390D01*
X1540Y12389D01*
X1553Y12386D01*
X1566Y12381D01*
X1577Y12375D01*
X1586Y12367D01*
X1593Y12358D01*
X1598Y12349D01*
X1601Y12334D01*
X1600Y12324D01*
X1596Y12314D01*
X1589Y12304D01*
X1581Y12296D01*
X1571Y12289D01*
X1559Y12284D01*
X1546Y12280D01*
X1526Y12278D01*
X1452D01*
X15126Y8611D02*
X15349D01*
Y8537D01*
X15348Y8523D01*
X15345Y8510D01*
X15340Y8497D01*
X15334Y8486D01*
X15326Y8477D01*
X15318Y8470D01*
X15308Y8465D01*
X15293Y8462D01*
X15283Y8464D01*
X15273Y8467D01*
X15263Y8474D01*
X15255Y8482D01*
X15248Y8492D01*
X15243Y8504D01*
X15239Y8517D01*
X15237Y8537D01*
Y8611D01*
Y8555D02*
X15126Y8462D01*
X15237Y8266D02*
X15236Y8252D01*
X15233Y8239D01*
X15229Y8226D01*
X15223Y8215D01*
X15215Y8206D01*
X15206Y8199D01*
X15196Y8194D01*
X15181Y8191D01*
X15171Y8193D01*
X15161Y8197D01*
X15152Y8203D01*
X15144Y8211D01*
X15137Y8221D01*
X15131Y8233D01*
X15128Y8246D01*
X15126Y8266D01*
X15127Y8280D01*
X15130Y8293D01*
X15134Y8305D01*
X15140Y8316D01*
X15148Y8325D01*
X15157Y8333D01*
X15167Y8338D01*
X15181Y8340D01*
X15192Y8339D01*
X15202Y8335D01*
X15211Y8329D01*
X15219Y8321D01*
X15226Y8310D01*
X15232Y8298D01*
X15235Y8285D01*
X15237Y8266D01*
X15349D02*
X15348Y8252D01*
X15345Y8239D01*
X15340Y8226D01*
X15334Y8215D01*
X15326Y8206D01*
X15318Y8199D01*
X15308Y8194D01*
X15293Y8191D01*
X15283Y8193D01*
X15273Y8197D01*
X15263Y8203D01*
X15255Y8211D01*
X15248Y8221D01*
X15243Y8233D01*
X15239Y8246D01*
X15237Y8266D01*
X15238Y8280D01*
X15241Y8293D01*
X15246Y8305D01*
X15252Y8316D01*
X15260Y8325D01*
X15269Y8333D01*
X15278Y8338D01*
X15293Y8340D01*
X15303Y8339D01*
X15313Y8335D01*
X15323Y8329D01*
X15331Y8321D01*
X15338Y8310D01*
X15343Y8298D01*
X15347Y8285D01*
X15349Y8266D01*
X15121Y8039D02*
X15344D01*
Y7965D01*
X15343Y7951D01*
X15340Y7938D01*
X15336Y7926D01*
X15329Y7915D01*
X15322Y7905D01*
X15313Y7898D01*
X15303Y7893D01*
X15288Y7891D01*
X15278Y7892D01*
X15268Y7896D01*
X15259Y7902D01*
X15251Y7910D01*
X15244Y7921D01*
X15238Y7932D01*
X15235Y7945D01*
X15233Y7965D01*
Y8039D01*
Y7984D02*
X15121Y7891D01*
X15344Y7694D02*
X15343Y7680D01*
X15340Y7667D01*
X15336Y7655D01*
X15329Y7644D01*
X15322Y7634D01*
X15313Y7627D01*
X15303Y7622D01*
X15288Y7620D01*
X15278Y7621D01*
X15268Y7625D01*
X15259Y7631D01*
X15251Y7639D01*
X15244Y7650D01*
X15238Y7662D01*
X15235Y7674D01*
X15233Y7694D01*
X15234Y7708D01*
X15236Y7721D01*
X15241Y7734D01*
X15247Y7745D01*
X15255Y7754D01*
X15264Y7761D01*
X15274Y7766D01*
X15288Y7768D01*
X15299Y7767D01*
X15309Y7763D01*
X15318Y7757D01*
X15326Y7749D01*
X15333Y7739D01*
X15339Y7727D01*
X15342Y7714D01*
X15344Y7694D01*
X15288Y7620D02*
X15121D01*
X14218Y9346D02*
Y9569D01*
X14292D01*
X14306Y9568D01*
X14319Y9565D01*
X14331Y9560D01*
X14342Y9554D01*
X14352Y9546D01*
X14359Y9538D01*
X14364Y9528D01*
X14366Y9513D01*
X14365Y9503D01*
X14361Y9493D01*
X14355Y9484D01*
X14347Y9475D01*
X14336Y9468D01*
X14325Y9463D01*
X14312Y9459D01*
X14292Y9457D01*
X14218D01*
X14273D02*
X14366Y9346D01*
X14488Y9495D02*
X14563Y9569D01*
Y9346D01*
X14488D02*
X14637D01*
X14908Y9569D02*
Y9346D01*
Y9457D02*
X14759D01*
Y9569D01*
X13187Y8517D02*
Y8442D01*
G02X13113Y8368I74J0D01*
G01X13038D01*
G02X12964Y8442I0J74D01*
G01Y8517D01*
X13038Y8639D02*
X12964Y8713D01*
X13187D01*
Y8639D02*
Y8788D01*
X13075Y8910D02*
Y8984D01*
X13076Y8998D01*
X13079Y9011D01*
X13084Y9024D01*
X13090Y9035D01*
X13098Y9044D01*
X13107Y9051D01*
X13116Y9056D01*
X13131Y9059D01*
X13141Y9057D01*
X13151Y9053D01*
X13161Y9047D01*
X13169Y9039D01*
X13176Y9029D01*
X13181Y9017D01*
X13185Y9004D01*
X13187Y8984D01*
X13186Y8970D01*
X13183Y8957D01*
X13178Y8945D01*
X13172Y8934D01*
X13164Y8924D01*
X13156Y8917D01*
X13146Y8912D01*
X13131Y8910D01*
X13038D01*
X13020D02*
X13009Y8911D01*
X12999Y8915D01*
X12990Y8921D01*
X12982Y8929D01*
X12975Y8940D01*
X12969Y8952D01*
X12966Y8964D01*
X12964Y8984D01*
Y9040D01*
X2639Y7837D02*
X2565D01*
G02X2490Y7912I0J74D01*
G01Y7986D01*
G02X2565Y8061I74J0D01*
G01X2639D01*
X2761D02*
X2910D01*
X2835Y7837D01*
X6103Y10702D02*
X6029D01*
G02X5955Y10776I0J74D01*
G01Y10851D01*
G02X6029Y10925I74J0D01*
G01X6103D01*
X6300D02*
X6314Y10924D01*
X6327Y10921D01*
X6339Y10917D01*
X6350Y10910D01*
X6360Y10903D01*
X6367Y10894D01*
X6372Y10884D01*
X6374Y10869D01*
X6373Y10859D01*
X6369Y10849D01*
X6363Y10840D01*
X6355Y10832D01*
X6344Y10825D01*
X6333Y10819D01*
X6320Y10816D01*
X6300Y10814D01*
X6286Y10815D01*
X6273Y10817D01*
X6261Y10822D01*
X6250Y10828D01*
X6240Y10836D01*
X6233Y10845D01*
X6228Y10855D01*
X6226Y10869D01*
X6227Y10880D01*
X6231Y10890D01*
X6237Y10899D01*
X6245Y10907D01*
X6256Y10914D01*
X6267Y10920D01*
X6280Y10923D01*
X6300Y10925D01*
X6374Y10869D02*
Y10702D01*
X11459Y11846D02*
X11385D01*
G02X11310Y11920I0J74D01*
G01Y11994D01*
G02X11385Y12069I74J0D01*
G01X11459D01*
X11581Y11994D02*
X11656Y12069D01*
Y11846D01*
X11581D02*
X11730D01*
X11852Y12069D02*
X11927D01*
X11940Y12068D01*
X11954Y12065D01*
X11966Y12060D01*
X11977Y12054D01*
X11986Y12046D01*
X11993Y12037D01*
X11998Y12028D01*
X12001Y12013D01*
X12000Y12003D01*
X11996Y11993D01*
X11990Y11983D01*
X11981Y11975D01*
X11971Y11968D01*
X11959Y11963D01*
X11946Y11959D01*
X11927Y11957D01*
X11940Y11956D01*
X11954Y11953D01*
X11966Y11949D01*
X11977Y11942D01*
X11986Y11935D01*
X11993Y11926D01*
X11998Y11916D01*
X12001Y11901D01*
X12000Y11891D01*
X11996Y11881D01*
X11990Y11872D01*
X11981Y11864D01*
X11971Y11857D01*
X11959Y11851D01*
X11946Y11848D01*
X11927Y11846D01*
X11852D01*
X14460Y12253D02*
Y12178D01*
X14237Y12253D02*
Y12178D01*
X14460Y12215D02*
X14237D01*
Y12019D02*
X14460D01*
Y11945D01*
X14459Y11931D01*
X14456Y11917D01*
X14451Y11905D01*
X14445Y11894D01*
X14437Y11885D01*
X14429Y11878D01*
X14419Y11873D01*
X14404Y11870D01*
X14394Y11871D01*
X14384Y11875D01*
X14375Y11881D01*
X14366Y11890D01*
X14359Y11900D01*
X14354Y11912D01*
X14350Y11925D01*
X14348Y11945D01*
Y12019D01*
Y11963D02*
X14237Y11870D01*
X14460Y11441D02*
Y11367D01*
X14237Y11441D02*
Y11367D01*
X14460Y11404D02*
X14237D01*
X14348Y11207D02*
Y11133D01*
X14347Y11119D01*
X14345Y11106D01*
X14340Y11093D01*
X14334Y11082D01*
X14326Y11073D01*
X14317Y11066D01*
X14307Y11061D01*
X14293Y11059D01*
X14282Y11060D01*
X14272Y11064D01*
X14263Y11070D01*
X14255Y11078D01*
X14248Y11088D01*
X14242Y11100D01*
X14239Y11113D01*
X14237Y11133D01*
Y11207D01*
X14460D01*
Y11133D01*
X14459Y11119D01*
X14456Y11106D01*
X14451Y11093D01*
X14445Y11082D01*
X14437Y11073D01*
X14429Y11066D01*
X14419Y11061D01*
X14404Y11059D01*
X14394Y11060D01*
X14384Y11064D01*
X14375Y11070D01*
X14366Y11078D01*
X14359Y11088D01*
X14354Y11100D01*
X14350Y11113D01*
X14348Y11133D01*
X13423Y740D02*
X13200D01*
Y826D01*
X13225Y869D01*
X13300D01*
X13325Y826D01*
Y740D01*
Y804D02*
X13423Y869D01*
X13250Y1054D02*
X13200Y1097D01*
X13423D01*
Y189D02*
X13200D01*
Y253D01*
X13225Y296D01*
X13274Y318D01*
X13349D01*
X13399Y296D01*
X13423Y253D01*
Y189D01*
X13250Y503D02*
X13200Y546D01*
X13423D01*
X10475Y9392D02*
Y9243D01*
G02X10400Y9168I74J0D01*
X10326Y9243I0J74D01*
G01Y9392D01*
X10597Y9317D02*
G02X10671Y9392I74J0D01*
X10746Y9317I0J74D01*
G01X10597Y9168D01*
X10746D01*
X12483Y10848D02*
Y10699D01*
G02X12408Y10625I74J0D01*
X12334Y10699I0J74D01*
G01Y10848D01*
X12754D02*
Y10625D01*
Y10737D02*
X12605D01*
Y10848D01*
X3106Y6616D02*
Y6467D01*
G02X3032Y6393I74J0D01*
X2958Y6467I0J74D01*
G01Y6616D01*
X3303Y6505D02*
X3317Y6504D01*
X3330Y6501D01*
X3342Y6496D01*
X3353Y6490D01*
X3363Y6482D01*
X3370Y6473D01*
X3375Y6464D01*
X3377Y6449D01*
X3376Y6439D01*
X3372Y6429D01*
X3366Y6419D01*
X3358Y6411D01*
X3347Y6404D01*
X3336Y6399D01*
X3323Y6395D01*
X3303Y6393D01*
X3229D01*
X3303Y6505D02*
X3229D01*
Y6542D01*
Y6616D01*
X3377D01*
X12443Y12108D02*
Y11959D01*
G02X12369Y11885I74J0D01*
G01X12355Y11886D01*
X12342Y11888D01*
X12329Y11891D01*
X12318Y11895D01*
X12309Y11900D01*
X12302Y11906D01*
X12297Y11912D01*
X12295Y11922D01*
X12565Y11885D02*
Y12108D01*
X12640D01*
X12654Y12107D01*
X12667Y12104D01*
X12679Y12100D01*
X12690Y12093D01*
X12699Y12086D01*
X12707Y12077D01*
X12711Y12067D01*
X12714Y12052D01*
X12713Y12042D01*
X12709Y12032D01*
X12703Y12023D01*
X12694Y12014D01*
X12684Y12008D01*
X12672Y12002D01*
X12659Y11998D01*
X12640Y11997D01*
X12565D01*
X12836Y12034D02*
X12911Y12108D01*
Y11885D01*
X12836D02*
X12985D01*
X1440Y10158D02*
Y10381D01*
X1514D01*
X1528Y10380D01*
X1541Y10377D01*
X1554Y10372D01*
X1565Y10366D01*
X1574Y10358D01*
X1581Y10349D01*
X1586Y10340D01*
X1589Y10325D01*
X1587Y10315D01*
X1584Y10305D01*
X1577Y10295D01*
X1569Y10287D01*
X1559Y10280D01*
X1547Y10275D01*
X1534Y10271D01*
X1514Y10269D01*
X1440D01*
X1496D02*
X1589Y10158D01*
X1711Y10306D02*
X1785Y10381D01*
Y10158D01*
X1711D02*
X1860D01*
X1982Y10306D02*
G02X2056Y10381I74J0D01*
X2130Y10306I0J74D01*
G01X1982Y10158D01*
X2130D01*
X5312Y6448D02*
X5089D01*
Y6522D01*
X5090Y6536D01*
X5092Y6549D01*
X5097Y6562D01*
X5103Y6573D01*
X5111Y6582D01*
X5120Y6589D01*
X5130Y6594D01*
X5144Y6597D01*
X5155Y6595D01*
X5165Y6592D01*
X5174Y6585D01*
X5182Y6577D01*
X5189Y6567D01*
X5194Y6555D01*
X5198Y6542D01*
X5200Y6522D01*
Y6448D01*
Y6504D02*
X5312Y6597D01*
X5163Y6719D02*
X5089Y6793D01*
X5312D01*
Y6719D02*
Y6868D01*
X5089Y6990D02*
Y7064D01*
X5090Y7078D01*
X5092Y7091D01*
X5097Y7104D01*
X5103Y7115D01*
X5111Y7124D01*
X5120Y7131D01*
X5130Y7136D01*
X5144Y7139D01*
X5155Y7137D01*
X5165Y7133D01*
X5174Y7127D01*
X5182Y7119D01*
X5189Y7109D01*
X5194Y7097D01*
X5198Y7084D01*
X5200Y7064D01*
X5201Y7078D01*
X5204Y7091D01*
X5209Y7104D01*
X5215Y7115D01*
X5223Y7124D01*
X5231Y7131D01*
X5241Y7136D01*
X5256Y7139D01*
X5266Y7137D01*
X5276Y7133D01*
X5285Y7127D01*
X5294Y7119D01*
X5301Y7109D01*
X5306Y7097D01*
X5310Y7084D01*
X5312Y7064D01*
Y6990D01*
X3146Y6826D02*
X3071D01*
G02X2997Y6900I0J74D01*
G01Y6975D01*
G02X3071Y7049I74J0D01*
G01X3146D01*
X3268Y6975D02*
X3342Y7049D01*
Y6826D01*
X3268D02*
X3417D01*
X3613Y6938D02*
X3627Y6937D01*
X3640Y6934D01*
X3653Y6929D01*
X3664Y6923D01*
X3673Y6915D01*
X3680Y6906D01*
X3685Y6897D01*
X3688Y6882D01*
X3686Y6872D01*
X3683Y6862D01*
X3676Y6852D01*
X3668Y6844D01*
X3658Y6837D01*
X3646Y6832D01*
X3633Y6828D01*
X3613Y6826D01*
X3600Y6827D01*
X3586Y6830D01*
X3574Y6835D01*
X3563Y6841D01*
X3554Y6849D01*
X3546Y6857D01*
X3542Y6867D01*
X3539Y6882D01*
X3540Y6892D01*
X3544Y6902D01*
X3550Y6911D01*
X3559Y6920D01*
X3569Y6927D01*
X3581Y6932D01*
X3594Y6936D01*
X3613Y6938D01*
Y7049D02*
X3627Y7048D01*
X3640Y7045D01*
X3653Y7041D01*
X3664Y7034D01*
X3673Y7027D01*
X3680Y7018D01*
X3685Y7008D01*
X3688Y6993D01*
X3686Y6983D01*
X3683Y6973D01*
X3676Y6964D01*
X3668Y6956D01*
X3658Y6949D01*
X3646Y6943D01*
X3633Y6940D01*
X3613Y6938D01*
X3600Y6939D01*
X3586Y6941D01*
X3574Y6946D01*
X3563Y6952D01*
X3554Y6960D01*
X3546Y6969D01*
X3542Y6979D01*
X3539Y6993D01*
X3540Y7004D01*
X3544Y7014D01*
X3550Y7023D01*
X3559Y7031D01*
X3569Y7038D01*
X3581Y7044D01*
X3594Y7047D01*
X3613Y7049D01*
X902Y11752D02*
X827Y11529D01*
X753Y11752D01*
X1098Y11640D02*
X1112Y11639D01*
X1125Y11636D01*
X1138Y11632D01*
X1149Y11625D01*
X1158Y11618D01*
X1165Y11609D01*
X1170Y11599D01*
X1173Y11584D01*
X1171Y11574D01*
X1167Y11564D01*
X1161Y11555D01*
X1153Y11547D01*
X1143Y11540D01*
X1131Y11534D01*
X1118Y11531D01*
X1098Y11529D01*
X1031D01*
G02X1024Y11536I0J7D01*
G01X1098Y11640D02*
X1084Y11641D01*
X1071Y11644D01*
X1059Y11649D01*
X1048Y11655D01*
X1039Y11663D01*
X1031Y11672D01*
X1027Y11681D01*
X1024Y11696D01*
X1025Y11706D01*
X1029Y11716D01*
X1035Y11726D01*
X1044Y11734D01*
X1054Y11741D01*
X1066Y11746D01*
X1079Y11750D01*
X1098Y11752D01*
X1165D01*
G02X1173Y11744I0J7D01*
G01X792Y10925D02*
Y10702D01*
X941Y10925D02*
Y10702D01*
X792Y10813D02*
X941D01*
X1138D02*
X1151Y10812D01*
X1165Y10810D01*
X1177Y10805D01*
X1188Y10799D01*
X1197Y10791D01*
X1204Y10782D01*
X1209Y10772D01*
X1212Y10758D01*
X1211Y10747D01*
X1207Y10737D01*
X1201Y10728D01*
X1192Y10720D01*
X1182Y10713D01*
X1170Y10708D01*
X1157Y10704D01*
X1138Y10702D01*
X1071D01*
G02X1063Y10709I0J7D01*
G01X1138Y10813D02*
X1124Y10814D01*
X1111Y10817D01*
X1098Y10822D01*
X1087Y10828D01*
X1078Y10836D01*
X1071Y10845D01*
X1066Y10854D01*
X1063Y10869D01*
X1065Y10880D01*
X1068Y10889D01*
X1075Y10899D01*
X1083Y10907D01*
X1093Y10914D01*
X1105Y10919D01*
X1118Y10923D01*
X1138Y10925D01*
X1205D01*
G02X1212Y10918I0J7D01*
G01X7011Y13524D02*
X7234D01*
Y13449D01*
X7233Y13435D01*
X7230Y13422D01*
X7226Y13410D01*
X7219Y13399D01*
X7212Y13390D01*
X7203Y13382D01*
X7193Y13378D01*
X7178Y13375D01*
X7168Y13376D01*
X7158Y13380D01*
X7149Y13386D01*
X7141Y13395D01*
X7134Y13405D01*
X7128Y13417D01*
X7125Y13430D01*
X7123Y13449D01*
Y13524D01*
Y13468D02*
X7011Y13375D01*
X7234Y13253D02*
Y13104D01*
X7011Y13178D01*
X4091Y9821D02*
X4166D01*
G02X4240Y9746I0J74D01*
G01Y9672D01*
G02X4166Y9598I74J0D01*
G01X4091D01*
Y9821D01*
X4362Y9746D02*
G02X4437Y9821I74J0D01*
X4511Y9746I0J74D01*
G01X4362Y9598D01*
X4511D01*
X5833Y11417D02*
X5610D01*
Y11492D01*
X5611Y11505D01*
X5614Y11519D01*
X5619Y11531D01*
X5625Y11542D01*
X5633Y11551D01*
X5642Y11559D01*
X5651Y11563D01*
X5666Y11566D01*
X5676Y11565D01*
X5686Y11561D01*
X5696Y11555D01*
X5704Y11546D01*
X5711Y11536D01*
X5716Y11524D01*
X5720Y11511D01*
X5722Y11492D01*
Y11417D01*
Y11473D02*
X5833Y11566D01*
X5685Y11688D02*
X5610Y11763D01*
X5833D01*
Y11688D02*
Y11837D01*
X5722Y12033D02*
X5723Y12047D01*
X5726Y12061D01*
X5730Y12073D01*
X5737Y12084D01*
X5744Y12093D01*
X5753Y12100D01*
X5763Y12105D01*
X5778Y12108D01*
X5788Y12107D01*
X5798Y12103D01*
X5807Y12097D01*
X5815Y12088D01*
X5822Y12078D01*
X5828Y12066D01*
X5831Y12053D01*
X5833Y12033D01*
Y11959D01*
X5722Y12033D02*
Y11959D01*
X5685D01*
X5610D01*
Y12108D01*
X5243Y10385D02*
Y10311D01*
G02X5168Y10236I74J0D01*
G01X5094D01*
G02X5020Y10311I0J74D01*
G01Y10385D01*
X5094Y10507D02*
G02X5020Y10581I0J74D01*
X5094Y10656I74J0D01*
G01X5243Y10507D01*
Y10656D01*
X5094Y10778D02*
X5020Y10852D01*
X5243D01*
Y10778D02*
Y10927D01*
X2805Y10554D02*
Y10778D01*
X2879D01*
X2893Y10777D01*
X2907Y10774D01*
X2919Y10769D01*
X2930Y10763D01*
X2939Y10755D01*
X2946Y10746D01*
X2951Y10737D01*
X2954Y10722D01*
X2953Y10711D01*
X2949Y10701D01*
X2943Y10692D01*
X2934Y10684D01*
X2924Y10677D01*
X2912Y10672D01*
X2899Y10668D01*
X2879Y10666D01*
X2805D01*
X2861D02*
X2954Y10554D01*
X3076Y10703D02*
X3150Y10778D01*
Y10554D01*
X3076D02*
X3225D01*
X3347Y10666D02*
X3421D01*
X3435Y10665D01*
X3448Y10662D01*
X3461Y10658D01*
X3472Y10651D01*
X3481Y10644D01*
X3488Y10635D01*
X3493Y10625D01*
X3496Y10610D01*
X3494Y10600D01*
X3491Y10590D01*
X3484Y10581D01*
X3476Y10572D01*
X3466Y10566D01*
X3454Y10560D01*
X3441Y10556D01*
X3421Y10554D01*
X3407Y10555D01*
X3394Y10558D01*
X3382Y10563D01*
X3371Y10569D01*
X3362Y10577D01*
X3354Y10586D01*
X3350Y10596D01*
X3347Y10610D01*
Y10703D01*
Y10722D02*
X3348Y10732D01*
X3352Y10742D01*
X3358Y10751D01*
X3367Y10760D01*
X3377Y10767D01*
X3389Y10772D01*
X3402Y10776D01*
X3421Y10778D01*
X3477D01*
X2609Y9941D02*
Y9792D01*
G02X2535Y9718I74J0D01*
G01X2521Y9719D01*
X2508Y9720D01*
X2496Y9724D01*
X2485Y9728D01*
X2475Y9733D01*
X2468Y9739D01*
X2463Y9745D01*
X2461Y9755D01*
X2732Y9718D02*
Y9941D01*
X2806D01*
X2820Y9940D01*
X2833Y9937D01*
X2845Y9932D01*
X2856Y9926D01*
X2866Y9918D01*
X2873Y9910D01*
X2878Y9900D01*
X2880Y9885D01*
X2879Y9875D01*
X2875Y9865D01*
X2869Y9856D01*
X2861Y9847D01*
X2850Y9840D01*
X2838Y9835D01*
X2826Y9831D01*
X2806Y9829D01*
X2732D01*
X3002Y9867D02*
G02X3077Y9941I74J0D01*
X3151Y9867I0J74D01*
G01X3002Y9718D01*
X3151D01*
D14*
X6865Y773D02*
X6992D01*
Y709D01*
G02X6865Y582I127J0D01*
X6737Y709I0J127D01*
G01Y837D01*
G02X6865Y964I127J0D01*
G01X6879D01*
X6893Y963D01*
X6907Y961D01*
X6921Y958D01*
X6933Y954D01*
X6944Y950D01*
X6955Y945D01*
X6964Y940D01*
X6971Y934D01*
X6977Y928D01*
X6982Y921D01*
X6985Y915D01*
X6986Y907D01*
X7375Y607D02*
X7373Y604D01*
X7370Y600D01*
X7365Y596D01*
X7358Y593D01*
X7349Y590D01*
X7339Y588D01*
X7327Y585D01*
X7314Y584D01*
X7301Y583D01*
X7279Y582D01*
X7267Y583D01*
X7254Y584D01*
X7242Y587D01*
X7230Y591D01*
X7218Y596D01*
X7207Y603D01*
X7196Y610D01*
X7186Y618D01*
X7176Y627D01*
X7167Y637D01*
X7158Y648D01*
X7151Y660D01*
X7144Y672D01*
X7137Y685D01*
X7132Y699D01*
X7128Y713D01*
X7124Y727D01*
X7122Y742D01*
X7120Y756D01*
Y773D01*
Y788D01*
X7122Y803D01*
X7124Y818D01*
X7127Y832D01*
X7132Y846D01*
X7137Y859D01*
X7143Y872D01*
X7150Y885D01*
X7157Y897D01*
X7166Y908D01*
X7175Y918D01*
X7185Y927D01*
X7195Y936D01*
X7206Y943D01*
X7217Y949D01*
X7229Y955D01*
X7241Y959D01*
X7253Y962D01*
X7265Y964D01*
X7279D01*
X7293D01*
X7307Y963D01*
X7320Y962D01*
X7333Y960D01*
X7344Y958D01*
X7353Y955D01*
X7361Y952D01*
X7368Y948D01*
X7372Y945D01*
X7375Y939D01*
X7502Y964D02*
X7598D01*
X7610D01*
X7622Y962D01*
X7635Y959D01*
X7647Y955D01*
X7658Y950D01*
X7670Y944D01*
X7680Y936D01*
X7691Y928D01*
X7701Y919D01*
X7710Y909D01*
X7718Y898D01*
X7726Y886D01*
X7733Y874D01*
X7739Y861D01*
X7744Y848D01*
X7749Y834D01*
X7752Y819D01*
X7755Y805D01*
X7756Y790D01*
X7757Y773D01*
X7756Y758D01*
X7755Y743D01*
X7753Y729D01*
X7749Y714D01*
X7745Y700D01*
X7740Y687D01*
X7734Y674D01*
X7727Y661D01*
X7719Y650D01*
X7711Y639D01*
X7702Y628D01*
X7692Y619D01*
X7682Y611D01*
X7671Y603D01*
X7660Y597D01*
X7648Y592D01*
X7636Y588D01*
X7624Y585D01*
X7612Y583D01*
X7598Y582D01*
X7502D01*
Y964D01*
X8139D02*
Y709D01*
G02X8012Y582I127J0D01*
X7884Y709I0J127D01*
G01Y964D01*
X8267Y582D02*
X8394Y964D01*
X8522Y582D01*
X8315Y709D02*
X8474D01*
X8649Y964D02*
Y582D01*
X8904D01*
X9669Y964D02*
X9414D01*
Y773D01*
X9541D01*
X9556D01*
X9570Y771D01*
X9584Y768D01*
X9598Y763D01*
X9610Y758D01*
X9622Y752D01*
X9633Y744D01*
X9642Y736D01*
X9651Y727D01*
X9657Y717D01*
X9663Y707D01*
X9666Y696D01*
X9669Y678D01*
X9668Y667D01*
X9666Y656D01*
X9661Y645D01*
X9656Y635D01*
X9649Y626D01*
X9640Y617D01*
X9630Y609D01*
X9619Y602D01*
X9607Y596D01*
X9594Y591D01*
X9581Y587D01*
X9567Y584D01*
X9541Y582D01*
X9527D01*
X9512Y583D01*
X9499Y585D01*
X9485Y588D01*
X9472Y591D01*
X9461Y595D01*
X9450Y599D01*
X9440Y604D01*
X9432Y610D01*
X9425Y615D01*
X9420Y622D01*
X9416Y628D01*
X9414Y639D01*
X9898Y607D02*
G02X9924Y633I25J0D01*
X9949Y607I0J25D01*
X9924Y582I25J0D01*
X9898Y607I0J25D01*
G01X10179Y869D02*
X10180Y880D01*
X10182Y890D01*
X10186Y901D01*
X10192Y911D01*
X10199Y920D01*
X10207Y929D01*
X10217Y937D01*
X10228Y944D01*
X10240Y951D01*
X10253Y956D01*
X10267Y960D01*
X10281Y962D01*
X10306Y964D01*
X10321D01*
X10335Y962D01*
X10349Y959D01*
X10362Y955D01*
X10375Y949D01*
X10387Y943D01*
X10398Y935D01*
X10407Y927D01*
X10415Y918D01*
X10422Y908D01*
X10427Y898D01*
X10431Y888D01*
X10434Y869D01*
X10433Y858D01*
X10430Y847D01*
X10426Y837D01*
X10421Y827D01*
X10413Y817D01*
X10405Y808D01*
X10395Y800D01*
X10384Y793D01*
X10372Y787D01*
X10359Y782D01*
X10345Y778D01*
X10331Y775D01*
X10306Y773D01*
X10321D01*
X10335Y771D01*
X10349Y768D01*
X10362Y763D01*
X10375Y758D01*
X10387Y752D01*
X10398Y744D01*
X10407Y736D01*
X10415Y727D01*
X10422Y717D01*
X10427Y707D01*
X10431Y696D01*
X10434Y678D01*
X10433Y667D01*
X10430Y656D01*
X10426Y645D01*
X10421Y635D01*
X10413Y626D01*
X10405Y617D01*
X10395Y609D01*
X10384Y602D01*
X10372Y596D01*
X10359Y591D01*
X10345Y587D01*
X10331Y584D01*
X10306Y582D01*
X10292Y583D01*
X10277Y584D01*
X10263Y588D01*
X10250Y592D01*
X10237Y597D01*
X10225Y604D01*
X10215Y611D01*
X10205Y619D01*
X10197Y628D01*
X10190Y638D01*
X10185Y648D01*
X10181Y659D01*
X10179Y678D01*
D17*
X4051Y11072D02*
X4583D01*
Y9931D01*
X4051D01*
Y11072D01*
X4598Y9125D02*
X5976D01*
Y8485D01*
X4598D01*
Y9125D01*
X4474Y2012D02*
X4923D01*
Y985D01*
X4474D01*
Y2012D01*
X11530Y1660D02*
X12556D01*
Y1211D01*
X11530D01*
Y1660D01*
X4989Y2748D02*
X5439D01*
Y1721D01*
X4989D01*
Y2748D01*
X7452Y12699D02*
X10602D01*
Y9549D01*
X7452D01*
Y12699D01*
X1482Y2687D02*
X2509D01*
Y2238D01*
X1482D01*
Y2687D01*
X12741Y1821D02*
X13768D01*
Y1372D01*
X12741D01*
Y1821D01*
X1489Y3270D02*
X2516D01*
Y2821D01*
X1489D01*
Y3270D01*
X3959Y2597D02*
X4408D01*
Y1570D01*
X3959D01*
Y2597D01*
X4987Y5077D02*
X5436D01*
Y4050D01*
X4987D01*
Y5077D01*
X12084Y8377D02*
X12533D01*
Y7350D01*
X12084D01*
Y8377D01*
X11483Y8931D02*
X11933D01*
Y7904D01*
X11483D01*
Y8931D01*
X13239Y7462D02*
X13689D01*
Y6436D01*
X13239D01*
Y7462D01*
X5405Y8329D02*
X5854D01*
Y7302D01*
X5405D01*
Y8329D01*
X6208Y9442D02*
X6657D01*
Y8416D01*
X6208D01*
Y9442D01*
X10498Y13280D02*
X11525D01*
Y12831D01*
X10498D01*
Y13280D01*
X5381Y13261D02*
X5830D01*
Y12235D01*
X5381D01*
Y13261D01*
X2856Y12558D02*
X3305D01*
Y11531D01*
X2856D01*
Y12558D01*
X3742D02*
X4191D01*
Y11531D01*
X3742D01*
Y12558D01*
X4628Y12469D02*
X5077D01*
Y11442D01*
X4628D01*
Y12469D01*
X1722Y12607D02*
X2748D01*
Y12158D01*
X1722D01*
Y12607D01*
X14001Y9223D02*
X15028D01*
Y8774D01*
X14001D01*
Y9223D01*
Y8633D02*
X15028D01*
Y8184D01*
X14001D01*
Y8633D01*
Y8045D02*
X15028D01*
Y7596D01*
X14001D01*
Y8045D01*
X13327Y9212D02*
X13776D01*
Y8185D01*
X13327D01*
Y9212D01*
X2580Y9258D02*
X3029D01*
Y8231D01*
X2580D01*
Y9258D01*
X5923Y10612D02*
X6372D01*
Y9585D01*
X5923D01*
Y10612D01*
X11167Y12650D02*
X12194D01*
Y12201D01*
X11167D01*
Y12650D01*
X13534Y1157D02*
X14560D01*
Y708D01*
X13534D01*
Y1157D01*
X1263Y10068D02*
X2290D01*
Y9619D01*
X1263D01*
Y10068D01*
X4987Y6298D02*
X5436D01*
Y5271D01*
X4987D01*
Y6298D01*
X3805Y6902D02*
X4832D01*
Y6453D01*
X3805D01*
Y6902D01*
X-1702Y8171D02*
X-403D01*
Y1452D01*
X-1702D01*
Y8171D01*
X6268Y13016D02*
X7295D01*
Y12567D01*
X6268D01*
Y13016D01*
X5931Y12265D02*
X6380D01*
Y11239D01*
X5931D01*
Y12265D01*
X5332Y10907D02*
X5782D01*
Y9880D01*
X5332D01*
Y10907D01*
X2627Y11343D02*
X3653D01*
Y10893D01*
X2627D01*
Y11343D01*
D18*
X2756Y2112D02*
X3445D01*
Y911D01*
X2756D01*
Y2112D01*
%LPC*%
D15*
X1998Y4075D03*
Y5075D03*
Y6075D03*
Y7075D03*
Y9063D03*
X2003Y8075D03*
D16*
X3837Y7784D03*
D19*
X3489Y6D03*
X4079Y9D03*
X4668Y-13D03*
X5258Y9D03*
X5851Y-13D03*
X6441Y9D03*
X7029Y6D03*
X7619Y9D03*
X8212Y2D03*
X8802Y5D03*
X9981D03*
X10573Y9D03*
X11163Y5D03*
X11752Y2D03*
X12342Y5D03*
X12936Y7D03*
X1718Y6D03*
X1127D03*
X537D03*
X2899D03*
X2308D03*
D20*
X6742Y13941D03*
D21*
X6615Y1686D03*
X6811D03*
X7008D03*
X7205D03*
X7402D03*
X7599D03*
X7796D03*
X7992D03*
X8189D03*
X8386D03*
X8583D03*
X8780D03*
X8977D03*
X9174D03*
X9370D03*
X9567D03*
X9764D03*
X9961D03*
X10158D03*
X10355D03*
X10552D03*
X10748D03*
X10945D03*
X11142D03*
X11339D03*
X6615Y7907D03*
X6811D03*
X7008D03*
X7205D03*
X7402D03*
X7599D03*
X7796D03*
X7992D03*
X8189D03*
X8386D03*
X8583D03*
X8780D03*
X8977D03*
X9174D03*
X9370D03*
X9567D03*
X9764D03*
X9961D03*
X10158D03*
X10355D03*
X10552D03*
X10748D03*
X10945D03*
X11142D03*
X11339D03*
D22*
X7944Y9457D03*
X8141D03*
X8338D03*
X8535D03*
X8732D03*
X8928D03*
X9125D03*
X9322D03*
X9519D03*
X9716D03*
X9913D03*
X10109D03*
X7944Y12803D03*
X8141D03*
X8338D03*
X8535D03*
X8732D03*
X8928D03*
X9125D03*
X9322D03*
X9519D03*
X9716D03*
X9913D03*
X10109D03*
D23*
X4559Y5966D03*
X4059D03*
X3559D03*
X3059D03*
X4559Y3840D03*
X4059D03*
X3559D03*
X3059D03*
D24*
X4690Y10143D03*
X3942Y10493D03*
X4690Y10843D03*
D25*
X4702Y1209D03*
Y1799D03*
X12334Y1439D03*
X11743D03*
X5217Y2528D03*
Y1938D03*
X1700Y2457D03*
X2290D03*
X13554Y1596D03*
X12964D03*
X1702Y3046D03*
X2293D03*
X4183Y1783D03*
Y2374D03*
X5212Y4864D03*
Y4273D03*
X12315Y8158D03*
Y7568D03*
X11704Y8132D03*
Y8722D03*
X13467Y6657D03*
Y7248D03*
X5632Y7524D03*
Y8114D03*
X6428Y8643D03*
Y9234D03*
X10720Y13053D03*
X11310D03*
X5602Y12462D03*
Y13053D03*
X3082Y11754D03*
Y12344D03*
X3968Y11754D03*
Y12344D03*
X4854Y11665D03*
Y12255D03*
X2531Y12384D03*
X1940D03*
X14224Y7817D03*
X14814D03*
X14224Y8407D03*
X14814D03*
X14224Y8998D03*
X14814D03*
X13554Y8407D03*
Y8998D03*
X2805Y9045D03*
Y8454D03*
X6152Y10384D03*
Y9793D03*
X11389Y12423D03*
X11980D03*
X13751Y927D03*
X14342D03*
X13751Y370D03*
X14342D03*
X1476Y9844D03*
X2067D03*
X5212Y6084D03*
Y5494D03*
X4027Y6675D03*
X4617D03*
X6496Y12795D03*
X7087D03*
X6152Y11467D03*
Y12057D03*
X5561Y10679D03*
Y10089D03*
X2854Y11122D03*
X3445D03*
D26*
X3642Y1871D03*
Y1123D03*
X2579Y1871D03*
Y1123D03*
Y1497D03*
D27*
X13908Y2829D03*
X13909Y3025D03*
Y3222D03*
Y3419D03*
Y3616D03*
Y3813D03*
Y4010D03*
Y4206D03*
Y4403D03*
Y4600D03*
Y4797D03*
Y4994D03*
Y5191D03*
Y5388D03*
Y5584D03*
Y5781D03*
Y5978D03*
Y2632D03*
Y6175D03*
Y2435D03*
D28*
X4893Y8801D03*
X5680D03*
D29*
X10700Y10047D03*
Y10244D03*
Y10441D03*
Y10638D03*
Y10835D03*
Y11032D03*
Y11229D03*
Y11425D03*
Y11622D03*
Y11819D03*
Y12016D03*
Y12213D03*
X7354Y10047D03*
Y10244D03*
Y10441D03*
Y10638D03*
Y10835D03*
Y11032D03*
Y11229D03*
Y11425D03*
Y11622D03*
Y11819D03*
Y12016D03*
Y12213D03*
D30*
X5866Y7159D03*
Y6962D03*
Y6765D03*
Y6568D03*
Y6371D03*
Y6175D03*
Y5978D03*
Y5781D03*
Y5584D03*
Y5387D03*
Y5190D03*
Y4994D03*
Y4797D03*
Y4600D03*
Y4403D03*
Y4206D03*
Y4009D03*
Y3812D03*
Y3616D03*
Y3419D03*
Y3222D03*
Y3025D03*
Y2828D03*
Y2631D03*
Y2434D03*
X12087Y7159D03*
Y6962D03*
Y6765D03*
Y6568D03*
Y6371D03*
Y6175D03*
Y5978D03*
Y5781D03*
Y5584D03*
Y5387D03*
Y5190D03*
Y4994D03*
Y4797D03*
Y4600D03*
Y4403D03*
Y4206D03*
Y4009D03*
Y3812D03*
Y3616D03*
Y3419D03*
Y3222D03*
Y3025D03*
Y2828D03*
Y2631D03*
Y2434D03*
D31*
X12491Y13534D03*
X15011D03*
X13358D03*
X14184D03*
D32*
X-492Y2511D03*
Y2905D03*
Y3298D03*
Y3692D03*
Y4086D03*
Y4480D03*
Y4873D03*
Y5267D03*
Y5661D03*
Y6054D03*
X-1590Y2708D03*
Y3102D03*
Y3495D03*
Y3889D03*
Y4283D03*
Y4676D03*
Y5070D03*
Y5464D03*
Y5858D03*
Y6251D03*
Y6645D03*
X-492Y6448D03*
X-1590Y7039D03*
X-492Y6842D03*
D33*
X15208Y11281D03*
Y12108D03*
X1737Y11634D03*
Y10807D03*
D34*
X-1041Y1651D03*
Y7943D03*
D35*
X14802Y1798D03*
Y6812D03*
%LPD*%
D17*
X443Y13939D02*
X15627D01*
X15625Y1067D01*
X14750D01*
Y0D01*
X0D01*
Y285D01*
X-2116D01*
Y11713D01*
X443Y13939D01*
M02*
