G04*
G04 Format:               Gerber RS-274X*
G04 Export Settings:      OSH Park*
G04 Layer:                TopSolderMask*
G04 This File Name:       GC_DUAL_FINAL_testffc_ADV.gts*
G04 Source File Name:     GC_DUAL_FINAL_testffc_ADV.rrb*
G04 Unique ID:            4e2d7a6f-c949-47f3-acdd-e5fe3011063f*
G04 Generated Date:       Friday, 30 March 2018 12:58:07*
G04*
G04 Created Using:        Robot Room Copper Connection v3.0.5875*
G04 Software Contact:     http://www.robotroom.com/CopperConnection/Support.aspx*
G04 License Number:       1880*
G04*
G04 Zero Suppression:     Leading*
G04 Number Precision:     2.4*
G04*
G04 Polarity:             Negative. Dark is solderable. Clear space is coating.*
G04*
%FSLAX24Y24*%
%MOIN*%
%LNTopSolderMask*%
%ADD10C,.0671*%
%ADD11C,.1498*%
%ADD12R,.006X.006*%
%ADD13R,.0553X.0553*%
%ADD14R,.0651X.0651*%
%ADD15R,.021X.0691*%
%ADD16R,.0218X.0651*%
%ADD17R,.0336X.071*%
%ADD18R,.0454X.0376*%
%ADD19R,.0454X.0454*%
%ADD20R,.0494X.0297*%
%ADD21R,.0592X.0218*%
%ADD22R,.0631X.071*%
%ADD23R,.0651X.0218*%
%ADD24R,.0691X.021*%
%ADD25R,.0703X.0887*%
%ADD26R,.073X.0257*%
%ADD27R,.0887X.0703*%
%ADD28R,.1045X.0809*%
%ADD29R,.1281X.0887*%
G36*
G01X13041Y12314D02*
X13711D01*
Y11645D01*
X13041D01*
Y12314D01*
G37*
G36*
X3283Y9955D02*
X3676D01*
Y9365D01*
X3283D01*
Y9955D01*
G37*
D10*
X1998Y4075D03*
Y5075D03*
Y6075D03*
Y7075D03*
Y9063D03*
X2003Y8075D03*
D11*
X3837Y7784D03*
D13*
X3489Y6D03*
X4079Y9D03*
X4668Y-13D03*
X5258Y9D03*
X5851Y-13D03*
X6441Y9D03*
X7029Y6D03*
X7619Y9D03*
X8212Y2D03*
X8802Y5D03*
X9981D03*
X10573Y9D03*
X11163Y5D03*
X11752Y2D03*
X12342Y5D03*
X12936Y7D03*
X1718Y6D03*
X1127D03*
X537D03*
X2899D03*
X2308D03*
D14*
X6742Y13941D03*
D15*
X6615Y1686D03*
X6811D03*
X7008D03*
X7205D03*
X7402D03*
X7599D03*
X7796D03*
X7992D03*
X8189D03*
X8386D03*
X8583D03*
X8780D03*
X8977D03*
X9174D03*
X9370D03*
X9567D03*
X9764D03*
X9961D03*
X10158D03*
X10355D03*
X10552D03*
X10748D03*
X10945D03*
X11142D03*
X11339D03*
X6615Y7907D03*
X6811D03*
X7008D03*
X7205D03*
X7402D03*
X7599D03*
X7796D03*
X7992D03*
X8189D03*
X8386D03*
X8583D03*
X8780D03*
X8977D03*
X9174D03*
X9370D03*
X9567D03*
X9764D03*
X9961D03*
X10158D03*
X10355D03*
X10552D03*
X10748D03*
X10945D03*
X11142D03*
X11339D03*
D16*
X7944Y9457D03*
X8141D03*
X8338D03*
X8535D03*
X8732D03*
X8928D03*
X9125D03*
X9322D03*
X9519D03*
X9716D03*
X9913D03*
X10109D03*
X7944Y12803D03*
X8141D03*
X8338D03*
X8535D03*
X8732D03*
X8928D03*
X9125D03*
X9322D03*
X9519D03*
X9716D03*
X9913D03*
X10109D03*
D17*
X4559Y5966D03*
X4059D03*
X3559D03*
X3059D03*
X4559Y3840D03*
X4059D03*
X3559D03*
X3059D03*
D18*
X4690Y10143D03*
X3942Y10493D03*
X4690Y10843D03*
D19*
X4702Y1209D03*
Y1799D03*
X12334Y1439D03*
X11743D03*
X5217Y2528D03*
Y1938D03*
X1700Y2457D03*
X2290D03*
X13554Y1596D03*
X12964D03*
X1702Y3046D03*
X2293D03*
X4183Y1783D03*
Y2374D03*
X5212Y4864D03*
Y4273D03*
X12315Y8158D03*
Y7568D03*
X11704Y8132D03*
Y8722D03*
X13467Y6657D03*
Y7248D03*
X5632Y7524D03*
Y8114D03*
X6428Y8643D03*
Y9234D03*
X10720Y13053D03*
X11310D03*
X5602Y12462D03*
Y13053D03*
X3082Y11754D03*
Y12344D03*
X3968Y11754D03*
Y12344D03*
X4854Y11665D03*
Y12255D03*
X2531Y12384D03*
X1940D03*
X14224Y7817D03*
X14814D03*
X14224Y8407D03*
X14814D03*
X14224Y8998D03*
X14814D03*
X13554Y8407D03*
Y8998D03*
X2805Y9045D03*
Y8454D03*
X6152Y10384D03*
Y9793D03*
X11389Y12423D03*
X11980D03*
X13751Y927D03*
X14342D03*
X13751Y370D03*
X14342D03*
X1476Y9844D03*
X2067D03*
X5212Y6084D03*
Y5494D03*
X4027Y6675D03*
X4617D03*
X6496Y12795D03*
X7087D03*
X6152Y11467D03*
Y12057D03*
X5561Y10679D03*
Y10089D03*
X2854Y11122D03*
X3445D03*
D20*
X3642Y1871D03*
Y1123D03*
X2579Y1871D03*
Y1123D03*
Y1497D03*
D21*
X13908Y2829D03*
X13909Y3025D03*
Y3222D03*
Y3419D03*
Y3616D03*
Y3813D03*
Y4010D03*
Y4206D03*
Y4403D03*
Y4600D03*
Y4797D03*
Y4994D03*
Y5191D03*
Y5388D03*
Y5584D03*
Y5781D03*
Y5978D03*
Y2632D03*
Y6175D03*
Y2435D03*
D22*
X4893Y8801D03*
X5680D03*
D23*
X10700Y10047D03*
Y10244D03*
Y10441D03*
Y10638D03*
Y10835D03*
Y11032D03*
Y11229D03*
Y11425D03*
Y11622D03*
Y11819D03*
Y12016D03*
Y12213D03*
X7354Y10047D03*
Y10244D03*
Y10441D03*
Y10638D03*
Y10835D03*
Y11032D03*
Y11229D03*
Y11425D03*
Y11622D03*
Y11819D03*
Y12016D03*
Y12213D03*
D24*
X5866Y7159D03*
Y6962D03*
Y6765D03*
Y6568D03*
Y6371D03*
Y6175D03*
Y5978D03*
Y5781D03*
Y5584D03*
Y5387D03*
Y5190D03*
Y4994D03*
Y4797D03*
Y4600D03*
Y4403D03*
Y4206D03*
Y4009D03*
Y3812D03*
Y3616D03*
Y3419D03*
Y3222D03*
Y3025D03*
Y2828D03*
Y2631D03*
Y2434D03*
X12087Y7159D03*
Y6962D03*
Y6765D03*
Y6568D03*
Y6371D03*
Y6175D03*
Y5978D03*
Y5781D03*
Y5584D03*
Y5387D03*
Y5190D03*
Y4994D03*
Y4797D03*
Y4600D03*
Y4403D03*
Y4206D03*
Y4009D03*
Y3812D03*
Y3616D03*
Y3419D03*
Y3222D03*
Y3025D03*
Y2828D03*
Y2631D03*
Y2434D03*
D25*
X12491Y13534D03*
X15011D03*
X13358D03*
X14184D03*
D26*
X-492Y2511D03*
Y2905D03*
Y3298D03*
Y3692D03*
Y4086D03*
Y4480D03*
Y4873D03*
Y5267D03*
Y5661D03*
Y6054D03*
X-1590Y2708D03*
Y3102D03*
Y3495D03*
Y3889D03*
Y4283D03*
Y4676D03*
Y5070D03*
Y5464D03*
Y5858D03*
Y6251D03*
Y6645D03*
X-492Y6448D03*
X-1590Y7039D03*
X-492Y6842D03*
D27*
X15208Y11281D03*
Y12108D03*
X1737Y11634D03*
Y10807D03*
D28*
X-1041Y1651D03*
Y7943D03*
D29*
X14802Y1798D03*
Y6812D03*
M02*
