G04*
G04 Format:               Gerber RS-274X*
G04 Export Settings:      OSH Park*
G04 Layer:                TopCopper*
G04 This File Name:       GC_DUAL_FINAL_testffc_ADV.gtl*
G04 Source File Name:     GC_DUAL_FINAL_testffc_ADV.rrb*
G04 Unique ID:            4e2d7a6f-c949-47f3-acdd-e5fe3011063f*
G04 Generated Date:       Friday, 30 March 2018 12:58:07*
G04*
G04 Created Using:        Robot Room Copper Connection v3.0.5875*
G04 Software Contact:     http://www.robotroom.com/CopperConnection/Support.aspx*
G04 License Number:       1880*
G04*
G04 Zero Suppression:     Leading*
G04 Number Precision:     2.4*
G04*
%FSLAX24Y24*%
%MOIN*%
%LNTopCopper*%
%ADD10C,.0063*%
%ADD11C,.007*%
%ADD12C,.008*%
%ADD13C,.01*%
%ADD14C,.011*%
%ADD15C,.0118*%
%ADD16C,.012*%
%ADD17C,.015*%
%ADD18C,.02*%
%ADD19C,.0236*%
%ADD20C,.0248*%
%ADD21C,.0256*%
%ADD22C,.0263*%
%ADD23C,.027*%
%ADD24C,.028*%
%ADD25C,.03*%
%ADD26C,.031*%
%ADD27C,.0318*%
%ADD28C,.032*%
%ADD29C,.035*%
%ADD30C,.04*%
%ADD31C,.0436*%
%ADD32C,.0448*%
%ADD33C,.0456*%
%ADD34C,.0571*%
%ADD35C,.0771*%
%ADD36C,.1398*%
%ADD37C,.1598*%
%ADD38R,.006X.006*%
%ADD39R,.0079X.0079*%
%ADD40R,.0453X.0453*%
%ADD41R,.0551X.0551*%
%ADD42R,.0653X.0653*%
%ADD43R,.011X.0591*%
%ADD44R,.0118X.0551*%
%ADD45R,.0236X.061*%
%ADD46R,.031X.0791*%
%ADD47R,.0318X.0751*%
%ADD48R,.0354X.0276*%
%ADD49R,.0354X.0354*%
%ADD50R,.0394X.0197*%
%ADD51R,.0436X.081*%
%ADD52R,.0492X.0118*%
%ADD53R,.0531X.061*%
%ADD54R,.0551X.0118*%
%ADD55R,.0554X.0476*%
%ADD56R,.0554X.0554*%
%ADD57R,.0591X.011*%
%ADD58R,.0594X.0397*%
%ADD59R,.0603X.0787*%
%ADD60R,.063X.0157*%
%ADD61R,.0692X.0318*%
%ADD62R,.0731X.081*%
%ADD63R,.0751X.0318*%
%ADD64R,.0787X.0603*%
%ADD65R,.0791X.031*%
%ADD66R,.0803X.0987*%
%ADD67R,.083X.0357*%
%ADD68R,.0945X.0709*%
%ADD69R,.0987X.0803*%
%ADD70R,.1181X.0787*%
%AMTHERMAL*7,0,0,$1,$1-$2-$2,$2,0*%
%ADD71THERMAL,.0728X.0079*%
G36*
G01X443Y13879D02*
X15627Y13891D01*
X15625Y1019D01*
X14750D01*
Y-48D01*
X0D01*
Y237D01*
X-2116D01*
Y11665D01*
X443Y13879D01*
G37*
%LPC*%
G36*
X12019Y14037D02*
X15714D01*
Y12854D01*
X12019D01*
Y14037D01*
G37*
G36*
X14611Y13090D02*
X15720D01*
Y10809D01*
X14611D01*
Y13090D01*
G37*
G36*
X1107Y12027D02*
X2367D01*
Y10334D01*
X1107D01*
Y12027D01*
G37*
D71*
X1998Y9063D03*
D18*
X3674Y9961D02*
Y9434D01*
X3297Y9961D01*
X3674D01*
X3280Y9365D02*
Y9892D01*
X3657Y9365D01*
X3280D01*
X13707Y11645D02*
X13103D01*
X13707Y12250D01*
Y11645D01*
X13039Y12309D02*
X13643D01*
X13039Y11705D01*
Y12309D01*
D22*
X11752Y2D02*
X11350Y533D01*
X8802Y5D02*
X9371Y612D01*
X8212Y2D02*
X8514Y395D01*
X7619Y9D02*
X7776Y395D01*
X7029Y6D02*
X7333Y543D01*
X6441Y9D02*
X6791Y690D01*
X8514Y395D02*
X8849D01*
X7776D02*
X8287D01*
X8780Y1006D01*
X7333Y543D02*
X8172D01*
X8583Y1045D01*
X6791Y690D02*
X8037D01*
X5851Y-13D02*
X6348Y838D01*
X7921D01*
X5258Y9D02*
X5906Y985D01*
X7562D01*
X13053Y3812D02*
X13568Y4600D01*
X12909Y4206D02*
X13594Y5191D01*
X12848Y4403D02*
X13527Y5388D01*
X13587Y5781D02*
X13909D01*
X13521Y5978D02*
X13909D01*
X13062Y6234D02*
Y9140D01*
X10700Y12016D02*
X12373D01*
X12570Y11793D01*
X12413Y9533D02*
Y11636D01*
X12255Y11819D01*
X10700D01*
X12255Y9415D02*
Y11360D01*
X12019Y11622D01*
X10700D01*
X12098Y11203D02*
X11861Y11425D01*
X10700D01*
X11940Y11045D02*
X11743Y11229D01*
X10700D01*
X11783Y9700D02*
Y10888D01*
X11586Y11032D01*
X10700D01*
X11625Y9760D02*
Y10691D01*
X11468Y10835D01*
X10700D01*
X12904Y9061D02*
X12413Y9533D01*
X12767Y7020D02*
Y8943D01*
X12255Y9415D01*
X12087Y6962D02*
X12413D01*
X11940Y9592D02*
Y11045D01*
X10552Y8739D02*
X11625Y9760D01*
X10355Y8804D02*
X11468Y9832D01*
Y10564D01*
X11310Y10638D01*
X10700D01*
X9764Y7907D02*
Y8423D01*
X7796Y7907D02*
X7806Y8683D01*
X9125Y8978D02*
Y9457D01*
X8583Y8491D02*
Y7907D01*
X8731Y9006D02*
X8732Y9457D01*
X8386Y7907D02*
Y8527D01*
X8809Y11171D02*
X8646Y11032D01*
X8292Y11426D02*
X8714Y11832D01*
X9263D01*
X8437Y11229D02*
X8724Y11518D01*
X8646Y11032D02*
X7354D01*
X8169Y10835D02*
X8563Y10672D01*
X12570Y9651D02*
Y11793D01*
X13062Y9140D02*
X12570Y9651D01*
X12904Y9061D02*
X12924Y6313D01*
X12650Y5978D01*
X12767Y7020D02*
X12452Y6765D01*
X9567Y8364D02*
X9400Y8563D01*
X8535Y9055D02*
Y9457D01*
X8338Y9130D02*
X8197Y8958D01*
X7706Y10441D02*
X7885Y10297D01*
X6861Y9667D02*
Y9905D01*
X6980Y10048D02*
X7354Y10047D01*
X12491Y12462D02*
Y13534D01*
X5364Y1133D02*
X4668Y-13D01*
X9981Y5D02*
X9961Y298D01*
X10355Y1686D02*
Y306D01*
X9074Y12187D02*
X9322Y12384D01*
X9074Y12187D02*
X9125Y12403D01*
X7031Y10244D02*
X6822Y10374D01*
X9322Y12384D02*
Y12803D01*
X1737Y11634D02*
X2264Y11222D01*
X12958Y11240D02*
X13555Y10837D01*
X14224Y8998D02*
Y8407D01*
Y7817D01*
X13554Y8998D02*
X14224D01*
X13909Y3419D02*
X14499Y3407D01*
X13908Y2829D02*
X14145Y2817D01*
X14499Y3407D02*
X14657Y3525D01*
X10110Y9104D02*
X9843Y8711D01*
X13909Y3222D02*
X14972D01*
X8724Y11518D02*
X8987D01*
X12087Y3025D02*
X11192D01*
X12087Y3419D02*
X11586Y3407D01*
X13527Y5388D02*
X13909D01*
X13594Y5191D02*
X13909D01*
X13524Y4797D02*
X13909D01*
X13568Y4600D02*
X13909D01*
X13501Y4206D02*
X13909D01*
X13581Y4010D02*
X13909D01*
X12087Y5190D02*
X12562D01*
X12905Y5637D01*
X10945Y1686D02*
X10956Y2069D01*
X13497Y2632D02*
X13909D01*
X14381Y2620D01*
X12901Y2631D02*
X12087D01*
X12822Y2828D02*
X12087D01*
X13524Y4797D02*
X12983Y4009D01*
X13053Y3812D02*
X12087D01*
X12983Y4009D02*
X12087D01*
X12909Y4206D02*
X12087D01*
X12848Y4403D02*
X12087D01*
Y4797D02*
X12891D01*
X13587Y5781D01*
X13521Y5978D02*
X12803Y4993D01*
X12087Y4994D01*
Y5584D02*
X11192D01*
X12087Y5781D02*
X12690D01*
X11940Y9592D02*
X10945Y8650D01*
X11783Y9700D02*
X10748Y8683D01*
X10552Y8739D02*
Y7907D01*
X10355Y8804D02*
Y7907D01*
X8977D02*
Y8730D01*
X7205Y7907D02*
Y7159D01*
X6615Y7907D02*
Y7159D01*
X10748Y857D02*
Y1686D01*
X11163Y5D02*
X10552Y756D01*
Y1686D01*
X10355Y306D02*
X10573Y9D01*
X9567Y1686D02*
X9578Y2271D01*
X5866Y7159D02*
X6615D01*
X5866Y5978D02*
X6232D01*
X5866Y5584D02*
X6497D01*
X5866Y5387D02*
X6521D01*
X5866Y5190D02*
X6533D01*
X5866Y4994D02*
X6541Y4993D01*
X5866Y4403D02*
X8484D01*
X5866Y2434D02*
X6603D01*
X12690Y5781D02*
X13062Y6234D01*
X12650Y5978D02*
X12087D01*
X12452Y6765D02*
X12087D01*
X12098Y9297D02*
Y11203D01*
X12609Y8825D02*
X12098Y9297D01*
X12609Y7113D02*
Y8825D01*
X12413Y6962D02*
X12609Y7113D01*
X10945Y8650D02*
Y7907D01*
X10748Y8683D02*
Y7907D01*
X9567D02*
Y8364D01*
X9174Y7907D02*
Y8704D01*
X7806Y8683D02*
X7885Y8801D01*
X5866Y4206D02*
X8869D01*
X5866Y3812D02*
X9106D01*
X5866Y2631D02*
X6543D01*
X6615Y1686D02*
X6299Y1478D01*
X7008Y1686D02*
Y1969D01*
X7402Y1686D02*
X7413Y2042D01*
X12087Y3616D02*
X12452Y3604D01*
X12087Y6568D02*
X11625Y6557D01*
X10158Y7907D02*
Y8877D01*
X10488Y9208D01*
X5866Y4600D02*
X4932Y4588D01*
X9371Y612D02*
X9370Y1686D01*
X9174Y783D02*
Y1686D01*
X8780Y1006D02*
Y1686D01*
X8583Y1045D02*
Y1686D01*
X8386Y1110D02*
Y1686D01*
X7921Y838D02*
X8189Y1183D01*
X7562Y985D02*
X7796Y1281D01*
X8037Y690D02*
X8386Y1110D01*
X8189Y1183D02*
Y1686D01*
X7796Y1281D02*
Y1686D01*
X5364Y1133D02*
X7448D01*
X7599Y1329D01*
X6543Y2631D02*
X7223Y3339D01*
X9681Y3348D01*
X6603Y2434D02*
X7333Y3200D01*
X6811Y1686D02*
Y2256D01*
X12452Y3604D02*
X12649Y3526D01*
X12901Y2631D02*
X13289Y3223D01*
X12822Y2828D02*
X13131Y3301D01*
X13289Y3565D02*
X13581Y4010D01*
X13131Y3643D02*
X13501Y4206D01*
X10956Y2069D02*
X11074Y2187D01*
X12452D01*
X9961Y298D02*
Y1686D01*
X8849Y395D02*
X9174Y783D01*
X7599Y1329D02*
Y1686D01*
X13368Y2502D02*
X13497Y2632D01*
X13446Y2344D02*
X13565Y2435D01*
X13909D01*
X14342Y927D02*
Y370D01*
X13751D02*
X13121Y927D01*
X12205Y936D01*
X11350Y533D02*
X11035D01*
X10748Y857D01*
X7413Y2042D02*
X8219Y3052D01*
X9449D01*
X6811Y2256D02*
X7087Y2560D01*
X7008Y1969D02*
X7579Y2689D01*
X7205Y1686D02*
Y1330D01*
X5866Y2828D02*
X5484D01*
X5217Y2528D01*
X4313Y2806D02*
X3928Y3102D01*
X5866Y3419D02*
X5555D01*
X5043Y3840D01*
X4559D01*
X9578Y2271D02*
X9203Y2806D01*
X9764Y1686D02*
X9744Y2806D01*
X5866Y3222D02*
X6693D01*
X3297Y3298D02*
X3059Y3840D01*
X3061Y4547D01*
X2510Y5059D01*
X5866Y6962D02*
X5528Y6951D01*
X4814Y7266D02*
X4342Y6951D01*
X11625Y6557D02*
X11468Y6675D01*
X4342Y6951D02*
Y6360D01*
X5866Y6568D02*
X6192D01*
X5866Y6371D02*
X6192D01*
X5866Y6175D02*
X6192D01*
X12087Y7159D02*
X12315Y7568D01*
X12005Y7826D01*
X4932Y4588D02*
X4814Y4510D01*
X5866Y6765D02*
X5484D01*
X6389Y6911D02*
X6615Y7159D01*
X6192Y6175D02*
X6389Y6360D01*
Y6557D02*
Y6360D01*
X6192Y6371D02*
X6389Y6557D01*
X6192Y6568D02*
X6389Y6793D01*
Y6557D01*
Y6793D02*
Y6911D01*
X6232Y5978D02*
X6507Y6084D01*
X5866Y5781D02*
X6783D01*
X6861Y9905D02*
X6980Y10048D01*
X6675Y5455D02*
X7058D01*
X6821Y5179D02*
X7373D01*
X6913Y4903D02*
X7688D01*
X6974Y4667D02*
X8003D01*
X6541Y4993D02*
X6974Y4667D01*
X6533Y5190D02*
X6913Y4903D01*
X6521Y5387D02*
X6821Y5179D01*
X6497Y5584D02*
X6675Y5455D01*
X8869Y4206D02*
X9106Y4445D01*
X9655Y3632D02*
X9421Y3616D01*
X9370Y7907D02*
X9371Y6371D01*
X10488Y9208D02*
Y9667D01*
X9764Y8423D02*
X9596Y8628D01*
Y8803D01*
X9400Y8563D02*
Y8809D01*
X8977Y8730D02*
X9125Y8978D01*
X8928Y9017D02*
X8583Y8491D01*
X8386Y8527D02*
X8731Y9006D01*
X8189Y7907D02*
Y7502D01*
X8197Y8958D02*
X7728D01*
X7609Y8762D01*
X7599Y7907D01*
X8314Y8801D02*
X8535Y9055D01*
X7885Y8801D02*
X8314D01*
X12688Y1124D02*
X13436D01*
X13751Y927D01*
X5484Y6765D02*
X5293Y6557D01*
X8189Y7502D02*
X8318Y7344D01*
Y6832D01*
X4539Y4510D02*
X4318Y4785D01*
X4449Y5140D01*
X3554Y4347D02*
X3559Y3840D01*
X3909Y5140D02*
X4066Y5297D01*
X4059Y5966D01*
X4499Y5415D02*
X4539Y5651D01*
X4559Y5966D01*
X4342Y6360D02*
X4559Y5966D01*
X5528Y6951D02*
X5247Y7266D01*
X5866Y6175D02*
X5477D01*
X13948Y11990D02*
X13515Y11832D01*
X13131Y3301D02*
Y3643D01*
X13289Y3223D02*
Y3565D01*
X8484Y4403D02*
X8830Y4753D01*
X9106Y3812D02*
X9381Y3919D01*
X9421Y3616D02*
X5866D01*
X13467Y7817D02*
Y7248D01*
X12452Y2187D02*
X12609Y2502D01*
X13368D01*
X12334Y1911D02*
X12531D01*
X12728Y2344D02*
X13446D01*
X12334Y1439D02*
X12688Y1124D01*
X12531Y1911D02*
X12728Y2344D01*
X5247Y7266D02*
X4814D01*
X4951Y6954D02*
X4617Y6675D01*
X4449Y5140D02*
X4854D01*
X5212Y5494D01*
X4814Y4510D02*
X4539D01*
X2411Y9499D02*
X2067Y9844D01*
X12255Y8565D02*
X12315Y8158D01*
X14145Y2817D02*
X14263Y2895D01*
X15247D01*
Y8998D02*
X14814D01*
X15247Y8407D02*
X14814D01*
X15247Y7817D02*
X14814D01*
X2218Y10807D02*
X1737D01*
X15011Y13534D02*
X15169Y12856D01*
X14578Y12108D02*
X15208D01*
X14578Y11281D02*
X15208D01*
X1476Y9844D02*
X1083D01*
X1940Y12384D02*
X1344Y12382D01*
X591Y12255D02*
Y1073D01*
X443Y12452D02*
Y939D01*
X2899Y6D02*
X2330Y689D01*
X1777D01*
X886Y9598D02*
Y1281D01*
X2608Y4551D02*
X1998Y5075D01*
X2608Y3500D02*
Y4551D01*
X3928Y3102D02*
X2904D01*
X2510Y5059D02*
Y5728D01*
X1998Y6075D01*
X886Y1281D02*
X1777Y689D01*
X13555Y10837D02*
X13554Y8998D01*
X1344Y12382D02*
X738Y11911D01*
Y1182D02*
Y9844D01*
X1718Y6D02*
X1501Y374D01*
X591Y1073D01*
X5477Y6175D02*
X5212Y6084D01*
X2218Y10807D02*
X2854Y9795D01*
X11704Y8722D02*
X11467Y8732D01*
X12005Y7826D02*
Y8456D01*
X11704Y8722D01*
X11467Y8732D02*
X11270Y8495D01*
X1083Y11714D02*
X886Y11369D01*
X1033Y1428D02*
X1821Y887D01*
X2718D01*
X3489Y6D01*
X1033Y8859D02*
Y1428D01*
X3494Y1478D02*
X6299D01*
X2953Y2117D02*
X3494Y1478D01*
X2965Y2568D02*
X2953Y2117D01*
X7113Y1281D02*
X4921D01*
X7205Y1330D02*
X7113Y1281D01*
X4921D02*
X4702Y1209D01*
X2904Y3102D02*
X2608Y3500D01*
X4702Y1799D02*
X5217Y1938D01*
X4608Y3102D02*
X4279Y3298D01*
X9449Y3052D02*
X9744Y2806D01*
X7333Y3200D02*
X9744D01*
X7579Y2689D02*
Y2806D01*
X295Y12698D02*
Y777D01*
X1772Y9526D02*
X1033Y8859D01*
X1772Y10065D02*
Y9526D01*
X886Y10483D02*
X1083Y10237D01*
Y9844D02*
X886Y9598D01*
X1526Y10237D02*
X1772Y10065D01*
X1083Y10237D02*
X1526D01*
X886Y11369D02*
Y10483D01*
X-1821Y2708D02*
Y1236D01*
X-1624Y1084D01*
X0D01*
X12491Y13534D02*
X12418Y13584D01*
X12008Y13682D01*
X985Y13535D02*
X-1821Y11025D01*
Y7383D01*
X-1590Y7039D01*
X738Y9844D02*
X872Y10041D01*
X738Y10237D02*
Y11911D01*
X872Y10041D02*
X738Y10237D01*
X-1590Y6645D02*
X-1132D01*
X2264Y11222D02*
X2862Y10326D01*
X4279Y3298D02*
X3297D01*
X5217Y1938D02*
X4859Y2280D01*
Y3298D02*
X4559Y3840D01*
X4859Y2280D02*
Y3298D01*
X9125Y12403D02*
Y12803D01*
X9976Y3594D02*
X10285D01*
X9681Y3348D02*
X9976Y3594D01*
X9744Y3200D02*
X9970Y3270D01*
X295Y777D02*
X541Y543D01*
X0Y1084D02*
X295Y777D01*
X8233Y13535D02*
X985D01*
X8381Y13682D02*
X8233Y13535D01*
X12008Y13682D02*
X8381D01*
X10109Y9457D02*
X10110Y9104D01*
X9913Y9457D02*
Y10140D01*
X10010Y10048D02*
X10700Y10047D01*
X9596Y8803D02*
X9716Y8951D01*
Y9457D01*
X9400Y8809D02*
X9519Y9002D01*
Y9457D01*
X9174Y8704D02*
X9322Y8957D01*
X8928Y9457D02*
Y9017D01*
X8338Y9457D02*
Y9130D01*
X9322Y8957D02*
Y9457D01*
X9913Y10140D02*
X10010Y10048D01*
X10700Y12213D02*
X10379D01*
X10089Y12008D01*
Y11663D01*
X7354Y10244D02*
X7031D01*
X7354Y10441D02*
X7706D01*
X7354Y10638D02*
X7953D01*
X7354Y10835D02*
X8169D01*
X7354Y11229D02*
X8437D01*
X7354Y11425D02*
X8292Y11426D01*
X7953Y10638D02*
X8161Y10529D01*
X7354Y12213D02*
X7234Y12402D01*
X6841D01*
X6152Y12057D02*
X6644Y11762D01*
Y10925D01*
X5561Y10679D02*
X5118D01*
X4690Y10843D01*
X6841Y12402D02*
X6496Y12795D01*
X2854Y11122D02*
X3150Y10433D01*
Y9744D01*
X3396Y9498D01*
X3445Y10335D02*
Y10089D01*
X3543Y9793D01*
D23*
X6152Y12057D02*
X6102Y12122D01*
X5640Y11527D02*
X5285Y11802D01*
X8732Y12803D02*
Y13097D01*
X8928Y13349D01*
X7880Y13387D02*
X5955D01*
X5602Y13053D01*
X8141Y13132D02*
X7880Y13387D01*
X7874Y13189D02*
X7944Y13091D01*
X5602Y12462D02*
Y11951D01*
X6152Y11467D01*
X3515Y12344D02*
X3082D01*
X4421D02*
X3968D01*
X4854Y12255D02*
Y12697D01*
X5287Y11995D02*
X4854Y12255D01*
X5285Y11802D02*
X5287Y11995D01*
X2531Y12384D02*
Y11580D01*
X2854Y11122D01*
X3082Y12344D02*
X2785Y12854D01*
X1265D02*
X591Y12255D01*
X2785Y12854D02*
X1265D01*
X3968Y12344D02*
X3966Y12697D01*
X3651Y13051D02*
X1107D01*
X3966Y12697D02*
X3651Y13051D01*
X4854Y12697D02*
X4281Y13208D01*
X847D01*
X1107Y13051D02*
X443Y12452D01*
X847Y13208D02*
X295Y12698D01*
X2308Y6D02*
X1993Y492D01*
X1698D01*
X738Y1182D01*
X1127Y6D02*
X1122Y413D01*
X443Y939D01*
X-961Y2257D02*
X-1033Y2462D01*
Y2856D01*
X-1411Y3102D01*
X-1590D01*
Y2708D02*
X-1821D01*
X541Y543D02*
X537Y6D01*
X-492Y2511D02*
X0D01*
X-492Y2905D02*
X0D01*
X-492Y3298D02*
X0D01*
X-492Y3692D02*
X0D01*
X-492Y4086D02*
X0D01*
X-492Y4480D02*
X0D01*
X-492Y4873D02*
X0D01*
X-492Y5267D02*
X0D01*
X-1590Y3495D02*
X-1132D01*
X-1590Y3889D02*
X-1132D01*
X-1590Y4283D02*
X-1132D01*
X-1590Y4676D02*
X-1132D01*
X-1590Y5070D02*
X-1132D01*
X-1590Y5464D02*
X-1132D01*
X-1590Y5858D02*
X-1132D01*
X-1590Y6251D02*
X-1132D01*
X9519Y12803D02*
Y13294D01*
X7944Y13091D02*
Y12803D01*
X8141D02*
Y13132D01*
X8338Y12803D02*
Y13123D01*
X8465Y13337D01*
X6102Y12122D02*
Y13053D01*
X6152Y11467D02*
Y10974D01*
X6242Y13189D02*
X7874D01*
X6102Y13053D02*
X6242Y13189D01*
X3445Y11122D02*
Y10335D01*
D24*
X4066Y4273D02*
X5212D01*
X5866Y4797D02*
X6232D01*
X6468Y4667D01*
D25*
X9762Y12006D02*
X9475Y12187D01*
X9762Y12006D02*
X10720Y13053D02*
X10326Y12423D01*
X9475Y12187D02*
X9074D01*
X9762Y10297D02*
Y12006D01*
X10326Y12423D02*
X9762Y12006D01*
X10326Y12423D02*
X11389D01*
X9744Y2806D02*
X10856D01*
X13987Y10730D02*
X14260Y11085D01*
Y13340D01*
X12964Y2069D02*
Y1596D01*
X10856Y2806D02*
X11192Y2502D01*
X4183Y1783D02*
X3937Y1871D01*
X3642D01*
X9762Y10297D02*
X9913Y10140D01*
D26*
X12087Y6371D02*
X10424D01*
X12087D02*
X12452Y6360D01*
X12609Y6518D01*
D27*
X4559Y3840D02*
X4059D01*
D28*
X3559Y5966D02*
X3560Y6389D01*
X3559Y5966D02*
X3554Y4864D01*
X4066Y4392D01*
X3560Y6389D02*
X2805Y7088D01*
X5680Y8801D02*
X6428Y9234D01*
X6507Y9313D01*
Y10138D01*
X4066Y4273D02*
X4059Y3840D01*
X4066Y4392D02*
Y4273D01*
X6152Y10384D02*
Y10974D01*
X2579Y1123D02*
X2834D01*
X3150Y789D01*
X2805Y1871D02*
X2579D01*
X2805Y7088D02*
Y8454D01*
X6507Y10138D02*
X6152Y10384D01*
D29*
X3642Y1871D02*
X3484Y2568D01*
X12334Y1911D02*
Y1439D01*
X-492Y6054D02*
X0D01*
X-492Y5661D02*
X0D01*
D30*
X2805Y8454D02*
X3485Y8801D01*
X4893D01*
X11192Y2502D02*
Y3025D01*
Y5584D01*
X10424Y6371D01*
X9371D01*
X7205Y7159D02*
X7924Y6371D01*
X6615Y7159D02*
X7205D01*
X9371Y6371D02*
X7924D01*
X5208Y8132D02*
X4893Y8801D01*
X6615Y7159D02*
X5632Y8114D01*
X5208Y8132D01*
X4079Y9D02*
X4075Y315D01*
X3150Y789D02*
Y1478D01*
X2805Y1871D01*
X2579D02*
X2290Y2457D01*
X3494Y789D02*
X3150D01*
X2290Y2457D02*
X2293Y3046D01*
X2003Y8075D02*
X1476Y7531D01*
Y3670D01*
X1624Y3495D01*
X2805Y8454D02*
X2003Y8075D01*
X1969Y3495D02*
X2293Y3046D01*
X1624Y3495D02*
X1969D01*
X4075Y315D02*
X3494Y789D01*
D31*
X12905Y5637D03*
X9843Y8711D03*
X10089Y11663D03*
X8161Y10529D03*
X7885Y10297D03*
X9263Y11832D03*
X8987Y11518D03*
X8809Y11171D03*
X8563Y10672D03*
X6822Y10374D03*
X14381Y2620D03*
X15169Y12856D03*
X6152Y10974D03*
X9074Y12187D03*
X5640Y11527D03*
X4421Y12344D03*
X3515D03*
X9519Y13294D03*
X8928Y13349D03*
X8465Y13337D03*
X3445Y10335D03*
X2862Y10326D03*
X2854Y9795D03*
X15247Y8998D03*
Y8407D03*
Y7817D03*
X14657Y3525D03*
X14972Y3222D03*
X15247Y2895D03*
X2411Y9499D03*
X5293Y6557D03*
X6507Y6084D03*
X7058Y5455D03*
X7373Y5179D03*
X7688Y4903D03*
X8003Y4667D03*
X8830Y4753D03*
X9106Y4445D03*
X9381Y3919D03*
X6861Y9667D03*
X9655Y3632D03*
X9970Y3270D03*
X10285Y3594D03*
X11468Y6675D03*
X12649Y3526D03*
X10488Y9667D03*
X12491Y12462D03*
X12334Y1911D03*
X12205Y936D03*
X9203Y2806D03*
X11192Y2502D03*
X6693Y3222D03*
X4608Y3102D03*
X12609Y6518D03*
X13467Y7817D03*
X11270Y8495D03*
X6468Y4667D03*
X11586Y3407D03*
X8318Y6832D03*
X12964Y2069D03*
X3554Y4347D03*
X3909Y5140D03*
X4499Y5415D03*
X4951Y6954D03*
X4318Y4785D03*
X13948Y11990D03*
X13987Y10730D03*
X12958Y11240D03*
X1083Y11714D03*
X2965Y2568D03*
X3484D03*
X7579Y2806D03*
X4313D03*
X7087Y2560D03*
X0Y5267D03*
Y4873D03*
Y4480D03*
Y4086D03*
Y3692D03*
Y3298D03*
Y2905D03*
Y2511D03*
X-961Y2257D03*
X-1132Y3495D03*
Y3889D03*
Y4283D03*
Y4676D03*
Y5070D03*
Y5464D03*
Y5858D03*
Y6251D03*
X0Y5661D03*
Y6054D03*
X872Y10041D03*
X-1132Y6645D03*
D19*
X11368Y936D03*
X13041Y641D03*
X11713Y543D03*
X12746Y641D03*
X10301Y2216D03*
X8465Y2757D03*
X5105Y3397D03*
X3222Y2806D03*
X4584Y2567D03*
D31*
X6644Y10925D03*
X5118Y10679D03*
D32*
X14578Y12108D03*
Y11281D03*
D33*
X6783Y5781D03*
X12255Y8565D03*
D35*
X1998Y4075D03*
Y5075D03*
Y6075D03*
Y7075D03*
X2003Y8075D03*
D37*
X3837Y7784D03*
D42*
X3489Y6D03*
X4079Y9D03*
X4668Y-13D03*
X5258Y9D03*
X5851Y-13D03*
X6441Y9D03*
X7029Y6D03*
X7619Y9D03*
X8212Y2D03*
X8802Y5D03*
X9981D03*
X10573Y9D03*
X11163Y5D03*
X11752Y2D03*
D40*
X12342Y5D03*
D42*
X12936Y7D03*
X1718Y6D03*
X1127D03*
X537D03*
X2899D03*
X2308D03*
D46*
X6615Y1686D03*
X6811D03*
X7008D03*
X7205D03*
X7402D03*
X7599D03*
X7796D03*
X7992D03*
X8189D03*
X8386D03*
X8583D03*
X8780D03*
X8977D03*
X9174D03*
X9370D03*
X9567D03*
X9764D03*
X9961D03*
X10158D03*
X10355D03*
X10552D03*
X10748D03*
X10945D03*
X11142D03*
X11339D03*
X6615Y7907D03*
X6811D03*
X7008D03*
X7205D03*
X7402D03*
X7599D03*
X7796D03*
X7992D03*
X8189D03*
X8386D03*
X8583D03*
X8780D03*
X8977D03*
X9174D03*
X9370D03*
X9567D03*
X9764D03*
X9961D03*
X10158D03*
X10355D03*
X10552D03*
X10748D03*
X10945D03*
X11142D03*
X11339D03*
D47*
X7944Y9457D03*
X8141D03*
X8338D03*
X8535D03*
X8732D03*
X8928D03*
X9125D03*
X9322D03*
X9519D03*
X9716D03*
X9913D03*
X10109D03*
X7944Y12803D03*
X8141D03*
X8338D03*
X8535D03*
X8732D03*
X8928D03*
X9125D03*
X9322D03*
X9519D03*
X9716D03*
X9913D03*
X10109D03*
D51*
X4559Y5966D03*
X4059D03*
X3559D03*
D39*
X2902Y6045D02*
Y6311D01*
X2981D01*
X3138D02*
X3217D01*
Y6045D01*
Y5888D02*
Y5622D01*
X3138D01*
X2981D02*
X2902D01*
Y5888D01*
D51*
X4559Y3840D03*
X4059D03*
X3559D03*
X3059D03*
D39*
X4474Y10221D02*
Y10320D01*
X4612D01*
X4769D02*
X4907D01*
Y10221D01*
Y10064D02*
Y9965D01*
X4769D01*
X4612D02*
X4474D01*
Y10064D01*
D55*
X3942Y10493D03*
X4690Y10843D03*
D56*
X4702Y1209D03*
Y1799D03*
X12334Y1439D03*
D39*
X11527Y1518D02*
Y1655D01*
X11665D01*
X11822D02*
X11960D01*
Y1518D01*
Y1360D02*
Y1222D01*
X11822D01*
X11665D02*
X11527D01*
Y1360D01*
D56*
X5217Y2528D03*
Y1938D03*
D39*
X1483Y2536D02*
Y2673D01*
X1621D01*
X1779D02*
X1916D01*
Y2536D01*
Y2378D02*
Y2240D01*
X1779D01*
X1621D02*
X1483D01*
Y2378D01*
D56*
X2290Y2457D03*
D39*
X13338Y1675D02*
Y1813D01*
X13476D01*
X13633D02*
X13771D01*
Y1675D01*
Y1518D02*
Y1380D01*
X13633D01*
X13476D02*
X13338D01*
Y1518D01*
D56*
X12964Y1596D03*
D39*
X1486Y3124D02*
Y3262D01*
X1624D01*
X1781D02*
X1919D01*
Y3124D01*
Y2967D02*
Y2829D01*
X1781D01*
X1624D02*
X1486D01*
Y2967D01*
D56*
X2293Y3046D03*
X4183Y1783D03*
D39*
X3967Y2452D02*
Y2590D01*
X4104D01*
X4262D02*
X4400D01*
Y2452D01*
Y2295D02*
Y2157D01*
X4262D01*
X4104D02*
X3967D01*
Y2295D01*
D56*
X5212Y4273D03*
X12315Y8158D03*
Y7568D03*
D39*
X11487Y8210D02*
Y8348D01*
X11625D01*
X11783D02*
X11921D01*
Y8210D01*
Y8053D02*
Y7915D01*
X11783D01*
X11625D02*
X11487D01*
Y8053D01*
D56*
X11704Y8722D03*
D39*
X13250Y6736D02*
Y6874D01*
X13388D01*
X13545D02*
X13683D01*
Y6736D01*
Y6579D02*
Y6441D01*
X13545D01*
X13388D02*
X13250D01*
Y6579D01*
D56*
X13467Y7248D03*
D39*
X5415Y7602D02*
Y7740D01*
X5553D01*
X5711D02*
X5849D01*
Y7602D01*
Y7445D02*
Y7307D01*
X5711D01*
X5553D02*
X5415D01*
Y7445D01*
D56*
X5632Y8114D03*
D39*
X6212Y8722D02*
Y8860D01*
X6350D01*
X6507D02*
X6645D01*
Y8722D01*
Y8565D02*
Y8427D01*
X6507D01*
X6350D02*
X6212D01*
Y8565D01*
D56*
X6428Y9234D03*
X10720Y13053D03*
D39*
X11094Y13132D02*
Y13269D01*
X11232D01*
X11389D02*
X11527D01*
Y13132D01*
Y12974D02*
Y12836D01*
X11389D01*
X11232D02*
X11094D01*
Y12974D01*
D56*
X5602Y12462D03*
Y13053D03*
D39*
X2865Y11832D02*
Y11970D01*
X3003D01*
X3161D02*
X3298D01*
Y11832D01*
Y11675D02*
Y11537D01*
X3161D01*
X3003D02*
X2865D01*
Y11675D01*
D56*
X3082Y12344D03*
D39*
X3751Y11832D02*
Y11970D01*
X3889D01*
X4046D02*
X4184D01*
Y11832D01*
Y11675D02*
Y11537D01*
X4046D01*
X3889D02*
X3751D01*
Y11675D01*
D56*
X3968Y12344D03*
D39*
X4637Y11743D02*
Y11881D01*
X4775D01*
X4932D02*
X5070D01*
Y11743D01*
Y11586D02*
Y11448D01*
X4932D01*
X4775D02*
X4637D01*
Y11586D01*
D56*
X4854Y12255D03*
X2531Y12384D03*
X1940D03*
X14224Y7817D03*
X14814D03*
X14224Y8407D03*
X14814D03*
X14224Y8998D03*
X14814D03*
D39*
X13338Y8486D02*
Y8624D01*
X13476D01*
X13633D02*
X13771D01*
Y8486D01*
Y8329D02*
Y8191D01*
X13633D01*
X13476D02*
X13338D01*
Y8329D01*
D56*
X13554Y8998D03*
D39*
X2589Y9124D02*
Y9261D01*
X2726D01*
X2884D02*
X3022D01*
Y9124D01*
Y8966D02*
Y8828D01*
X2884D01*
X2726D02*
X2589D01*
Y8966D01*
D56*
X2805Y8454D03*
X6152Y10384D03*
D39*
X5935Y9872D02*
Y10010D01*
X6073D01*
X6230D02*
X6368D01*
Y9872D01*
Y9715D02*
Y9577D01*
X6230D01*
X6073D02*
X5935D01*
Y9715D01*
D56*
X11389Y12423D03*
D39*
X11763Y12502D02*
Y12640D01*
X11901D01*
X12058D02*
X12196D01*
Y12502D01*
Y12344D02*
Y12206D01*
X12058D01*
X11901D02*
X11763D01*
Y12344D01*
D56*
X13751Y927D03*
X14342D03*
X13751Y370D03*
X14342D03*
X1476Y9844D03*
X2067D03*
X5212Y6084D03*
Y5494D03*
D39*
X3810Y6754D02*
Y6892D01*
X3948D01*
X4106D02*
X4243D01*
Y6754D01*
Y6596D02*
Y6458D01*
X4106D01*
X3948D02*
X3810D01*
Y6596D01*
D56*
X4617Y6675D03*
X6496Y12795D03*
D39*
X6870Y12874D02*
Y13012D01*
X7008D01*
X7165D02*
X7303D01*
Y12874D01*
Y12717D02*
Y12579D01*
X7165D01*
X7008D02*
X6870D01*
Y12717D01*
D56*
X6152Y11467D03*
Y12057D03*
X5561Y10679D03*
D39*
X5344Y10167D02*
Y10305D01*
X5482D01*
X5640D02*
X5778D01*
Y10167D01*
Y10010D02*
Y9872D01*
X5640D01*
X5482D02*
X5344D01*
Y10010D01*
D56*
X2854Y11122D03*
X3445D03*
D58*
X3642Y1871D03*
Y1123D03*
X2579Y1871D03*
Y1123D03*
Y1497D03*
D61*
X13908Y2829D03*
X13909Y3025D03*
Y3222D03*
Y3419D03*
Y3616D03*
Y3813D03*
Y4010D03*
Y4206D03*
Y4403D03*
Y4600D03*
Y4797D03*
Y4994D03*
Y5191D03*
Y5388D03*
Y5584D03*
Y5781D03*
Y5978D03*
Y2632D03*
Y6175D03*
Y2435D03*
D62*
X4893Y8801D03*
X5680D03*
D63*
X10700Y10047D03*
Y10244D03*
Y10441D03*
Y10638D03*
Y10835D03*
Y11032D03*
Y11229D03*
Y11425D03*
Y11622D03*
Y11819D03*
Y12016D03*
Y12213D03*
X7354Y10047D03*
Y10244D03*
Y10441D03*
Y10638D03*
Y10835D03*
Y11032D03*
Y11229D03*
Y11425D03*
Y11622D03*
Y11819D03*
Y12016D03*
Y12213D03*
D65*
X5866Y7159D03*
Y6962D03*
Y6765D03*
Y6568D03*
Y6371D03*
Y6175D03*
Y5978D03*
Y5781D03*
Y5584D03*
Y5387D03*
Y5190D03*
Y4994D03*
Y4797D03*
Y4600D03*
Y4403D03*
Y4206D03*
Y4009D03*
Y3812D03*
Y3616D03*
Y3419D03*
Y3222D03*
Y3025D03*
Y2828D03*
Y2631D03*
Y2434D03*
X12087Y7159D03*
Y6962D03*
Y6765D03*
Y6568D03*
Y6371D03*
Y6175D03*
Y5978D03*
Y5781D03*
Y5584D03*
Y5387D03*
Y5190D03*
Y4994D03*
Y4797D03*
Y4600D03*
Y4403D03*
Y4206D03*
Y4009D03*
Y3812D03*
Y3616D03*
Y3419D03*
Y3222D03*
Y3025D03*
Y2828D03*
Y2631D03*
Y2434D03*
D66*
X12491Y13534D03*
X15011D03*
X13358D03*
X14184D03*
D67*
X-492Y2511D03*
Y2905D03*
Y3298D03*
Y3692D03*
Y4086D03*
Y4480D03*
Y4873D03*
Y5267D03*
Y5661D03*
Y6054D03*
X-1590Y2708D03*
Y3102D03*
Y3495D03*
Y3889D03*
Y4283D03*
Y4676D03*
Y5070D03*
Y5464D03*
Y5858D03*
Y6251D03*
Y6645D03*
D39*
X-846Y6527D02*
Y6566D01*
X-571D01*
X-413D02*
X-138D01*
Y6527D01*
Y6369D02*
Y6330D01*
X-413D01*
X-571D02*
X-846D01*
Y6369D01*
D67*
X-1590Y7039D03*
D39*
X-846Y6921D02*
Y6960D01*
X-571D01*
X-413D02*
X-138D01*
Y6921D01*
Y6763D02*
Y6724D01*
X-413D01*
X-571D02*
X-846D01*
Y6763D01*
D69*
X15208Y11281D03*
Y12108D03*
X1737Y11634D03*
Y10807D03*
D39*
X-1553Y1729D02*
Y2044D01*
X-1120D01*
X-962D02*
X-529D01*
Y1729D01*
Y1572D02*
Y1257D01*
X-962D01*
X-1120D02*
X-1553D01*
Y1572D01*
Y8021D02*
Y8336D01*
X-1120D01*
X-962D02*
X-529D01*
Y8021D01*
Y7864D02*
Y7549D01*
X-962D01*
X-1120D02*
X-1553D01*
Y7864D01*
X14172Y1877D02*
Y2231D01*
X14724D01*
X14881D02*
X15432D01*
Y1877D01*
Y1719D02*
Y1365D01*
X14881D01*
X14724D02*
X14172D01*
Y1719D01*
Y6890D02*
Y7245D01*
X14724D01*
X14881D02*
X15432D01*
Y6890D01*
Y6733D02*
Y6379D01*
X14881D01*
X14724D02*
X14172D01*
Y6733D01*
%LPD*%
G36*
X3674Y9961D02*
Y9434D01*
X3297Y9961D01*
X3674D01*
G37*
G36*
X3280Y9365D02*
Y9892D01*
X3657Y9365D01*
X3280D01*
G37*
G36*
X13707Y11645D02*
X13103D01*
X13707Y12250D01*
Y11645D01*
G37*
G36*
X13039Y12309D02*
X13643D01*
X13039Y11705D01*
Y12309D01*
G37*
D10*
X11752Y2D02*
X11350Y533D01*
X8802Y5D02*
X9371Y612D01*
X8212Y2D02*
X8514Y395D01*
X7619Y9D02*
X7776Y395D01*
X7029Y6D02*
X7333Y543D01*
X6441Y9D02*
X6791Y690D01*
X8514Y395D02*
X8849D01*
X7776D02*
X8287D01*
X8780Y1006D01*
X7333Y543D02*
X8172D01*
X8583Y1045D01*
X6791Y690D02*
X8037D01*
X5851Y-13D02*
X6348Y838D01*
X7921D01*
X5258Y9D02*
X5906Y985D01*
X7562D01*
X13909Y3813D02*
X14394D01*
X13053Y3812D02*
X13568Y4600D01*
X12909Y4206D02*
X13594Y5191D01*
X12848Y4403D02*
X13527Y5388D01*
X13587Y5781D02*
X13909D01*
X13521Y5978D02*
X13909D01*
X13062Y6234D02*
Y9140D01*
X10700Y12016D02*
X12373D01*
X12570Y11793D01*
X12413Y9533D02*
Y11636D01*
X12255Y11819D01*
X10700D01*
X12255Y9415D02*
Y11360D01*
X12019Y11622D01*
X10700D01*
X12098Y11203D02*
X11861Y11425D01*
X10700D01*
X11940Y11045D02*
X11743Y11229D01*
X10700D01*
X11783Y9700D02*
Y10888D01*
X11586Y11032D01*
X10700D01*
X11625Y9760D02*
Y10691D01*
X11468Y10835D01*
X10700D01*
X12904Y9061D02*
X12413Y9533D01*
X12767Y7020D02*
Y8943D01*
X12255Y9415D01*
X12087Y6962D02*
X12413D01*
X11940Y9592D02*
Y11045D01*
X10552Y8739D02*
X11625Y9760D01*
X10355Y8804D02*
X11468Y9832D01*
Y10564D01*
X11310Y10638D01*
X10700D01*
X9764Y7907D02*
Y8423D01*
X7796Y7907D02*
X7806Y8683D01*
X9125Y8978D02*
Y9457D01*
X8583Y8491D02*
Y7907D01*
X8731Y9006D02*
X8732Y9457D01*
X8386Y7907D02*
Y8527D01*
X8809Y11171D02*
X8646Y11032D01*
X8292Y11426D02*
X8714Y11832D01*
X9263D01*
X8437Y11229D02*
X8724Y11518D01*
X8646Y11032D02*
X7354D01*
X8169Y10835D02*
X8563Y10672D01*
X12570Y9651D02*
Y11793D01*
X13062Y9140D02*
X12570Y9651D01*
X12904Y9061D02*
X12924Y6313D01*
X12650Y5978D01*
X12767Y7020D02*
X12452Y6765D01*
X9567Y8364D02*
X9400Y8563D01*
X8535Y9055D02*
Y9457D01*
X8338Y9130D02*
X8197Y8958D01*
X7706Y10441D02*
X7885Y10297D01*
X6861Y9667D02*
Y9905D01*
X6980Y10048D02*
X7354Y10047D01*
X12491Y12462D02*
Y13534D01*
X5364Y1133D02*
X4668Y-13D01*
X9981Y5D02*
X9961Y298D01*
X10355Y1686D02*
Y306D01*
X7944Y9457D02*
X7491D01*
X7354Y11819D02*
X7806D01*
X7354D02*
X6888D01*
X9716Y12803D02*
Y13112D01*
X9074Y12187D02*
X9322Y12384D01*
X9074Y12187D02*
X9125Y12403D01*
X7031Y10244D02*
X6822Y10374D01*
X9322Y12384D02*
Y12803D01*
X9716Y13112D02*
X9861Y13348D01*
X1737Y11634D02*
X2264Y11222D01*
X12958Y11240D02*
X13555Y10837D01*
X14224Y8998D02*
Y8407D01*
Y7817D01*
X13554Y8998D02*
X14224D01*
X13909Y3419D02*
X14499Y3407D01*
X13908Y2829D02*
X14145Y2817D01*
X14499Y3407D02*
X14657Y3525D01*
X10110Y9104D02*
X9843Y8711D01*
X13909Y3222D02*
X14972D01*
X8724Y11518D02*
X8987D01*
X12087Y4600D02*
X11546D01*
X12087Y3025D02*
X11192D01*
X12087Y3222D02*
X12546D01*
X12087Y3419D02*
X11586Y3407D01*
X13527Y5388D02*
X13909D01*
X13594Y5191D02*
X13909D01*
X13524Y4797D02*
X13909D01*
X13568Y4600D02*
X13909D01*
X13501Y4206D02*
X13909D01*
X13581Y4010D02*
X13909D01*
X12087Y5190D02*
X12562D01*
X12905Y5637D01*
X10945Y1686D02*
X10956Y2069D01*
X13497Y2632D02*
X13909D01*
X14381Y2620D01*
X12901Y2631D02*
X12087D01*
X12822Y2828D02*
X12087D01*
X13524Y4797D02*
X12983Y4009D01*
X13053Y3812D02*
X12087D01*
X12983Y4009D02*
X12087D01*
X12909Y4206D02*
X12087D01*
X12848Y4403D02*
X12087D01*
Y4797D02*
X12891D01*
X13587Y5781D01*
X13521Y5978D02*
X12803Y4993D01*
X12087Y4994D01*
Y5584D02*
X11192D01*
X12087Y5781D02*
X12690D01*
X12087Y6175D02*
X11743D01*
X11940Y9592D02*
X10945Y8650D01*
X11783Y9700D02*
X10748Y8683D01*
X10552Y8739D02*
Y7907D01*
X9961D02*
Y7362D01*
X10355Y8804D02*
Y7907D01*
X8780D02*
Y7342D01*
X8977Y7907D02*
Y8730D01*
X7992Y7907D02*
X7993Y7226D01*
X7205Y7907D02*
Y7159D01*
X6615Y7907D02*
Y7159D01*
X10748Y857D02*
Y1686D01*
X11163Y5D02*
X10552Y756D01*
Y1686D01*
X10355Y306D02*
X10573Y9D01*
X9567Y1686D02*
X9578Y2271D01*
X10158Y1686D02*
X10169Y2211D01*
X5866Y7159D02*
X6615D01*
X5866Y5978D02*
X6232D01*
X5866Y5584D02*
X6497D01*
X5866Y5387D02*
X6521D01*
X5866Y5190D02*
X6533D01*
X5866Y4994D02*
X6541Y4993D01*
X5866Y4403D02*
X8484D01*
X5866Y4009D02*
X6580D01*
X5866Y2434D02*
X6603D01*
X12690Y5781D02*
X13062Y6234D01*
X12650Y5978D02*
X12087D01*
X12452Y6765D02*
X12087D01*
X12098Y9297D02*
Y11203D01*
X12609Y8825D02*
X12098Y9297D01*
X12609Y7113D02*
Y8825D01*
X12413Y6962D02*
X12609Y7113D01*
X10945Y8650D02*
Y7907D01*
X10748Y8683D02*
Y7907D01*
X9567D02*
Y8364D01*
X9174Y7907D02*
Y8704D01*
X7806Y8683D02*
X7885Y8801D01*
X5866Y4206D02*
X8869D01*
X5866Y3812D02*
X9106D01*
X5866Y2631D02*
X6543D01*
X6615Y1686D02*
X6299Y1478D01*
X7008Y1686D02*
Y1969D01*
X7402Y1686D02*
X7413Y2042D01*
X11142Y1686D02*
Y1321D01*
X12087Y3616D02*
X12452Y3604D01*
X12087Y6568D02*
X11625Y6557D01*
X10158Y7907D02*
Y8877D01*
X10488Y9208D01*
X5866Y4600D02*
X4932Y4588D01*
X9371Y612D02*
X9370Y1686D01*
X9174Y783D02*
Y1686D01*
X8780Y1006D02*
Y1686D01*
X8583Y1045D02*
Y1686D01*
X8386Y1110D02*
Y1686D01*
X7921Y838D02*
X8189Y1183D01*
X7562Y985D02*
X7796Y1281D01*
X8037Y690D02*
X8386Y1110D01*
X8189Y1183D02*
Y1686D01*
X7796Y1281D02*
Y1686D01*
X5364Y1133D02*
X7448D01*
X7599Y1329D01*
X6543Y2631D02*
X7223Y3339D01*
X9681Y3348D01*
X6603Y2434D02*
X7333Y3200D01*
X6811Y1686D02*
Y2256D01*
X12452Y3604D02*
X12649Y3526D01*
X12546Y3222D02*
X12654Y3112D01*
X12901Y2631D02*
X13289Y3223D01*
X12822Y2828D02*
X13131Y3301D01*
X13289Y3565D02*
X13581Y4010D01*
X13131Y3643D02*
X13501Y4206D01*
X10956Y2069D02*
X11074Y2187D01*
X12452D01*
X9961Y298D02*
Y1686D01*
X8849Y395D02*
X9174Y783D01*
X7599Y1329D02*
Y1686D01*
X13368Y2502D02*
X13497Y2632D01*
X13446Y2344D02*
X13565Y2435D01*
X13909D01*
X14342Y927D02*
Y370D01*
X13751D02*
X13121Y927D01*
X12205Y936D01*
X11350Y533D02*
X11035D01*
X10748Y857D01*
X7413Y2042D02*
X8219Y3052D01*
X9449D01*
X6811Y2256D02*
X7087Y2560D01*
X7008Y1969D02*
X7579Y2689D01*
X7205Y1686D02*
Y1330D01*
X5866Y2828D02*
X5484D01*
X5217Y2528D01*
X4313Y2806D02*
X3928Y3102D01*
X5866Y3419D02*
X5555D01*
X5043Y3840D01*
X4559D01*
X7992Y1686D02*
X7994Y2222D01*
X8977Y1686D02*
X8987Y2226D01*
X9578Y2271D02*
X9203Y2806D01*
X9764Y1686D02*
X9744Y2806D01*
X5866Y3222D02*
X6693D01*
X3297Y3298D02*
X3059Y3840D01*
X3061Y4547D01*
X2510Y5059D01*
X5866Y6962D02*
X5528Y6951D01*
X4814Y7266D02*
X4342Y6951D01*
X12087Y5387D02*
X11743D01*
X11532Y5297D01*
X11625Y6557D02*
X11468Y6675D01*
X11743Y6175D02*
X11428Y6006D01*
X4342Y6951D02*
Y6360D01*
X5866Y6568D02*
X6192D01*
X5866Y6371D02*
X6192D01*
X5866Y6175D02*
X6192D01*
X12087Y7159D02*
X12315Y7568D01*
X12005Y7826D01*
X4932Y4588D02*
X4814Y4510D01*
X5866Y6765D02*
X5484D01*
X6389Y6911D02*
X6615Y7159D01*
X6192Y6175D02*
X6389Y6360D01*
Y6557D02*
Y6360D01*
X6192Y6371D02*
X6389Y6557D01*
X6192Y6568D02*
X6389Y6793D01*
Y6557D01*
Y6793D02*
Y6911D01*
X6232Y5978D02*
X6507Y6084D01*
X5866Y5781D02*
X6783D01*
X6861Y9905D02*
X6980Y10048D01*
X6675Y5455D02*
X7058D01*
X6821Y5179D02*
X7373D01*
X6913Y4903D02*
X7688D01*
X6974Y4667D02*
X8003D01*
X6541Y4993D02*
X6974Y4667D01*
X6533Y5190D02*
X6913Y4903D01*
X6521Y5387D02*
X6821Y5179D01*
X6497Y5584D02*
X6675Y5455D01*
X8869Y4206D02*
X9106Y4445D01*
X9655Y3632D02*
X9421Y3616D01*
X9370Y7907D02*
X9371Y6371D01*
X10488Y9208D02*
Y9667D01*
X9764Y8423D02*
X9596Y8628D01*
Y8803D01*
X9400Y8563D02*
Y8809D01*
X8977Y8730D02*
X9125Y8978D01*
X8928Y9017D02*
X8583Y8491D01*
X8386Y8527D02*
X8731Y9006D01*
X8780Y7342D02*
X8625Y7226D01*
X9961Y7362D02*
X9932Y7226D01*
X8189Y7907D02*
Y7502D01*
X8197Y8958D02*
X7728D01*
X7609Y8762D01*
X7599Y7907D01*
X8314Y8801D02*
X8535Y9055D01*
X7885Y8801D02*
X8314D01*
X12688Y1124D02*
X13436D01*
X13751Y927D01*
X5484Y6765D02*
X5293Y6557D01*
X8189Y7502D02*
X8318Y7344D01*
Y6832D01*
X4539Y4510D02*
X4318Y4785D01*
X4449Y5140D01*
X3554Y4347D02*
X3559Y3840D01*
X3909Y5140D02*
X4066Y5297D01*
X4059Y5966D01*
X4499Y5415D02*
X4539Y5651D01*
X4559Y5966D01*
X4342Y6360D02*
X4559Y5966D01*
X5528Y6951D02*
X5247Y7266D01*
X5866Y6175D02*
X5477D01*
X13948Y11990D02*
X13515Y11832D01*
X13239Y12069D02*
Y12502D01*
Y12069D02*
X12806D01*
X7008Y7907D02*
Y8447D01*
X6811Y7907D02*
Y8447D01*
X13131Y3301D02*
Y3643D01*
X13289Y3223D02*
Y3565D01*
X8484Y4403D02*
X8830Y4753D01*
X9106Y3812D02*
X9381Y3919D01*
X9421Y3616D02*
X5866D01*
X13467Y7817D02*
Y7248D01*
X12452Y2187D02*
X12609Y2502D01*
X13368D01*
X12334Y1911D02*
X12531D01*
X12728Y2344D02*
X13446D01*
X12334Y1439D02*
X12688Y1124D01*
X12531Y1911D02*
X12728Y2344D01*
X5247Y7266D02*
X4814D01*
X4951Y6954D02*
X4617Y6675D01*
X4696Y4825D02*
X4923Y4864D01*
X4449Y5140D02*
X4854D01*
X5212Y5494D01*
X4814Y4510D02*
X4539D01*
X4923Y4864D02*
X5212D01*
X2411Y9499D02*
X2067Y9844D01*
X12255Y8565D02*
X12315Y8158D01*
X14145Y2817D02*
X14263Y2895D01*
X15247D01*
X11142Y1321D02*
X11074Y1140D01*
X15247Y8998D02*
X14814D01*
X15247Y8407D02*
X14814D01*
X15247Y7817D02*
X14814D01*
X2218Y10807D02*
X1737D01*
X15011Y13534D02*
X15169Y12856D01*
X14578Y12108D02*
X15208D01*
X14578Y11281D02*
X15208D01*
X1476Y9844D02*
X1083D01*
X1940Y12384D02*
X1344Y12382D01*
X591Y12255D02*
Y1073D01*
X443Y12452D02*
Y939D01*
X2899Y6D02*
X2330Y689D01*
X1777D01*
X886Y9598D02*
Y1281D01*
X2608Y4551D02*
X1998Y5075D01*
X2608Y3500D02*
Y4551D01*
X3928Y3102D02*
X2904D01*
X2510Y5059D02*
Y5728D01*
X1998Y6075D01*
X886Y1281D02*
X1777Y689D01*
X13555Y10837D02*
X13554Y8998D01*
X1344Y12382D02*
X738Y11911D01*
Y1182D02*
Y9844D01*
X1718Y6D02*
X1501Y374D01*
X591Y1073D01*
X5477Y6175D02*
X5212Y6084D01*
X2218Y10807D02*
X2854Y9795D01*
X11704Y8722D02*
X11467Y8732D01*
X12005Y7826D02*
Y8456D01*
X11704Y8722D01*
X11467Y8732D02*
X11270Y8495D01*
X1083Y11714D02*
X886Y11369D01*
X1033Y1428D02*
X1821Y887D01*
X2718D01*
X3489Y6D01*
X1033Y8859D02*
Y1428D01*
X3494Y1478D02*
X6299D01*
X2953Y2117D02*
X3494Y1478D01*
X2965Y2568D02*
X2953Y2117D01*
X7113Y1281D02*
X4921D01*
X7205Y1330D02*
X7113Y1281D01*
X4921D02*
X4702Y1209D01*
X2904Y3102D02*
X2608Y3500D01*
X4702Y1799D02*
X5217Y1938D01*
X4608Y3102D02*
X4279Y3298D01*
X9449Y3052D02*
X9744Y2806D01*
X7333Y3200D02*
X9744D01*
X7579Y2689D02*
Y2806D01*
X295Y12698D02*
Y777D01*
X1772Y9526D02*
X1033Y8859D01*
X1772Y10065D02*
Y9526D01*
X886Y10483D02*
X1083Y10237D01*
Y9844D02*
X886Y9598D01*
X1526Y10237D02*
X1772Y10065D01*
X1083Y10237D02*
X1526D01*
X886Y11369D02*
Y10483D01*
X-1821Y2708D02*
Y1236D01*
X-1624Y1084D01*
X0D01*
X12491Y13534D02*
X12418Y13584D01*
X12008Y13682D01*
X985Y13535D02*
X-1821Y11025D01*
Y7383D01*
X-1590Y7039D01*
X738Y9844D02*
X872Y10041D01*
X738Y10237D02*
Y11911D01*
X872Y10041D02*
X738Y10237D01*
X-1590Y6645D02*
X-1132D01*
X2264Y11222D02*
X2862Y10326D01*
X5866Y3025D02*
X5364D01*
X5167Y3200D01*
X4279Y3298D02*
X3297D01*
X5217Y1938D02*
X4859Y2280D01*
Y3298D02*
X4559Y3840D01*
X4859Y2280D02*
Y3298D01*
X9125Y12403D02*
Y12803D01*
X9976Y3594D02*
X10285D01*
X9681Y3348D02*
X9976Y3594D01*
X9744Y3200D02*
X9970Y3270D01*
X295Y777D02*
X541Y543D01*
X0Y1084D02*
X295Y777D01*
X8233Y13535D02*
X985D01*
X8381Y13682D02*
X8233Y13535D01*
X12008Y13682D02*
X8381D01*
X10109Y9457D02*
X10110Y9104D01*
X9913Y9457D02*
Y10140D01*
X10010Y10048D02*
X10700Y10047D01*
X9596Y8803D02*
X9716Y8951D01*
Y9457D01*
X9400Y8809D02*
X9519Y9002D01*
Y9457D01*
X9174Y8704D02*
X9322Y8957D01*
X8928Y9457D02*
Y9017D01*
X8338Y9457D02*
Y9130D01*
X8141Y9457D02*
Y9892D01*
X9322Y8957D02*
Y9457D01*
X9913Y12803D02*
Y13099D01*
X10169Y13317D01*
X10109Y12803D02*
Y13091D01*
X9913Y10140D02*
X10010Y10048D01*
X10700Y12213D02*
X10379D01*
X10089Y12008D01*
Y11663D01*
X10700Y10441D02*
X11192D01*
X10700D02*
X9990D01*
X10700Y10244D02*
X11197D01*
X10700D02*
X10138D01*
X10109Y13091D02*
X10169Y13317D01*
X8928Y12803D02*
X8933Y12467D01*
X8693Y12254D01*
X8535Y12803D02*
Y12451D01*
X8297Y12254D01*
X7354Y10244D02*
X7031D01*
X7354Y10441D02*
X7706D01*
X7354Y10638D02*
X7953D01*
X7354Y10835D02*
X8169D01*
X7354Y11229D02*
X8437D01*
X7354Y11425D02*
X8292Y11426D01*
X7953Y10638D02*
X8161Y10529D01*
X7354Y11622D02*
X7813D01*
X7354D02*
X6890D01*
X7354Y12213D02*
X7234Y12402D01*
X6841D01*
X6152Y12057D02*
X6644Y11762D01*
Y10925D01*
X5561Y10679D02*
X5118D01*
X4690Y10843D01*
X6841Y12402D02*
X6496Y12795D01*
X2854Y11122D02*
X3150Y10433D01*
Y9744D01*
X3396Y9498D01*
X3445Y10335D02*
Y10089D01*
X3543Y9793D01*
D11*
X6152Y12057D02*
X6102Y12122D01*
X5640Y11527D02*
X5285Y11802D01*
X8732Y12803D02*
Y13097D01*
X8928Y13349D01*
X7880Y13387D02*
X5955D01*
X5602Y13053D01*
X8141Y13132D02*
X7880Y13387D01*
X7874Y13189D02*
X7944Y13091D01*
X5602Y12462D02*
Y11951D01*
X6152Y11467D01*
X3515Y12344D02*
X3082D01*
X4421D02*
X3968D01*
X4854Y12255D02*
Y12697D01*
X5287Y11995D02*
X4854Y12255D01*
X5285Y11802D02*
X5287Y11995D01*
X2531Y12384D02*
Y11580D01*
X2854Y11122D01*
X3082Y12344D02*
X2785Y12854D01*
X1265D02*
X591Y12255D01*
X2785Y12854D02*
X1265D01*
X3968Y12344D02*
X3966Y12697D01*
X3651Y13051D02*
X1107D01*
X3966Y12697D02*
X3651Y13051D01*
X4854Y12697D02*
X4281Y13208D01*
X847D01*
X1107Y13051D02*
X443Y12452D01*
X847Y13208D02*
X295Y12698D01*
X2308Y6D02*
X1993Y492D01*
X1698D01*
X738Y1182D01*
X1127Y6D02*
X1122Y413D01*
X443Y939D01*
X-961Y2257D02*
X-1033Y2462D01*
Y2856D01*
X-1411Y3102D01*
X-1590D01*
Y2708D02*
X-1821D01*
X541Y543D02*
X537Y6D01*
X-492Y2511D02*
X0D01*
X-492Y2905D02*
X0D01*
X-492Y3298D02*
X0D01*
X-492Y3692D02*
X0D01*
X-492Y4086D02*
X0D01*
X-492Y4480D02*
X0D01*
X-492Y4873D02*
X0D01*
X-492Y5267D02*
X0D01*
X-1590Y3495D02*
X-1132D01*
X-1590Y3889D02*
X-1132D01*
X-1590Y4283D02*
X-1132D01*
X-1590Y4676D02*
X-1132D01*
X-1590Y5070D02*
X-1132D01*
X-1590Y5464D02*
X-1132D01*
X-1590Y5858D02*
X-1132D01*
X-1590Y6251D02*
X-1132D01*
X9519Y12803D02*
Y13294D01*
X7944Y13091D02*
Y12803D01*
X8141D02*
Y13132D01*
X8338Y12803D02*
Y13123D01*
X8465Y13337D01*
X6102Y12122D02*
Y13053D01*
X6152Y11467D02*
Y10974D01*
X6242Y13189D02*
X7874D01*
X6102Y13053D02*
X6242Y13189D01*
X3445Y11122D02*
Y10335D01*
D12*
X13909Y6175D02*
X14378D01*
X13909Y5584D02*
X14392D01*
X13909Y4994D02*
X14388D01*
X13909Y4403D02*
X14387D01*
X13909Y3025D02*
X13672D01*
X4066Y4273D02*
X5212D01*
X5866Y4797D02*
X6232D01*
X6468Y4667D01*
X13672Y3025D02*
X13442Y2935D01*
X3222Y2806D02*
X3445Y2856D01*
X3789D02*
X4183Y2374D01*
X4584Y2567D02*
X4183Y2374D01*
X3445Y2856D02*
X3789D01*
D13*
X9762Y12006D02*
X9475Y12187D01*
X9762Y12006D02*
X10720Y13053D02*
X10326Y12423D01*
X9475Y12187D02*
X9074D01*
X9762Y10297D02*
Y12006D01*
X10326Y12423D02*
X9762Y12006D01*
X10326Y12423D02*
X11389D01*
X9744Y2806D02*
X10856D01*
X13987Y10730D02*
X14260Y11085D01*
Y13340D01*
X12964Y2069D02*
Y1596D01*
X11743Y1439D02*
Y1911D01*
X10856Y2806D02*
X11192Y2502D01*
X4183Y1783D02*
X3937Y1871D01*
X3642D01*
X9762Y10297D02*
X9913Y10140D01*
D14*
X12087Y6371D02*
X10424D01*
X12087D02*
X12452Y6360D01*
X12609Y6518D01*
D15*
X4559Y3840D02*
X4059D01*
X6742Y13941D02*
X7185Y13732D01*
X6742Y13941D02*
X6299Y13732D01*
X6004D01*
X7185D02*
X7579D01*
X7530Y9689D02*
X7874Y9935D01*
X7628Y12556D02*
X7874Y12261D01*
D16*
X3559Y5966D02*
X3560Y6389D01*
X3559Y5966D02*
X3554Y4864D01*
X4066Y4392D01*
X3560Y6389D02*
X2805Y7088D01*
X5680Y8801D02*
X6428Y9234D01*
X6507Y9313D01*
Y10138D01*
X4066Y4273D02*
X4059Y3840D01*
X13358Y13534D02*
Y12502D01*
X4066Y4392D02*
Y4273D01*
X6152Y10384D02*
Y10974D01*
X2579Y1497D02*
X1929D01*
X2579Y1123D02*
X2834D01*
X3150Y789D01*
X2805Y1871D02*
X2579D01*
X2805Y7088D02*
Y8454D01*
X6507Y10138D02*
X6152Y10384D01*
D17*
X3642Y1871D02*
X3484Y2568D01*
X12334Y1911D02*
Y1439D01*
X-492Y6054D02*
X0D01*
X-492Y5661D02*
X0D01*
D18*
X2805Y8454D02*
X3485Y8801D01*
X4893D01*
X11192Y2502D02*
Y3025D01*
Y5584D01*
X10424Y6371D01*
X9371D01*
X7205Y7159D02*
X7924Y6371D01*
X6615Y7159D02*
X7205D01*
X9371Y6371D02*
X7924D01*
X5208Y8132D02*
X4893Y8801D01*
X6615Y7159D02*
X5632Y8114D01*
X5208Y8132D01*
X4079Y9D02*
X4075Y315D01*
X3150Y789D02*
Y1478D01*
X2805Y1871D01*
X2579D02*
X2290Y2457D01*
X3494Y789D02*
X3150D01*
X2290Y2457D02*
X2293Y3046D01*
X2003Y8075D02*
X1476Y7531D01*
Y3670D01*
X1624Y3495D01*
X2805Y8454D02*
X2003Y8075D01*
X1969Y3495D02*
X2293Y3046D01*
X1624Y3495D02*
X1969D01*
X4075Y315D02*
X3494Y789D01*
D19*
X12905Y5637D03*
X9843Y8711D03*
X10089Y11663D03*
X8161Y10529D03*
X7885Y10297D03*
X9263Y11832D03*
X8987Y11518D03*
X8809Y11171D03*
X8563Y10672D03*
X6822Y10374D03*
X14381Y2620D03*
X15169Y12856D03*
X6152Y10974D03*
X9074Y12187D03*
X5640Y11527D03*
X4421Y12344D03*
X3515D03*
X9519Y13294D03*
X8928Y13349D03*
X8465Y13337D03*
X3445Y10335D03*
X2862Y10326D03*
X2854Y9795D03*
X15247Y8998D03*
Y8407D03*
Y7817D03*
X14657Y3525D03*
X14972Y3222D03*
X15247Y2895D03*
X11783Y12895D03*
X2411Y9499D03*
X5293Y6557D03*
X6507Y6084D03*
X7058Y5455D03*
X7373Y5179D03*
X7688Y4903D03*
X8003Y4667D03*
X8830Y4753D03*
X9106Y4445D03*
X9381Y3919D03*
X6861Y9667D03*
X9655Y3632D03*
X9970Y3270D03*
X10285Y3594D03*
X11468Y6675D03*
X12649Y3526D03*
X10488Y9667D03*
X12491Y12462D03*
X12654Y3112D03*
X12334Y1911D03*
X12205Y936D03*
X9203Y2806D03*
X11192Y2502D03*
X6693Y3222D03*
X4608Y3102D03*
X11546Y4600D03*
X11532Y5297D03*
X11428Y6006D03*
X12609Y6518D03*
X13467Y7817D03*
X11270Y8495D03*
X6468Y4667D03*
X11586Y3407D03*
X7993Y7226D03*
X8318Y6832D03*
X8625Y7226D03*
X9932D03*
X12964Y2069D03*
X3554Y4347D03*
X3909Y5140D03*
X4499Y5415D03*
X4951Y6954D03*
X4318Y4785D03*
X13948Y11990D03*
X13987Y10730D03*
X7019Y8722D03*
X10900Y9706D03*
X13442Y2935D03*
X14021Y9586D03*
X13948Y12502D03*
X12840Y12618D03*
X8554Y10218D03*
X4823Y9449D03*
X5050Y7582D03*
X3445Y6940D03*
X3140Y5098D03*
X4696Y4825D03*
X10759Y3525D03*
Y4195D03*
Y4943D03*
X11531Y3919D03*
X9932Y6754D03*
X10759Y7226D03*
X11428D03*
X10759Y6714D03*
X13515Y1990D03*
X14814Y2502D03*
X15405D03*
X14762Y1208D03*
X15383Y1211D03*
X10759Y5494D03*
X13200Y5927D03*
X14021Y10138D03*
X11783Y13284D03*
X15444Y9392D03*
X10169Y13317D03*
X8022Y12156D03*
X7019Y9195D03*
X4281Y9449D03*
X8071Y8465D03*
X2362Y7580D03*
X2628Y6240D03*
X12958Y11240D03*
X1540Y8602D03*
X5364Y9440D03*
X1083Y11714D03*
X2965Y2568D03*
X3484D03*
X7579Y2806D03*
X4313D03*
X7087Y2560D03*
X0Y5267D03*
Y4873D03*
Y4480D03*
Y4086D03*
Y3692D03*
Y3298D03*
Y2905D03*
Y2511D03*
X-961Y2257D03*
X-1132Y3495D03*
Y3889D03*
Y4283D03*
Y4676D03*
Y5070D03*
Y5464D03*
Y5858D03*
Y6251D03*
X0Y5661D03*
Y6054D03*
X872Y10041D03*
X-1132Y6645D03*
X11368Y936D03*
X13041Y641D03*
X11713Y543D03*
X12746Y641D03*
X10301Y2216D03*
X8465Y2757D03*
X5105Y3397D03*
X3222Y2806D03*
X4584Y2567D03*
X-148Y7432D03*
Y8613D03*
X-886D03*
X-148Y9450D03*
X-197Y11615D03*
X-1083Y10976D03*
X6644Y10925D03*
X5118Y10679D03*
X5315Y11220D03*
X4380D03*
X6693Y12106D03*
X10120Y10679D03*
Y11122D03*
D20*
X14578Y12108D03*
Y11281D03*
D21*
X6783Y5781D03*
X12255Y8565D03*
D34*
X1998Y4075D03*
Y5075D03*
Y6075D03*
Y7075D03*
Y9063D03*
X2003Y8075D03*
D36*
X3837Y7784D03*
D40*
X3489Y6D03*
X4079Y9D03*
X4668Y-13D03*
X5258Y9D03*
X5851Y-13D03*
X6441Y9D03*
X7029Y6D03*
X7619Y9D03*
X8212Y2D03*
X8802Y5D03*
X9981D03*
X10573Y9D03*
X11163Y5D03*
X11752Y2D03*
X12342Y5D03*
X12936Y7D03*
X1718Y6D03*
X1127D03*
X537D03*
X2899D03*
X2308D03*
D41*
X6742Y13941D03*
D43*
X6615Y1686D03*
X6811D03*
X7008D03*
X7205D03*
X7402D03*
X7599D03*
X7796D03*
X7992D03*
X8189D03*
X8386D03*
X8583D03*
X8780D03*
X8977D03*
X9174D03*
X9370D03*
X9567D03*
X9764D03*
X9961D03*
X10158D03*
X10355D03*
X10552D03*
X10748D03*
X10945D03*
X11142D03*
X11339D03*
X6615Y7907D03*
X6811D03*
X7008D03*
X7205D03*
X7402D03*
X7599D03*
X7796D03*
X7992D03*
X8189D03*
X8386D03*
X8583D03*
X8780D03*
X8977D03*
X9174D03*
X9370D03*
X9567D03*
X9764D03*
X9961D03*
X10158D03*
X10355D03*
X10552D03*
X10748D03*
X10945D03*
X11142D03*
X11339D03*
D44*
X7944Y9457D03*
X8141D03*
X8338D03*
X8535D03*
X8732D03*
X8928D03*
X9125D03*
X9322D03*
X9519D03*
X9716D03*
X9913D03*
X10109D03*
X7944Y12803D03*
X8141D03*
X8338D03*
X8535D03*
X8732D03*
X8928D03*
X9125D03*
X9322D03*
X9519D03*
X9716D03*
X9913D03*
X10109D03*
D45*
X4559Y5966D03*
X4059D03*
X3559D03*
X3059D03*
X4559Y3840D03*
X4059D03*
X3559D03*
X3059D03*
D48*
X4690Y10143D03*
X3942Y10493D03*
X4690Y10843D03*
D49*
X4702Y1209D03*
Y1799D03*
X12334Y1439D03*
X11743D03*
X5217Y2528D03*
Y1938D03*
X1700Y2457D03*
X2290D03*
X13554Y1596D03*
X12964D03*
X1702Y3046D03*
X2293D03*
X4183Y1783D03*
Y2374D03*
X5212Y4864D03*
Y4273D03*
X12315Y8158D03*
Y7568D03*
X11704Y8132D03*
Y8722D03*
X13467Y6657D03*
Y7248D03*
X5632Y7524D03*
Y8114D03*
X6428Y8643D03*
Y9234D03*
X10720Y13053D03*
X11310D03*
X5602Y12462D03*
Y13053D03*
X3082Y11754D03*
Y12344D03*
X3968Y11754D03*
Y12344D03*
X4854Y11665D03*
Y12255D03*
X2531Y12384D03*
X1940D03*
X14224Y7817D03*
X14814D03*
X14224Y8407D03*
X14814D03*
X14224Y8998D03*
X14814D03*
X13554Y8407D03*
Y8998D03*
X2805Y9045D03*
Y8454D03*
X6152Y10384D03*
Y9793D03*
X11389Y12423D03*
X11980D03*
X13751Y927D03*
X14342D03*
X13751Y370D03*
X14342D03*
X1476Y9844D03*
X2067D03*
X5212Y6084D03*
Y5494D03*
X4027Y6675D03*
X4617D03*
X6496Y12795D03*
X7087D03*
X6152Y11467D03*
Y12057D03*
X5561Y10679D03*
Y10089D03*
X2854Y11122D03*
X3445D03*
D50*
X3642Y1871D03*
Y1123D03*
X2579Y1871D03*
Y1123D03*
Y1497D03*
D52*
X13908Y2829D03*
X13909Y3025D03*
Y3222D03*
Y3419D03*
Y3616D03*
Y3813D03*
Y4010D03*
Y4206D03*
Y4403D03*
Y4600D03*
Y4797D03*
Y4994D03*
Y5191D03*
Y5388D03*
Y5584D03*
Y5781D03*
Y5978D03*
Y2632D03*
Y6175D03*
Y2435D03*
D53*
X4893Y8801D03*
X5680D03*
D54*
X10700Y10047D03*
Y10244D03*
Y10441D03*
Y10638D03*
Y10835D03*
Y11032D03*
Y11229D03*
Y11425D03*
Y11622D03*
Y11819D03*
Y12016D03*
Y12213D03*
X7354Y10047D03*
Y10244D03*
Y10441D03*
Y10638D03*
Y10835D03*
Y11032D03*
Y11229D03*
Y11425D03*
Y11622D03*
Y11819D03*
Y12016D03*
Y12213D03*
D57*
X5866Y7159D03*
Y6962D03*
Y6765D03*
Y6568D03*
Y6371D03*
Y6175D03*
Y5978D03*
Y5781D03*
Y5584D03*
Y5387D03*
Y5190D03*
Y4994D03*
Y4797D03*
Y4600D03*
Y4403D03*
Y4206D03*
Y4009D03*
Y3812D03*
Y3616D03*
Y3419D03*
Y3222D03*
Y3025D03*
Y2828D03*
Y2631D03*
Y2434D03*
X12087Y7159D03*
Y6962D03*
Y6765D03*
Y6568D03*
Y6371D03*
Y6175D03*
Y5978D03*
Y5781D03*
Y5584D03*
Y5387D03*
Y5190D03*
Y4994D03*
Y4797D03*
Y4600D03*
Y4403D03*
Y4206D03*
Y4009D03*
Y3812D03*
Y3616D03*
Y3419D03*
Y3222D03*
Y3025D03*
Y2828D03*
Y2631D03*
Y2434D03*
D59*
X12491Y13534D03*
X15011D03*
X13358D03*
X14184D03*
D60*
X-492Y2511D03*
Y2905D03*
Y3298D03*
Y3692D03*
Y4086D03*
Y4480D03*
Y4873D03*
Y5267D03*
Y5661D03*
Y6054D03*
X-1590Y2708D03*
Y3102D03*
Y3495D03*
Y3889D03*
Y4283D03*
Y4676D03*
Y5070D03*
Y5464D03*
Y5858D03*
Y6251D03*
Y6645D03*
X-492Y6448D03*
X-1590Y7039D03*
X-492Y6842D03*
D64*
X15208Y11281D03*
Y12108D03*
X1737Y11634D03*
Y10807D03*
D68*
X-1041Y1651D03*
Y7943D03*
D70*
X14802Y1798D03*
Y6812D03*
M02*
