M48
;
; Format:               Excellon NC Drill Ascii
; Export Settings:      OSH Park
; This File Name:       GC_DUAL_FINAL_testffc_ADV.xln
; Source File Name:     GC_DUAL_FINAL_testffc_ADV.rrb
; Unique ID:            4e2d7a6f-c949-47f3-acdd-e5fe3011063f
; Generated Date:       Friday, 30 March 2018 12:58:07
;
; Created Using:        Robot Room Copper Connection v3.0.5875
; Software Contact:     http://www.robotroom.com/CopperConnection/Support.aspx
; License Number:       1880
;
; Zero Suppression:     None
; Number Precision:     2.4
;
FMAT,2
INCH
T01C.012
T02C.013
T03C.028
T04C.039
T05C.043
T06C.122
%
T01
X-000961Y002257
X000000Y002511
Y002905
Y003298
Y003692
Y004086
Y004480
Y004873
Y005267
Y005661
Y006054
X-001132Y005858
Y005464
Y005070
Y004676
Y004283
Y003889
Y003495
Y006251
Y006645
X-000148Y007432
Y008613
X-000886
X-000148Y009450
X000872Y010041
X001540Y008602
X002411Y009499
X002854Y009795
X002862Y010326
X003445Y010335
X004281Y009449
X004823
X005364Y009440
X005118Y010679
X005315Y011220
X005640Y011527
X006152Y010974
X006644Y010925
X006822Y010374
X006861Y009667
X007019Y009195
Y008722
X008071Y008465
X007993Y007226
X008318Y006832
X008625Y007226
X009932
Y006754
X010759Y006714
Y007226
X011428
X011468Y006675
X011428Y006006
X011532Y005297
X011546Y004600
X011531Y003919
X011586Y003407
X010759Y003525
X010285Y003594
X009970Y003270
X009655Y003632
X009381Y003919
X009106Y004445
X008830Y004753
X008003Y004667
X007688Y004903
X007373Y005179
X007058Y005455
X006783Y005781
X006507Y006084
X005293Y006557
X004951Y006954
X005050Y007582
X003445Y006940
X002628Y006240
X003140Y005098
X003909Y005140
X004318Y004785
X004696Y004825
X004499Y005415
X003554Y004347
X003222Y002806
X002965Y002568
X003484
X004313Y002806
X004584Y002567
X004608Y003102
X005105Y003397
X006693Y003222
X007087Y002560
X007579Y002806
X008465Y002757
X009203Y002806
X010301Y002216
X011192Y002502
X012334Y001911
X012964Y002069
X013515Y001990
X013442Y002935
X012654Y003112
X012649Y003526
X014381Y002620
X014814Y002502
X015247Y002895
X015405Y002502
X014972Y003222
X014657Y003525
X014762Y001208
X015383Y001211
X013041Y000641
X012746
X012205Y000936
X011713Y000543
X011368Y000936
X010759Y004195
Y004943
Y005494
X012609Y006518
X013200Y005927
X012905Y005637
X013467Y007817
X012255Y008565
X011270Y008495
X010900Y009706
X010488Y009667
X010120Y010679
Y011122
X010089Y011663
X009263Y011832
X009074Y012187
X008987Y011518
X008809Y011171
X008563Y010672
X008161Y010529
X007885Y010297
X008554Y010218
X009843Y008711
X008022Y012156
X008465Y013337
X008928Y013349
X009519Y013294
X010169Y013317
X011783Y013284
Y012895
X012491Y012462
X012840Y012618
X013948Y012502
Y011990
X012958Y011240
X013987Y010730
X014021Y010138
Y009586
X015247Y008998
X015444Y009392
X015247Y008407
Y007817
X015169Y012856
X006693Y012106
X004421Y012344
X003515
X004380Y011220
X001083Y011714
X-000197Y011615
X-001083Y010976
X002362Y007580
X006468Y004667
T02
X014578Y011281
Y012108
T03
X000537Y000006
X001127
X001718
X002308
X002899
X003489
X004079Y000009
X004668Y-000013
X005258Y000009
X005851Y-000013
X006441Y000009
X007029Y000006
X007619Y000009
X008212Y000002
X008802Y000005
X009981
X010573Y000009
X011163Y000005
X011752Y000002
X012342Y000005
X012936Y000007
T04
X001998Y004075
Y005075
Y006075
Y007075
X002003Y008075
X001998Y009063
T05
X006742Y013941
T06
X003837Y007784
M30
